<svg width="31" height="31" viewBox="0 0 31 31" fill="none" xmlns="http://www.w3.org/2000/svg">
<mask id="mask0_73_378" style="mask-type:alpha" maskUnits="userSpaceOnUse" x="0" y="0" width="31" height="31">
<rect x="0.5" y="0.456055" width="30" height="30" fill="#D9D9D9"/>
</mask>
<g mask="url(#mask0_73_378)">
<path d="M19.25 25.4561C16.4583 25.4561 14.0938 24.4873 12.1562 22.5498C10.2188 20.6123 9.25 18.2477 9.25 15.4561C9.25 12.6852 10.2188 10.3258 12.1562 8.37793C14.0938 6.43001 16.4583 5.45605 19.25 5.45605C22.0208 5.45605 24.3802 6.43001 26.3281 8.37793C28.276 10.3258 29.25 12.6852 29.25 15.4561C29.25 18.2477 28.276 20.6123 26.3281 22.5498C24.3802 24.4873 22.0208 25.4561 19.25 25.4561ZM19.25 22.9561C21.3333 22.9561 23.1042 22.2269 24.5625 20.7686C26.0208 19.3102 26.75 17.5394 26.75 15.4561C26.75 13.3727 26.0208 11.6019 24.5625 10.1436C23.1042 8.68522 21.3333 7.95605 19.25 7.95605C17.1667 7.95605 15.3958 8.68522 13.9375 10.1436C12.4792 11.6019 11.75 13.3727 11.75 15.4561C11.75 17.5394 12.4792 19.3102 13.9375 20.7686C15.3958 22.2269 17.1667 22.9561 19.25 22.9561ZM22.0938 20.1123L23.875 18.3311L20.5 14.9561V10.4561H18V15.9873L22.0938 20.1123ZM3 11.7061V9.20605H8V11.7061H3ZM1.75 16.7061V14.2061H8V16.7061H1.75ZM3 21.7061V19.2061H8V21.7061H3Z" fill="#000929"/>
</g>
</svg>
