<svg width="31" height="31" viewBox="0 0 31 31" fill="none" xmlns="http://www.w3.org/2000/svg">
<mask id="mask0_73_387" style="mask-type:alpha" maskUnits="userSpaceOnUse" x="0" y="0" width="31" height="31">
<rect x="0.5" y="0.456055" width="30" height="30" fill="#D9D9D9"/>
</mask>
<g mask="url(#mask0_73_387)">
<path d="M15.3436 25.4561C15.4269 25.4561 15.5102 25.4352 15.5936 25.3936C15.6769 25.3519 15.7394 25.3102 15.7811 25.2686L26.0311 15.0186C26.2811 14.7686 26.4636 14.4873 26.5786 14.1748C26.6927 13.8623 26.7498 13.5498 26.7498 13.2373C26.7498 12.904 26.6927 12.5861 26.5786 12.2836C26.4636 11.9819 26.2811 11.7165 26.0311 11.4873L20.7186 6.1748C20.4894 5.9248 20.224 5.7423 19.9223 5.6273C19.6198 5.51314 19.3019 5.45605 18.9686 5.45605C18.6561 5.45605 18.3436 5.51314 18.0311 5.6273C17.7186 5.7423 17.4373 5.9248 17.1873 6.1748L16.8436 6.51855L19.1561 8.8623C19.4686 9.15397 19.6977 9.4873 19.8436 9.8623C19.9894 10.2373 20.0623 10.6331 20.0623 11.0498C20.0623 11.9248 19.7656 12.659 19.1723 13.2523C18.5781 13.8465 17.8436 14.1436 16.9686 14.1436C16.5519 14.1436 16.1511 14.0706 15.7661 13.9248C15.3802 13.779 15.0415 13.5602 14.7498 13.2686L12.4061 10.9561L6.9373 16.4248C6.8748 16.4873 6.82772 16.5552 6.79606 16.6286C6.76522 16.7011 6.7498 16.779 6.7498 16.8623C6.7498 17.029 6.8123 17.1798 6.9373 17.3148C7.0623 17.4506 7.20814 17.5186 7.3748 17.5186C7.45814 17.5186 7.54147 17.4977 7.6248 17.4561C7.70814 17.4144 7.77064 17.3727 7.8123 17.3311L12.0623 13.0811L13.8123 14.8311L9.59355 19.0811C9.53105 19.1436 9.48397 19.2111 9.45231 19.2836C9.42147 19.3569 9.40605 19.4352 9.40605 19.5186C9.40605 19.6852 9.46855 19.8311 9.59355 19.9561C9.71855 20.0811 9.86439 20.1436 10.0311 20.1436C10.1144 20.1436 10.1977 20.1227 10.2811 20.0811C10.3644 20.0394 10.4269 19.9977 10.4686 19.9561L14.7186 15.7373L16.4686 17.4873L12.2498 21.7373C12.1873 21.779 12.1406 21.8415 12.1098 21.9248C12.0781 22.0081 12.0623 22.0915 12.0623 22.1748C12.0623 22.3415 12.1248 22.4873 12.2498 22.6123C12.3748 22.7373 12.5206 22.7998 12.6873 22.7998C12.7706 22.7998 12.849 22.784 12.9223 22.7523C12.9948 22.7215 13.0623 22.6748 13.1248 22.6123L17.3748 18.3936L19.1248 20.1436L14.8748 24.3936C14.8123 24.4561 14.7656 24.5236 14.7348 24.5961C14.7031 24.6694 14.6873 24.7477 14.6873 24.8311C14.6873 24.9977 14.7552 25.1436 14.8911 25.2686C15.0261 25.3936 15.1769 25.4561 15.3436 25.4561ZM15.3123 27.9561C14.5415 27.9561 13.8594 27.7006 13.2661 27.1898C12.6719 26.6798 12.3227 26.0394 12.2186 25.2686C11.5102 25.1644 10.9165 24.8727 10.4373 24.3936C9.95814 23.9144 9.66647 23.3206 9.5623 22.6123C8.85397 22.5081 8.26564 22.2115 7.7973 21.7223C7.32814 21.2323 7.04147 20.6436 6.9373 19.9561C6.14564 19.8519 5.4998 19.5081 4.9998 18.9248C4.4998 18.3415 4.2498 17.654 4.2498 16.8623C4.2498 16.4456 4.32814 16.0444 4.4848 15.6586C4.64064 15.2736 4.86439 14.9352 5.15605 14.6436L12.4061 7.4248L16.4998 11.5186C16.5415 11.5811 16.604 11.6277 16.6873 11.6586C16.7706 11.6902 16.854 11.7061 16.9373 11.7061C17.1248 11.7061 17.2811 11.649 17.4061 11.5348C17.5311 11.4198 17.5936 11.2686 17.5936 11.0811C17.5936 10.9977 17.5781 10.9144 17.5473 10.8311C17.5156 10.7477 17.4686 10.6852 17.4061 10.6436L12.9373 6.1748C12.7081 5.9248 12.4423 5.7423 12.1398 5.6273C11.8381 5.51314 11.5206 5.45605 11.1873 5.45605C10.8748 5.45605 10.5623 5.51314 10.2498 5.6273C9.93731 5.7423 9.65605 5.9248 9.40605 6.1748L4.9998 10.6123C4.8123 10.7998 4.65605 11.0186 4.53105 11.2686C4.40605 11.5186 4.32272 11.7686 4.28105 12.0186C4.23939 12.2686 4.23939 12.5236 4.28105 12.7836C4.32272 13.0444 4.40605 13.2894 4.53105 13.5186L2.71855 15.3311C2.36439 14.8519 2.10397 14.3256 1.9373 13.7523C1.77064 13.1798 1.70814 12.6019 1.7498 12.0186C1.79147 11.4352 1.9373 10.8673 2.1873 10.3148C2.4373 9.76314 2.78105 9.26855 3.21855 8.83105L7.6248 4.4248C8.1248 3.94564 8.6823 3.58105 9.29731 3.33105C9.91147 3.08105 10.5415 2.95605 11.1873 2.95605C11.8331 2.95605 12.4631 3.08105 13.0773 3.33105C13.6923 3.58105 14.2394 3.94564 14.7186 4.4248L15.0623 4.76855L15.4061 4.4248C15.9061 3.94564 16.4631 3.58105 17.0773 3.33105C17.6923 3.08105 18.3227 2.95605 18.9686 2.95605C19.6144 2.95605 20.2448 3.08105 20.8598 3.33105C21.474 3.58105 22.0206 3.94564 22.4998 4.4248L27.7811 9.70605C28.2602 10.1852 28.6248 10.7373 28.8748 11.3623C29.1248 11.9873 29.2498 12.6227 29.2498 13.2686C29.2498 13.9144 29.1248 14.5444 28.8748 15.1586C28.6248 15.7736 28.2602 16.3206 27.7811 16.7998L17.5311 27.0186C17.2394 27.3102 16.9006 27.5394 16.5148 27.7061C16.1298 27.8727 15.729 27.9561 15.3123 27.9561Z" fill="#000929"/>
</g>
</svg>
