<svg width="32" height="33" viewBox="0 0 32 33" fill="none" xmlns="http://www.w3.org/2000/svg">
<circle cx="16" cy="16.4561" r="16" fill="#0C0C1D"/>
<path d="M10 11.85C10 11.4459 10.1464 11.1126 10.4392 10.85C10.732 10.5874 11.1126 10.4561 11.5811 10.4561C12.0412 10.4561 12.4134 10.5853 12.6979 10.8439C12.9907 11.1106 13.1371 11.4581 13.1371 11.8864C13.1371 12.2742 12.9949 12.5975 12.7104 12.8561C12.4176 13.1227 12.0328 13.2561 11.556 13.2561H11.5434C11.0833 13.2561 10.7111 13.1227 10.4266 12.8561C10.1422 12.5894 10 12.254 10 11.85ZM10.1631 22.4561V14.3591H12.9488V22.4561H10.1631ZM14.4923 22.4561H17.278V17.9348C17.278 17.652 17.3115 17.4338 17.3784 17.2803C17.4955 17.0055 17.6733 16.7732 17.9117 16.5833C18.1501 16.3934 18.4492 16.2985 18.8089 16.2985C19.7458 16.2985 20.2143 16.9086 20.2143 18.1288V22.4561H23V17.8136C23 16.6177 22.7072 15.7106 22.1216 15.0924C21.536 14.4742 20.7622 14.1651 19.8002 14.1651C18.721 14.1651 17.8803 14.6136 17.278 15.5106V15.5348H17.2654L17.278 15.5106V14.3591H14.4923C14.509 14.6177 14.5174 15.4217 14.5174 16.7712C14.5174 18.1207 14.509 20.0156 14.4923 22.4561Z" fill="white"/>
</svg>
