<svg width="31" height="31" viewBox="0 0 31 31" fill="none" xmlns="http://www.w3.org/2000/svg">
<mask id="mask0_73_416" style="mask-type:alpha" maskUnits="userSpaceOnUse" x="0" y="0" width="31" height="31">
<rect x="0.5" y="0.456055" width="30" height="30" fill="#D9D9D9"/>
</mask>
<g mask="url(#mask0_73_416)">
<path d="M25.5 9.20605L24.3125 6.64355L21.75 5.45605L24.3125 4.26855L25.5 1.70605L26.6875 4.26855L29.25 5.45605L26.6875 6.64355L25.5 9.20605ZM11.125 9.20605L9.9375 6.64355L7.375 5.45605L9.9375 4.26855L11.125 1.70605L12.3125 4.26855L14.875 5.45605L12.3125 6.64355L11.125 9.20605ZM25.5 23.5811L24.3125 21.0186L21.75 19.8311L24.3125 18.6436L25.5 16.0811L26.6875 18.6436L29.25 19.8311L26.6875 21.0186L25.5 23.5811ZM6.875 27.5811L3.375 24.0811C3.125 23.8311 3 23.529 3 23.1748C3 22.8206 3.125 22.5186 3.375 22.2686L17.3125 8.33105C17.5625 8.08105 17.8646 7.95605 18.2188 7.95605C18.5729 7.95605 18.875 8.08105 19.125 8.33105L22.625 11.8311C22.875 12.0811 23 12.3831 23 12.7373C23 13.0915 22.875 13.3936 22.625 13.6436L8.6875 27.5811C8.4375 27.8311 8.13542 27.9561 7.78125 27.9561C7.42708 27.9561 7.125 27.8311 6.875 27.5811ZM7.8125 24.9561L16.75 15.9561L15 14.2061L6 23.1436L7.8125 24.9561Z" fill="#000929"/>
</g>
</svg>
