<svg width="32" height="33" viewBox="0 0 32 33" fill="none" xmlns="http://www.w3.org/2000/svg">
<circle cx="16" cy="16.4561" r="16" fill="#0C0C1D"/>
<path d="M24 11.8767C23.405 12.1176 22.771 12.2773 22.11 12.3548C22.79 11.9801 23.309 11.3911 23.553 10.6813C22.919 11.0302 22.219 11.2767 21.473 11.4142C20.871 10.8225 20.013 10.4561 19.077 10.4561C17.261 10.4561 15.799 11.8167 15.799 13.4847C15.799 13.7247 15.821 13.9554 15.875 14.1751C13.148 14.0524 10.735 12.8459 9.114 11.0081C8.831 11.4613 8.665 11.9801 8.665 12.5385C8.665 13.5871 9.25 14.5167 10.122 15.0548C9.595 15.0456 9.078 14.9044 8.64 14.6819C8.64 14.6911 8.64 14.7031 8.64 14.7151C8.64 16.1865 9.777 17.4087 11.268 17.6902C11.001 17.7576 10.71 17.7899 10.408 17.7899C10.198 17.7899 9.986 17.7788 9.787 17.7382C10.212 18.9373 11.418 19.8188 12.852 19.8474C11.736 20.6533 10.319 21.1388 8.785 21.1388C8.516 21.1388 8.258 21.1277 8 21.0973C9.453 21.9622 11.175 22.4561 13.032 22.4561C19.068 22.4561 22.368 17.8407 22.368 13.8401C22.368 13.7062 22.363 13.577 22.356 13.4487C23.007 13.0222 23.554 12.4896 24 11.8767Z" fill="white"/>
</svg>
