<svg width="31" height="31" viewBox="0 0 31 31" fill="none" xmlns="http://www.w3.org/2000/svg">
<mask id="mask0_73_397" style="mask-type:alpha" maskUnits="userSpaceOnUse" x="0" y="0" width="31" height="31">
<rect x="0.5" y="0.456055" width="30" height="30" fill="#D9D9D9"/>
</mask>
<g mask="url(#mask0_73_397)">
<path d="M25.2188 28.7373L10.6562 14.1748C10.6146 14.3831 10.5781 14.5915 10.5469 14.7998C10.5156 15.0081 10.5 15.2269 10.5 15.4561C10.5 16.2061 10.651 16.8988 10.9531 17.5342C11.2552 18.1696 11.6667 18.7269 12.1875 19.2061L10.4062 20.9873C9.67708 20.2998 9.09375 19.4821 8.65625 18.5342C8.21875 17.5863 8 16.5602 8 15.4561C8 14.8727 8.0625 14.3102 8.1875 13.7686C8.3125 13.2269 8.48958 12.7165 8.71875 12.2373L6.875 10.3936C6.4375 11.1436 6.09896 11.9404 5.85938 12.7842C5.61979 13.6279 5.5 14.5186 5.5 15.4561C5.5 16.8936 5.78125 18.2373 6.34375 19.4873C6.90625 20.7373 7.67708 21.8206 8.65625 22.7373L6.875 24.5186C5.6875 23.3727 4.74479 22.0238 4.04688 20.4717C3.34896 18.9196 3 17.2477 3 15.4561C3 14.1644 3.17708 12.9456 3.53125 11.7998C3.88542 10.654 4.39583 9.58105 5.0625 8.58105L2.21875 5.7373L4 3.95605L27 26.9561L25.2188 28.7373ZM25.9375 22.3311L24.125 20.5186C24.5625 19.7894 24.901 18.9977 25.1406 18.1436C25.3802 17.2894 25.5 16.3936 25.5 15.4561C25.5 12.6644 24.5313 10.2998 22.5938 8.36231C20.6563 6.4248 18.2917 5.45605 15.5 5.45605C14.5625 5.45605 13.6719 5.57585 12.8281 5.81543C11.9844 6.05501 11.1875 6.39355 10.4375 6.83105L8.625 5.01855C9.625 4.35189 10.7031 3.84147 11.8594 3.4873C13.0156 3.13314 14.2292 2.95605 15.5 2.95605C17.2292 2.95605 18.8542 3.28418 20.375 3.94043C21.8958 4.59668 23.2188 5.4873 24.3438 6.6123C25.4688 7.7373 26.3594 9.06022 27.0156 10.5811C27.6719 12.1019 28 13.7269 28 15.4561C28 16.7269 27.8229 17.9404 27.4688 19.0967C27.1146 20.2529 26.6042 21.3311 25.9375 22.3311ZM22.2813 18.6748L20.3438 16.7373C20.3854 16.529 20.4219 16.3206 20.4531 16.1123C20.4844 15.904 20.5 15.6852 20.5 15.4561C20.5 14.0811 20.0104 12.904 19.0312 11.9248C18.0521 10.9456 16.875 10.4561 15.5 10.4561C15.2708 10.4561 15.0521 10.4717 14.8438 10.5029C14.6354 10.5342 14.4271 10.5706 14.2188 10.6123L12.2812 8.67481C12.7604 8.44564 13.2708 8.26855 13.8125 8.14355C14.3542 8.01855 14.9167 7.95605 15.5 7.95605C17.5833 7.95605 19.3542 8.68522 20.8125 10.1436C22.2708 11.6019 23 13.3727 23 15.4561C23 16.0394 22.9375 16.6019 22.8125 17.1436C22.6875 17.6852 22.5104 18.1956 22.2813 18.6748Z" fill="#000929"/>
</g>
</svg>
