<svg width="179" height="26" viewBox="0 0 179 26" fill="none" xmlns="http://www.w3.org/2000/svg">
<path fill-rule="evenodd" clip-rule="evenodd" d="M13.722 5.80931L17.4382 15.2121L10.1329 15.2076L13.722 5.80931ZM11.1976 0.937641L0.80957 25.4118L6.27147 25.414L8.45987 19.5776L19.1113 19.5821L21.3632 25.4209L27.0998 25.4231L16.6595 0.937641H11.1976ZM33.9737 5.35075L41.5196 5.35529C43.8079 5.35529 44.8998 6.20431 44.8998 8.17251C44.8975 10.1407 43.8056 10.9897 41.5173 10.9897L33.9714 10.9852L33.9737 5.35075ZM41.5832 21.094L33.9692 21.0917L33.9714 15.3211L41.5854 15.3234C43.8737 15.3234 44.9656 16.1769 44.9634 18.2269C44.9656 20.2745 43.8737 21.094 41.5832 21.094ZM42.2982 25.4299C47.8646 25.4322 50.5274 23.3846 50.5297 18.7422C50.5297 15.9772 49.3016 14.2337 46.809 13.1736C49.3356 11.8796 50.4639 10.0431 50.4661 7.32575C50.4661 5.05109 49.4741 3.20776 47.7011 2.07724C46.3708 1.22368 44.2869 0.951262 41.4197 0.948992L28.8205 0.944452L28.8115 25.4231L42.2982 25.4299ZM64.6884 5.22589L73.1537 5.23043L73.1559 0.962613L64.5863 0.958072C56.6999 0.955802 53.045 4.98299 53.0404 13.6208C53.0404 18.0589 54.2686 21.2711 56.7952 23.2847C59.1834 25.2007 61.4716 25.439 64.4432 25.4413L73.1491 25.4436L73.1514 21.1757L64.6839 21.1735C60.6204 21.1735 58.8792 19.5662 58.8451 15.1622L73.1514 15.169V10.9012L58.8792 10.8966C59.088 7.06015 60.9654 5.22362 64.6884 5.22589ZM77.6576 0.964883L77.6485 25.4458L82.9424 25.4481L82.7109 6.93302L93.251 25.4504L99.226 25.4549L99.2351 0.973963L93.9797 0.969423L94.2113 18.5628L84.1819 0.967153L77.6576 0.964883ZM113.112 15.2485L120.009 15.2507L120.007 21.0214H114.202C110.039 21.0214 108.402 18.6287 108.404 13.4051C108.406 7.82518 110.079 5.21227 114.209 5.21681L125.305 5.21908L125.307 0.985314L114.211 0.983044C106.359 0.980774 102.67 5.00569 102.665 13.6435C102.665 18.0816 103.891 21.2915 106.415 23.3074C108.874 25.2892 111.233 25.4617 114.202 25.4617L125.298 25.464L125.303 10.9216L113.115 10.9171L113.112 15.2485ZM127.959 12.967C127.957 21.8795 131.741 25.977 140.174 25.9793C148.508 25.9838 152.399 21.8886 152.403 13.2144C152.406 4.54486 148.522 0.481348 140.188 0.476808C131.957 0.474537 127.963 4.53578 127.959 12.967ZM140.183 4.67653C144.724 4.6788 146.808 7.44607 146.805 13.2144C146.803 18.9851 144.719 21.7501 140.179 21.7478C135.573 21.7478 133.591 18.9805 133.591 13.0056C133.593 7.44153 135.745 4.67425 140.183 4.67653ZM165.477 5.87061L169.191 15.2734L161.883 15.2712L165.477 5.87061ZM162.948 0.998935L152.56 25.4753L158.022 25.4776L160.208 19.6411L170.86 19.6434L173.114 25.4822L178.85 25.4844L168.41 1.0012L162.948 0.998935Z" fill="#7C8385"/>
</svg>
