<svg width="179" height="25" viewBox="0 0 179 25" fill="none" xmlns="http://www.w3.org/2000/svg">
<path d="M111.964 22.9822C111.964 22.9822 115.878 24.0676 120.876 24.0676C126.204 24.0676 128.67 23.4756 128.67 23.4756V19.5291C128.67 19.5291 126.006 20.0555 122.29 20.0555C119.035 20.0555 117.028 19.6276 117.028 19.6276V14.0373H127.125V10.0907H117.028V4.76332C117.028 4.76332 119.002 4.40128 121.962 4.40128C125.284 4.40128 128.276 4.92758 128.276 4.92758V0.948151C128.276 0.948151 125.645 0.388868 121.369 0.388868C115.68 0.388868 111.964 1.40916 111.964 1.40916V22.9822ZM39.8104 14.0039C39.6784 14.3332 39.5148 14.9581 39.416 15.32C39.3176 14.9581 39.1529 14.3332 39.0217 14.0039L34.5485 2.52696C33.7922 0.619638 32.6088 0.388868 30.4382 0.388868C29.6815 0.388868 28.1355 0.487694 28.1355 0.487694L25.8337 23.7387H30.9315L32.0493 8.15071L36.8836 19.9567C37.2458 20.8775 37.9689 21.2394 39.416 21.2394C40.8625 21.2394 41.5866 20.8775 41.9481 19.9567L46.7823 8.15071L47.9007 23.7387H52.9977L50.6959 0.487694C50.6959 0.487694 49.15 0.388868 48.3941 0.388868C46.2236 0.388868 45.0399 0.619638 44.283 2.52696L39.8104 14.0039ZM14.2906 18.7728C13.2053 19.2005 10.5739 20.0555 8.63403 20.0555C6.52905 20.0555 4.95069 19.3321 4.95069 17.0297C4.95069 15.0239 6.03534 13.873 8.93036 13.7742L14.2906 13.5769V18.7728ZM11.2649 0.388868C6.72646 0.388868 3.17466 1.50733 1.79325 2.19817L2.87872 6.01289C2.87872 6.01289 6.36521 4.76332 9.78477 4.76332C12.7118 4.76332 14.2244 5.58513 14.2244 8.47908V10.1238H9.78477C2.25386 10.1238 0.0170898 13.5769 0.0170898 17.3919C0.0170898 22.456 3.96393 24.0676 7.54854 24.0676C11.7251 24.0676 14.1591 22.3249 14.4547 22.3249C14.6852 22.3249 15.5402 23.2452 19.3545 23.2452V7.13093C19.3545 2.297 16.3623 0.388868 11.2649 0.388868ZM72.303 18.7728C71.2173 19.2005 68.5865 20.0555 66.6466 20.0555C64.5413 20.0555 62.9626 19.3321 62.9626 17.0297C62.9626 15.0239 64.0483 13.873 66.9422 13.7742L72.303 13.5769V18.7728ZM69.2768 0.388868C64.7382 0.388868 61.1868 1.50733 59.8056 2.19817L60.8908 6.01289C60.8908 6.01289 64.3773 4.76332 67.7968 4.76332C70.7239 4.76332 72.2367 5.58513 72.2367 8.47908V10.1238H67.7968C60.2662 10.1238 58.0293 13.5769 58.0293 17.3919C58.0293 22.456 61.9761 24.0676 65.561 24.0676C69.7374 24.0676 72.1711 22.3249 72.467 22.3249C72.6973 22.3249 73.5523 23.2452 77.3671 23.2452V7.13093C77.3671 2.297 74.3744 0.388868 69.2768 0.388868ZM149.948 17.9506C148.732 18.5422 146.101 19.5291 143.7 19.5291C140.213 19.5291 139.622 17.9506 139.622 14.3332V0.586241H138.865C137.715 0.586241 135.149 0.78351 134.524 0.915453V14.9909C134.524 21.141 136.038 24.0676 142.285 24.0676C147.054 24.0676 149.849 22.2263 150.046 22.2263C150.113 22.2263 151.757 23.2452 155.047 23.2452V0.915453C154.685 0.849604 152.217 0.586241 150.967 0.586241H149.948V17.9506ZM161.068 23.2452C161.068 23.2452 164.225 24.0676 168.632 24.0676C172.809 24.0676 178.07 22.6536 178.07 16.9975C178.07 13.3134 175.341 11.7351 170.901 10.1238C168.5 9.23577 166.461 8.44638 166.461 6.8019C166.461 6.01289 167.054 4.46737 170.112 4.46737C172.973 4.46737 175.9 5.78254 175.9 5.78254L177.183 2.0008C176.327 1.57318 173.532 0.388868 169.652 0.388868C165.442 0.388868 161.331 2.62551 161.331 7.13093C161.331 11.7685 165.541 13.1823 168.829 14.2678C171.066 15.0239 172.94 15.8136 172.94 17.2931C172.94 18.7394 172.151 19.9898 168.369 19.9898C165.277 19.9898 161.989 19.2994 161.989 19.2994L161.068 23.2452ZM89.8638 4.79588C90.686 4.63163 92.2978 4.40128 93.909 4.40128C97.5923 4.40128 100.487 6.47324 100.487 12.0645C100.487 17.4908 99.0719 20.0555 93.4491 20.0555C91.64 20.0555 89.8638 19.7924 89.8638 19.7924V4.79588ZM94.1393 0.388868C91.2454 0.388868 87.233 0.882336 84.7665 1.77013V23.3768C86.8059 23.805 90.6211 24.0676 93.2847 24.0676C102.361 24.0676 105.88 20.5157 105.88 12.0645C105.88 4.76332 101.407 0.388868 94.1393 0.388868Z" fill="#7C8385"/>
</svg>
