<svg width="168" height="37" viewBox="0 0 168 37" fill="none" xmlns="http://www.w3.org/2000/svg">
<path d="M10.006 0.591928C11.5975 0.0096238 13.3173 -0.0376558 14.9919 0.017272C15.731 0.0356971 16.4722 0.0704615 17.2019 0.193875C17.5721 0.262013 17.95 0.345796 18.2775 0.539434C18.5719 0.713951 18.7753 1.05186 18.7468 1.39916C18.6957 2.04612 18.6588 2.69378 18.6043 3.34006C18.5605 3.70682 18.5424 4.09305 18.3644 4.42471C18.265 4.61382 18.0515 4.72229 17.8412 4.7209C16.5556 4.7348 15.2631 4.51961 13.9813 4.70352C13.0364 4.83805 12.0971 5.26601 11.5078 6.03847C10.759 6.99866 10.5434 8.25296 10.4913 9.44052C10.4586 10.4396 10.4829 11.4402 10.476 12.4403C12.2139 12.4417 13.951 12.4396 15.6886 12.441C16.0682 12.4473 16.4854 12.5186 16.7607 12.8036C17.018 13.0692 17.0708 13.4603 17.0785 13.8146C17.0798 14.4838 17.0798 15.1523 17.0785 15.8215C17.0757 16.1744 17.0048 16.5578 16.7392 16.8123C16.4426 17.0995 16.0084 17.1627 15.6124 17.1683C13.9003 17.1697 12.1881 17.1669 10.4767 17.169C10.4746 23.0084 10.4774 28.8474 10.4746 34.6861C10.4725 35.08 10.3665 35.5197 10.0303 35.7617C9.7223 35.9856 9.32355 36.0044 8.95609 35.9953C7.98721 35.9932 7.01798 35.9953 6.0484 35.9946C5.68511 35.996 5.28567 35.9088 5.03884 35.6216C4.80001 35.3477 4.74543 34.968 4.74265 34.6169C4.74265 28.8015 4.74126 22.9854 4.74334 17.1697C3.9528 17.1662 3.16156 17.1704 2.37032 17.1683C2.00703 17.1634 1.60898 17.1196 1.3253 16.8672C1.03328 16.61 0.9495 16.2008 0.941852 15.8285C0.93768 15.1565 0.941852 14.4838 0.939766 13.8111C0.933509 13.4499 1.02007 13.0609 1.28637 12.8002C1.5478 12.5359 1.93299 12.4438 2.29419 12.441C3.11011 12.4396 3.92638 12.4417 4.74334 12.4403C4.71762 10.2509 4.74056 8.02352 5.35276 5.90324C5.70388 4.67779 6.25768 3.48989 7.10802 2.52935C7.88187 1.6432 8.89908 0.983723 10.006 0.591928ZM161.395 0.0350018C161.681 -0.00219611 162.037 -0.055038 162.265 0.166064C162.451 0.395161 162.424 0.71256 162.439 0.989981C162.441 9.88828 162.438 18.7866 162.44 27.6852C162.458 28.4765 162.479 29.2757 162.667 30.0492C162.794 30.5686 163.032 31.0859 163.46 31.4269C163.946 31.8132 164.588 31.9227 165.194 31.931C165.775 31.9567 166.356 31.8368 166.936 31.9039C167.253 31.9366 167.423 32.2508 167.468 32.5359C167.579 33.2375 167.672 33.9428 167.771 34.6475C167.815 34.935 167.854 35.2541 167.69 35.5142C167.439 35.9234 166.959 36.1041 166.517 36.2227C165.564 36.458 164.572 36.4615 163.597 36.4497C162.295 36.4059 160.96 36.1959 159.804 35.5629C158.939 35.0994 158.227 34.3715 157.76 33.5107C157.196 32.4872 156.942 31.3258 156.798 30.1754C156.611 28.6124 156.652 27.0355 156.649 25.4648C156.648 17.8587 156.649 10.253 156.648 2.64651C156.649 2.27835 156.656 1.87334 156.894 1.56846C157.156 1.24028 157.571 1.09323 157.959 0.972598C159.1 0.64477 160.233 0.284263 161.395 0.0350018ZM122.443 2.42471C123.781 2.205 125.187 2.86239 125.924 3.98911C126.523 4.86795 126.642 6.04681 126.231 7.02752C125.719 8.29746 124.405 9.20447 123.03 9.19578C122.012 9.2149 120.982 8.7786 120.335 7.9825C119.422 6.88742 119.332 5.22985 120.005 3.99258C120.49 3.10227 121.45 2.54186 122.443 2.42471ZM21.8022 13.6213C23.7317 12.3513 26.0981 11.9404 28.3741 11.986C30.4329 12.0138 32.5639 12.4111 34.3011 13.574C35.335 14.2606 36.1784 15.217 36.7694 16.3054C37.4382 17.5274 37.814 18.8884 38.0185 20.2602C38.2044 21.5688 38.2695 22.8968 38.1968 24.2164C38.144 24.8377 38.0612 25.5062 37.66 26.0089C37.3305 26.4167 36.784 26.554 36.2806 26.554C31.9559 26.5554 27.6305 26.5533 23.3055 26.5554C23.3256 27.7614 23.4515 29.0532 24.194 30.0527C24.8831 30.992 26.024 31.4596 27.1362 31.6703C28.6202 31.9449 30.1436 31.9178 31.6409 31.784C32.6916 31.6768 33.7282 31.4597 34.7336 31.1363C35.1066 31.0296 35.4758 30.8742 35.8683 30.863C36.1429 30.9166 36.314 31.1683 36.4662 31.3817C36.8424 31.9741 37.0934 32.6385 37.2936 33.3084C37.3923 33.6491 37.4998 34.0475 37.2821 34.3666C36.9526 34.8679 36.3863 35.1377 35.8544 35.3713C34.5333 35.9046 33.1184 36.1591 31.7105 36.3256C30.0084 36.5196 28.2844 36.4848 26.5834 36.2992C25.1337 36.1243 23.6823 35.7999 22.363 35.1565C21.4028 34.6941 20.525 34.0503 19.8266 33.2416C19.052 32.3541 18.5062 31.2844 18.1429 30.1678C17.6573 28.6705 17.4661 27.0949 17.3979 25.5284C17.2989 23.0362 17.4522 20.4803 18.3321 18.1236C18.9971 16.3194 20.1753 14.6726 21.8022 13.6213ZM26.9947 16.6903C25.9392 16.8387 24.9032 17.3647 24.3015 18.2672C23.4782 19.4829 23.3246 21.0046 23.3141 22.4351C26.3887 22.4358 29.4626 22.4379 32.5368 22.4344C32.55 21.4947 32.5285 20.5404 32.267 19.6307C32.007 18.668 31.4459 17.752 30.5799 17.2264C29.5168 16.5704 28.2006 16.5192 26.9947 16.6903ZM48.5472 12.3051C50.2124 11.9582 51.927 11.9189 53.6183 12.0492C54.1516 12.1118 54.7148 12.1671 55.182 12.4556C55.4267 12.6034 55.5689 12.8978 55.5143 13.1815C55.4031 14.0451 55.2195 14.8958 55.0808 15.7551C55.0158 16.1045 54.9108 16.522 54.5601 16.6889C54.1891 16.8384 53.7827 16.7167 53.4 16.6896C51.4806 16.449 49.4431 16.7146 47.7636 17.7186C47.7594 23.3512 47.7636 28.9833 47.7615 34.6162C47.7567 34.9788 47.6969 35.3741 47.4396 35.6494C47.1935 35.9081 46.8219 35.9939 46.4766 35.9939C45.4122 35.9946 44.347 35.9953 43.2825 35.9939C42.9227 35.9911 42.526 35.9004 42.2896 35.608C42.0532 35.3101 42.0282 34.9121 42.0219 34.5481C42.0205 28.1253 42.0226 21.7019 42.0205 15.2792C43.9117 13.7774 46.1902 12.7953 48.5472 12.3051ZM64.0097 12.3986C65.2856 12.1024 66.593 11.9635 67.9026 11.9849C68.7106 11.9922 69.5268 12.0058 70.3216 12.1699C70.6702 12.2516 71.0495 12.3604 71.2856 12.6489C71.4316 12.8307 71.4246 13.0755 71.3944 13.2938C71.2797 14.0788 71.1218 14.8575 70.9929 15.6404C70.9372 15.947 70.8799 16.2759 70.673 16.5213C70.5225 16.7014 70.2805 16.7723 70.0525 16.7598C69.5414 16.7404 69.0367 16.6416 68.5256 16.6232C66.8472 16.5276 65.1138 16.8499 63.6583 17.7148C63.6541 23.3258 63.659 28.9374 63.6562 34.5488C63.652 34.9207 63.6089 35.3254 63.3586 35.6202C63.1145 35.9053 62.7179 35.9939 62.3581 35.9946C61.2901 35.9939 60.2221 35.9967 59.1549 35.9932C58.7673 35.9911 58.3324 35.8691 58.1189 35.519C57.8797 35.1238 57.918 34.643 57.9138 34.2008C57.9173 27.8917 57.9089 21.5834 57.918 15.275C59.6909 13.8639 61.8116 12.9194 64.0097 12.3986ZM81.3843 12.0625C82.8736 11.9363 84.3792 11.9512 85.862 12.1525C87.2605 12.3506 88.6514 12.747 89.8679 13.4805C90.6777 13.9639 91.3914 14.5926 91.9732 15.3348C92.7429 16.3166 93.2699 17.4711 93.6151 18.6653C94.0114 20.0176 94.1832 21.4245 94.2607 22.8283C94.333 24.6347 94.2878 26.4549 93.9711 28.239C93.6109 30.2898 92.8315 32.3534 91.3193 33.8361C90.4151 34.733 89.2789 35.3769 88.0747 35.776C86.7585 36.2161 85.3693 36.3948 83.9882 36.4434C82.4783 36.4855 80.9549 36.417 79.4785 36.0808C78.3156 35.8187 77.1806 35.381 76.1943 34.7035C75.2244 34.0489 74.4234 33.1585 73.8394 32.1469C73.1191 30.9075 72.7057 29.5138 72.4644 28.108C72.1293 26.0868 72.1029 24.0231 72.2562 21.9828C72.4526 19.7381 72.9664 17.4297 74.307 15.5723C75.3506 14.1066 76.9344 13.0831 78.6483 12.5784C79.5376 12.3037 80.4592 12.1476 81.3843 12.0625ZM82.3584 16.6427C81.5678 16.7098 80.7606 16.8867 80.0935 17.3345C79.4417 17.7624 78.9984 18.4421 78.7318 19.1631C78.3389 20.2227 78.2228 21.3595 78.1526 22.48C78.082 24.0986 78.0792 25.727 78.2746 27.3369C78.4126 28.3475 78.6341 29.3835 79.2011 30.2495C79.6158 30.8874 80.2649 31.355 80.9876 31.5844C81.8856 31.8736 82.8423 31.9032 83.7778 31.8674C84.7509 31.8208 85.7723 31.6303 86.5565 31.0136C87.224 30.4921 87.628 29.7085 87.863 28.9089C88.2284 27.6581 88.3042 26.3454 88.341 25.0494C88.3549 23.2775 88.3657 21.4753 87.9151 19.7485C87.6488 18.7139 87.0787 17.6835 86.1011 17.1746C84.9567 16.5773 83.6155 16.5662 82.3584 16.6427ZM136.834 12.3854C138.396 12.002 140.016 11.9397 141.616 12.0054C144.266 12.1254 146.925 12.6555 149.338 13.7829C149.796 13.9985 150.245 14.2377 150.667 14.5172C150.668 19.3216 150.667 24.1257 150.667 28.9298C150.681 29.6178 150.604 30.3346 150.856 30.9913C151.001 31.3901 151.334 31.7144 151.746 31.8298C152.421 32.0468 153.131 31.8389 153.819 31.8959C154.148 31.9192 154.322 32.2435 154.368 32.5356C154.504 33.2934 154.619 34.0558 154.714 34.8206C154.755 35.0751 154.714 35.3497 154.556 35.5594C154.297 35.9067 153.88 36.0843 153.477 36.2025C152.666 36.4316 151.815 36.4598 150.977 36.4525C149.881 36.433 148.758 36.1146 147.912 35.3963C147.257 34.8484 146.78 34.0947 146.552 33.2729C145.068 35.0372 142.831 36.0489 140.574 36.352C139.126 36.5293 137.641 36.489 136.215 36.1667C135.031 35.8969 133.89 35.3894 132.945 34.6204C132.089 33.9355 131.409 33.0497 130.904 32.0808C130.254 30.83 129.88 29.4534 129.663 28.0666C129.4 26.3343 129.359 24.5735 129.458 22.8262C129.605 20.5787 130.053 18.2839 131.231 16.3333C131.803 15.3877 132.559 14.5498 133.455 13.9015C134.459 13.1669 135.628 12.6767 136.834 12.3858L136.834 12.3854ZM137.527 17.2778C136.576 17.8201 136.017 18.8394 135.758 19.8726C135.336 21.5611 135.35 23.3178 135.355 25.0466C135.392 26.5616 135.478 28.1247 136.082 29.5364C136.478 30.4838 137.25 31.2903 138.237 31.6164C139.39 31.9978 140.658 31.9414 141.824 31.6418C143.051 31.3167 144.171 30.5373 144.824 29.4388C144.922 29.2875 144.869 29.0977 144.883 28.9291C144.882 25.1095 144.881 21.2907 144.883 17.4711C143.813 16.9677 142.635 16.7278 141.461 16.6368C140.133 16.5627 138.71 16.5975 137.527 17.2778ZM95.3391 12.8182C95.5511 12.5352 95.9245 12.4393 96.2628 12.4403C97.4896 12.4417 98.7154 12.4403 99.9416 12.441C100.406 12.4424 100.913 12.5714 101.21 12.9521C101.552 13.3932 101.67 13.9505 101.853 14.4657C103.412 19.2013 104.978 23.9348 106.534 28.6718C108.226 23.7186 109.902 18.7605 111.592 13.8066C111.743 13.3991 111.894 12.9479 112.263 12.6844C112.632 12.4271 113.103 12.4334 113.534 12.4403C114.574 12.4452 115.612 12.4334 116.65 12.4459C117.238 12.4612 117.731 13.1029 117.486 13.6689C117.026 14.9256 116.51 16.1626 116.029 17.413C113.757 23.1881 111.485 28.9632 109.215 34.7389C109.074 35.0835 108.948 35.4537 108.676 35.72C108.438 35.9477 108.092 35.9981 107.777 35.9946C106.85 35.9939 105.923 35.9953 104.997 35.9939C104.614 35.9967 104.206 35.9035 103.93 35.623C103.533 35.2222 103.383 34.6638 103.176 34.1563L95.6798 14.9486C95.5268 14.5123 95.297 14.1017 95.2025 13.6463C95.1451 13.3675 95.1562 13.0512 95.3391 12.8182ZM121.243 12.4508C122.3 12.4264 123.359 12.4494 124.417 12.4396C124.804 12.4285 125.233 12.4935 125.516 12.7842C125.795 13.0734 125.861 13.4958 125.866 13.8827C125.866 20.7942 125.866 27.705 125.865 34.6169C125.862 35.0143 125.784 35.4606 125.459 35.7262C125.153 35.9849 124.729 36.003 124.348 35.9953C123.353 35.9925 122.359 35.9974 121.365 35.9932C120.978 35.9891 120.552 35.8531 120.339 35.5079C120.104 35.1394 120.126 34.6847 120.124 34.2668C120.126 27.4958 120.124 20.725 120.126 13.9547C120.126 13.5761 120.167 13.1669 120.412 12.8593C120.609 12.6048 120.93 12.4817 121.243 12.4508Z" fill="#7C8385"/>
</svg>
