<svg width="167" height="26" viewBox="0 0 167 26" fill="none" xmlns="http://www.w3.org/2000/svg">
<path d="M14.6012 1.00053H23.6815V14.0645C23.6815 16.8062 23.3847 18.8935 22.7936 20.324C22.1988 21.7569 21.0079 22.9708 19.2162 23.9634C17.4232 24.9596 15.1291 25.4559 12.3302 25.4559C9.37443 25.4559 7.08276 25.1263 5.45646 24.4719C3.83137 23.8126 2.57606 22.8516 1.69054 21.5842C0.977735 20.5661 0.499696 19.3545 0.257636 17.9496C0.191951 17.5798 0.112886 16.9133 0.0703125 16.3622L8.79422 15.9183C8.8076 16.9862 8.92072 17.7781 9.13115 18.2951C9.34402 18.8108 9.70164 19.2293 10.2077 19.5467C10.5507 19.7572 11.0421 19.8593 11.6783 19.8593C12.6854 19.8593 13.4238 19.5552 13.8945 18.9373C14.3665 18.3182 14.6012 17.2782 14.6012 15.8136V1.00053ZM87.1634 8.01541C88.2727 6.95837 89.7421 6.42438 91.5728 6.42438C93.4813 6.42438 94.9957 6.94986 96.1099 7.98987C97.2253 9.03474 97.7824 10.6866 97.7824 12.9466C97.7824 15.6348 97.2484 17.4971 96.1816 18.5335C95.1112 19.5735 93.6017 20.0905 91.653 20.0905C89.7555 20.0905 88.2569 19.5613 87.1524 18.5019C86.0516 17.4424 85.503 15.6993 85.503 13.2738C85.503 10.8265 86.0528 9.07488 87.1634 8.01541ZM78.4772 20.2595C79.8237 22.1279 81.5802 23.4963 83.7441 24.3612C85.9093 25.2248 88.6461 25.6518 91.9535 25.6518C95.2061 25.6518 97.9211 25.1555 100.098 24.1532C102.277 23.1557 103.946 21.7569 105.099 19.9591C106.252 18.1576 106.827 15.8538 106.827 13.0488C106.827 9.17706 105.506 6.16772 102.869 4.02446C100.231 1.87632 96.4699 0.804688 91.5922 0.804688C86.835 0.804688 83.1226 1.89335 80.455 4.08284C77.7899 6.26747 76.4568 9.32059 76.4568 13.2446C76.4568 16.0521 77.1306 18.3912 78.4772 20.2595ZM43.764 1.1988H33.842L22.8483 25.2577H32.094L38.6844 7.4352L41.9115 16.0849H37.1433L35.1861 21.2813H43.7944L45.2602 25.2577H54.7431L43.764 1.1988ZM118.198 20.0807H122.835C124.398 20.0807 125.503 19.8533 126.144 19.3983C126.786 18.9422 127.107 18.3328 127.107 17.5677C127.107 16.8549 126.791 16.2832 126.155 15.8514C125.52 15.4195 124.404 15.203 122.813 15.203H118.198V20.0807ZM118.198 10.6258H122.153C123.57 10.6258 124.556 10.4275 125.113 10.0297C125.667 9.62955 125.944 9.05542 125.944 8.30126C125.944 7.60427 125.667 7.05812 125.113 6.66401C124.556 6.2699 123.589 6.07406 122.21 6.07406H118.198V10.6258ZM109.062 1.21947H126.038C128.867 1.21947 131.038 1.79117 132.554 2.93944C134.068 4.08284 134.827 5.50236 134.827 7.19557C134.827 8.61144 134.287 9.82904 133.205 10.8447C132.487 11.5186 131.432 12.0562 130.045 12.4467C132.154 12.8651 133.706 13.5767 134.697 14.5875C135.692 15.5996 136.188 16.867 136.188 18.3997C136.188 19.6428 135.833 20.7643 135.129 21.7593C134.42 22.7555 133.453 23.5438 132.224 24.1215C131.463 24.484 130.316 24.7431 128.782 24.9098C126.74 25.1263 125.383 25.237 124.717 25.237H109.062V1.21947ZM136.76 17.2928L145.37 16.85C145.555 18.0031 145.935 18.8753 146.51 19.4798C147.441 20.4517 148.773 20.9395 150.507 20.9395C151.798 20.9395 152.795 20.6913 153.495 20.1926C154.196 19.6927 154.546 19.1149 154.546 18.4581C154.546 17.8365 154.212 17.2782 153.544 16.7855C152.874 16.2917 151.329 15.8282 148.906 15.3903C144.94 14.6569 142.11 13.685 140.422 12.471C138.716 11.2595 137.865 9.7147 137.865 7.83174C137.865 6.59711 138.301 5.43181 139.17 4.33463C140.044 3.23381 141.356 2.37261 143.105 1.74495C144.855 1.11487 147.255 0.804688 150.302 0.804688C154.044 0.804688 156.894 1.37152 158.857 2.51249C160.819 3.65711 161.988 5.46952 162.361 7.96311L153.838 8.37181C153.61 7.28923 153.134 6.49736 152.408 6.00108C151.679 5.50844 150.678 5.2603 149.4 5.2603C148.345 5.2603 147.552 5.44397 147.018 5.81132C146.484 6.17989 146.22 6.62265 146.22 7.14813C146.22 7.53129 146.441 7.87553 146.883 8.18205C147.315 8.50075 148.329 8.79511 149.926 9.07001C153.876 9.77065 156.711 10.4798 158.422 11.195C160.132 11.9127 161.376 12.8007 162.156 13.8601C162.933 14.9233 163.325 16.108 163.325 17.4193C163.325 18.9604 162.805 20.3848 161.765 21.6839C160.727 22.9854 159.275 23.9731 157.411 24.647C155.547 25.316 153.196 25.6518 150.362 25.6518C145.382 25.6518 141.932 24.866 140.015 23.292C138.098 21.7192 137.013 19.7219 136.76 17.2928Z" fill="#7C8385"/>
<path d="M74.2952 18.1284C73.0837 19.0857 71.0098 20.0759 68.1829 20.0905C66.2878 20.1014 64.788 19.5613 63.6847 18.5019C62.5827 17.4424 62.0329 15.6993 62.0329 13.2738C62.0329 10.8265 62.5875 9.07488 63.6957 8.01541C64.6627 7.08974 66.4155 6.37816 68.026 6.36599C70.4539 6.34288 71.8527 6.6409 74.2368 8.35478C75.0397 6.79538 76.3205 4.51223 77.2997 3.15474C77.0443 2.9735 76.7815 2.80199 76.5054 2.64143C74.3962 1.41531 71.4951 0.804688 67.8046 0.804688C63.0899 0.804688 59.4444 1.86781 56.8669 4.00499C54.2894 6.14096 53 9.1953 53 13.1717C53 16.1518 53.7335 18.5979 55.1992 20.5101C56.6662 22.4223 58.408 23.7566 60.426 24.5157C62.4452 25.2747 65.0495 25.6518 68.2364 25.6518C71.95 25.6518 74.7465 25.0205 77.3471 23.3601C77.3471 23.3601 75.6272 20.8981 74.305 18.1345L74.2952 18.1284ZM164.674 2.64751H165.029C165.331 2.64751 165.603 2.63291 165.603 2.28503C165.603 1.99553 165.352 1.9493 165.125 1.9493H164.674V2.64751ZM164.333 1.6744H165.179C165.698 1.6744 165.945 1.87875 165.945 2.29962C165.945 2.69616 165.694 2.86038 165.368 2.89565L165.994 3.86146H165.629L165.033 2.9212H164.674V3.86146H164.333V1.6744ZM165.063 4.36626C165.929 4.36626 166.599 3.67779 166.599 2.7582C166.599 1.86416 165.929 1.17568 165.063 1.17568C164.187 1.17568 163.518 1.86416 163.518 2.7582C163.518 3.67779 164.187 4.36626 165.063 4.36626ZM165.063 0.898349C166.085 0.898349 166.94 1.70359 166.94 2.7582C166.94 3.8347 166.085 4.64116 165.063 4.64116C164.038 4.64116 163.179 3.8347 163.179 2.7582C163.179 1.70359 164.038 0.898349 165.063 0.898349Z" fill="#7C8385"/>
</svg>
