<svg xmlns="http://www.w3.org/2000/svg" style="width:100%;height:100%;overflow:visible">
  <defs>
    <clipPath id="id-32"/>
    <clipPath id="id-59">
      <path d="M0 0h1120v627H0z"/>
    </clipPath>
    <clipPath id="id-84"/>
    <filter id="filter-id-64" width="200%" height="200%" x="-50%" y="-50%" filterUnits="objectBoundingBox">
      <feGaussianBlur in="SourceGraphic" result="blurOut" stdDeviation="1.5"/>
      <feOffset dx="1" dy="1" result="offsetBlur"/>
      <feFlood flood-color="#000" flood-opacity=".5"/>
      <feComposite in2="offsetBlur" operator="in"/>
      <feMerge>
        <feMergeNode/>
        <feMergeNode in="SourceGraphic"/>
      </feMerge>
    </filter>
    <filter id="filter-id-89" width="200%" height="200%" x="-50%" y="-50%" filterUnits="objectBoundingBox">
      <feGaussianBlur in="SourceGraphic" result="blurOut" stdDeviation="1.5"/>
      <feOffset dx="1" dy="1" result="offsetBlur"/>
      <feFlood flood-color="#000" flood-opacity=".5"/>
      <feComposite in2="offsetBlur" operator="in"/>
      <feMerge>
        <feMergeNode/>
        <feMergeNode in="SourceGraphic"/>
      </feMerge>
    </filter>
  </defs>
  <g class="imapsSprite-group imapsContainer-group">
    <g fill="#fff" fill-opacity="0" class="imapsSprite-group imapsRectangle-group">
      <path fill="none" d="M0 0h1120v627H0z" class="imapsRectangle"/>
    </g>
    <g class="imapsContainer">
      <g aria-label="Interactive Map" class="imapsSprite-group imapsContainer-group imapsComponent-group imapsChart-group imapsSerialChart-group imapsMapChart-group" clip-path="url(&quot;#id-59&quot;)" font-family="inherit">
        <g fill="rgba(255,0,0,0)" aria-label="Use plus and minus keys on your keyboard to zoom in and out" class="imapsSprite-group imapsRectangle-group">
          <path d="M0 0h1120v627H0z" class="imapsRectangle"/>
        </g>
        <g class="imapsContainer imapsComponent imapsChart imapsSerialChart imapsMapChart">
          <g class="imapsSprite-group imapsContainer-group">
            <g fill="#fff" fill-opacity="0" class="imapsSprite-group imapsRectangle-group" tabindex="0">
              <path fill="none" d="M0 0h1120v627H0z" class="imapsRectangle"/>
            </g>
            <g class="imapsContainer">
              <g class="imapsSprite-group imapsContainer-group" style="touch-action:none;user-select:none;-webkit-user-drag:none">
                <g stroke-width="1.001" class="imapsContainer">
                  <g aria-label="Series" class="imapsSprite-group imapsContainer-group imapsComponent-group imapsSeries-group imapsMapSeries-group imapsMapPolygonSeries-group">
                    <g class="imapsContainer imapsComponent imapsSeries imapsMapSeries imapsMapPolygonSeries">
                      <g fill="#d9d9d9" stroke="#fff" class="imapsSprite-group imapsContainer-group imapsMapObject-group imapsMapPolygon-group">
                        <g class="imapsContainer imapsMapObject imapsMapPolygon">
                          <g fill="#fff" fill-opacity="0" stroke-opacity="0" class="imapsSprite-group imapsPolygon-group">
                            <path fill="none" stroke="none" d="M126.922.619 164.265 0l37.344.619L238.952 0l37.344.619L313.639 0l37.343.619L388.326 0l37.343.619L463.013 0l37.343.619L537.699 0l37.344.619L612.386 0l37.343.619L687.073 0l37.343.619L761.76 0l37.343.619L836.446 0l37.344.619L911.133 0l37.343.619h44.602V627H126.922V344.308Z" class="imapsPolygon"/>
                          </g>
                        </g>
                      </g>
                    </g>
                  </g>
                  <g fill="rgba(30,115,190,0.74)" aria-label="USA" class="imapsSprite-group imapsContainer-group imapsComponent-group imapsSeries-group imapsMapSeries-group imapsMapPolygonSeries-group">
                    <g class="imapsContainer imapsComponent imapsSeries imapsMapSeries imapsMapPolygonSeries" transform="matrix(.99901 0 0 .99901 .552 .619)">
                      <g fill="#a8a8a8" stroke="#eee" class="imapsSprite-group imapsContainer-group imapsMapObject-group imapsMapPolygon-group">
                        <g class="imapsContainer imapsMapObject imapsMapPolygon">
                          <g class="imapsSprite-group imapsPolygon-group">
                            <path d="m354.426 574.747.773 1.908 1.067 4.253-.047 3.99-.636.588-1.214-2.658-.196-1.361-1.65-1.561.69-1.991-1.592-2.115-1.504-.718 2.325-2.123Zm-219.488 50.23.82.96L134 627l-.545-1.37Zm224.657-45.293 1.324 1.877-.616.658-.499 4.343-1.263.482-.032-3.207-.94-4.091 1.214-.91ZM180.44 612.09l-1.616.947-1.238 1.721-1.531-.016.827-1.86 1.067-.01.785-2.161 1.592-.515.956.65Zm185.098-13.997-1.372-.694-.678-1.896.812-.36Zm.61-15.331-.97.012.466-2.604 1.448 2.108Zm-176.064-39.093 2.14.742.091 2.607.636 1.657-1.872.243-1.27 1.223-5.016-2.476-1.569-2.108 3.164-.108 1.902-1.773Zm-61.927 83.162-1.663-1.988 1.27-.308.966 1.203Zm237.816-41.406-1.345-.894.7-1.08 1.424.627Zm-43.358-159.3V544.562l2.515.872.383-.867 2.528 1.241 1.567-1.547 3.148-.165-.56 2.775 2.53 1.927.386 1.298 5.48 5.76.815 3.33 3.298-2.542 1.237-.024.59-1.32.002-1.86.761-1.525 2.044-.605 2.418-1.373 2.24 2.252-.107 1.432.673 1.593 2.654 2.097 1.171 2.42 2.098 1.479 2.213 2.986.662 1.897 5.503 10.153-.56 1.162 1.617.514-.386 1.649 1.257.619.22 1.953 1.314-.083 2.595 1.86 1.8.612 1.396 1.051.337 1.03 2.057 1.024-.65 3.393.58 3.331-.938 2.52-1.472 1.769-1.878.243-1.045-3.229 1.01-1.834-.33-3.563-1.102-2.116-.842-.492-2.62 1.282-.45 2.158-1.317.726-.549-1.42 2.001-4.15-.939-2.097-.843-.39-1.61-3.324-1.66-1.246-.065-1.413-3.434-1.283.152-1.612-.62-3.53-2.515-3.757-.169-1.393-3.759-2.449-.994-2.93-1.949-1.712 1.5 6.127-1.332.514-1.42-1.575-1.593.18.064-1.852-.969-2.162-2.757.03 2.454 2.85-.14 1.576-1.756.226-.634.834-2.58-1.513-2.489-1.884-2.548-3.678-1.716-1.5-5.212-2.986-2.417-1.777 1.51-1.59-.36-1.922-3.352 1.623-3.303-.234-4.362-2.333-4.632-1.23-2.093-.115-4.53.89-2.785-1.89-1.635-.359-1.362-1.181-.436-2.167-1.395 1.684-3.43-1.053 1.182-1.861-2.5-.105-.539-.954-2.042-1.613.294-2.519-2.096 1.642-1.797.57-1.432-.588-1.575.976-1.675-1.528-.714 1.924.252 3.48.604 1.49-.082 2.408-1.23 1.897-2.173.4-1.47-.87-1.638.345-1.847 2.644-2.192 1.925-2.022.023-.505 1.435-1.494 1.901-2.14-.017-1.96.59-1.191-1.001.6-1.26 2.377-1.145 1.108-1.268-3.03-.654-.47-.862.626-2.178 1.49-2.276.733-2.823-.048-2.984 4.643-3.052 2.34.963 2.137-.639-1.98-1.4.12-1.897-2.777.378-.741-.454-2.835 2.365-3.08 1.913-.086 1.695-2.745 2.449.055 1.275-2.075 1.827-.031 2.566-.525.806-1.827.485.305 1.529-1.932-.108-2.108 2.789-1.446 1.15-.219 2.52 2.497.836 1.697 1.856-1.492 2.073-2.123 1.644-1.196 3.364-1.782 1.04-2.225.396-1.614 2.082-1.462.73-.991 1.638-1.171.228-2.52 2.136.016 2.178-3.502 2.706-1.325.162-.991 1.69-1.533-.1-.576.98-2.3 1.03.732 2.287-2.71 1.984-3.869 1.672-2.316.143-2.638 2.228-2.289.412-1.069 1.007-3.385.134-1.754 2.34-1.365.827-1.483-.196-1.324 1.077-2.181-1.544 1.963-.683 3.952-4.892 2.425-1.769 2.54-1.082 1.92 2.357.49-.778 2.372-.094-1.214-1.34 1.249-2.927 2.725-2.37 2.648-1.223 1.544-1.657 1.662.63.075-2.372 1.793-2.522 2.25-2.1 1.512-.887-.403-1.412.385-3.059.886-1.217-.426-2.509 1.554-2.227 1.341-.973-.882-1.445-4.64 2.426-1.48-.016-1.059-2.13-1.356-1.024-.532 2.37.47 2.017-1.636.512-1.454-2.555-1.646-1.941-1.317.932-2.336-2.373-2.394 1.844-2.103.723-.766 1.342-2.08.585-.175-4.135-1.015-1.338-.221-1.425 1.025-3.173-1.63-4.12-.551-2.104-.944-1.126-.787 3.127-3.42 1.525-3.626.408-1.244-.95.06-1.029-1.788-1.647-1.011-1.648-2.102-1.162.18-.948-1.725-.435 2.893-3.8 2.295 1.046.55.772 1.955-.222.87 1.676 1.63-1.81-1.73-2.308-1.295 1.143-2.358-.057-3.87-1.042.52-1.406-2.578-.09-.663-2.17-1.132-1.147.576-.97-1.6-1.711.114-1.767 2.458-.743-.498-2.607 2.703-4.247 2.119-1.722-.278-2.052.885-2.551 1.416-2.283 1.591-.547 1.957.81 1.99 1.723 1.563-.399 2.325-2.183 1.787-3.116 1.626.905 2.472-.181 2.14-1.066 1.692-3.118-1.102-5.23-2.099-2.309 2.394-1.711.236-2.681-1.58-1.603-1.475 1.61-1.544-.265-2.179 1.716-3.346 3.74-.366-1.745-1.413 1.138-2.998-2.024-3.116.054-3.14 1.516-6.558-1.502-1.785-1.799.35-2.47-2.172-2.126 1.561-.738.418-1.17-1.126-1.153-3.895-1.065-3.076-1.86-.534-1.156 2.681-1.294.921-1.306 1.747-.228 1.72-2.273 2.812-1.55 2.59.755-.277-2.71 1.722-1.202 2.032-.368 2.056-1.558 3.248-.744 1.49 1.063-1.36 4.17 1.784 1.725 4.264-.202 1.58.634 4.064-.036 1.368-2.58 1.877.408.426-1.513-2.237-.961-1.497.478-.312-1.62-1.601-2.666-1.458-.57-.737-2.135 1.296-.714 1.213 1.967 1.17 3.235 1.68 1.328 2.863-.194 2.096 1.34 2.209-.624-.162-2.021-2.011-.435-1.162-.879-2.815 1.587-2.42-1.98-.115-1.393 1.353-2.365-1.812-.954-2.246.403-3.216-.1-2.796-1.023-.996-1.267-1.17-3.878-.963-1.792-6.648-6.16-3.025-1.565-1.458-1.743-1.785-.606 1.023-1.507 1.048-5.405-.144-1.293 3.69.26 6.366-1.013 2.289-1.48 1.752-1.983 1.974-3.259.357-3.369.746-2.25 5.65-8.905 1.275 1.528 3.39-1.1 1.909-2.235 2.726-2.3.811.367-.693 3.718 1.263.144.574-3.263-1.135-1.65 1.48-2.45 1.933-1.48 1.677 1.242 1.98.041.72-.677 2.562-.068 2.072-1.553 2.162-2.474 2.174-3.713 1.652.453 3.474 1.698 1.223 1.106-1.186 2.05-1.805 1.096 1.446 1.51 1.545-.965 2.175-3.334 1.176.266 1.425 1.563-.588 1.505 3.11 1.505 1.46-1.23 3.615-.895 2.362.914 1.55-.08 1.361 1.141-1.254 2.518 1.57 1.545 2.13-.054-.926 1.712 3.796.527 2.965-1.44 1.368 1.044 1.322.005 1.489-1.047 3.167.142 3.065 1.335 1.102 1.551 1.216-.61 1.999.842.865 1.35 3.389.732 1.676-.333 4.86.494 3.3 2.351 3.05.412 1.067-.881 3.535-.976 2.785-.225 2.691 1.282 2.169 2.534 3.151 1.53 1.536 1.784ZM161.99 506.877l2.26.65 3.186-1.35 1.627.968.551 1.498 2.074.724 1.036.972 3.753.446-.72 1.639-2.7.001-1.644 2.516-.535-1.607-2.173-1.204-1.78-2.154-2.815-.792-1.792 1.264-2.056-1.01.236-3.313Zm42.119 90.424.622 2.252-1.187 1.008-2.586.042-2.057 1.768-1.897.074-.34-1.722 1.887-2.504 1.35-.176 2.14-1.282Zm158.773-19.156 1.558.285.616.913-.027 1.965-1.338 2.04-2.056.005-.412-3.21-1.575-2.057.598-.573Zm-68.697-35.185 1.4.613-2.583 1.27-.446-1.442Zm69.02 49.109-1.82 2.56.084-2.518ZM145.04 623.532l1.958-1.563-.682-.874 1.406-.892.794.767-.54 1.7Zm42.513-16.403.903 2.23-1.721 1.568-2.02.606-1.945 1.167-1.51-.422 3.546-1.8.636-1.533-.54-1.563.738-.81Zm168.4-40.423 2.321.177-.142 2.595 1.74 3.004.062 2.41-.92.359-1.77 2.375-.822-.342.552-3.821-.914-1.542-.498-3.549Zm19.516 25.872-.545 2.073-1.784-.086-2.058.49-.185-1.797 1.048-1.583.12-2.313 1.875-1.166 1.598 2.694Zm-13.642-8.03 1.915.184.561 2.187 1.787.902 1.727 2.903.066 1.912 1.067.93.047 1.479 1.214.147-.024 3.725-.81.85-1.092-1.79-2.325-1.305-1.69-2.892.07-2.356-1.1.051-.783-1.785 1.082-1.169-1.527-2.129Zm-11.413-18.674.755.98 3.086.96.39.982-.267 2.272.56 1.338-1.12.772-2.176-1.494-.633 1.796-1.544.33-.875-2.248-2.594-2.96.296-1.238Zm-90.527 4.206 2.038-.274.527 2.036 1.03.684-2.441 2.283-3.139 1.165-2.736 2.309-1.087-.588-1.791 1.253-.843-1.124-1.092-2.921.9-2.203 1.338-.78 2.444.423.66-.671-1.115-1.553 1.276-.378.728 1.261 1.709-.884Zm109.606 16.656-.108 1.574-2.78-1.277 1.48-4.012 1.649 2.432Zm-81.976-43.787-.39 2.445-.733-.08.403-2.465Zm-.409 6.778-.414-.936 1.838-2.066 1.823-2.836.702 1.162-1.748 1.905-.954 1.96Zm-24.684 14.98.53-.537 1.76 1.704-.666.837-4.607 1.644-2.102-.903 3.726-3.66Z" class="imapsPolygon"/>
                          </g>
                        </g>
                      </g>
                      <g id="id-338" fill="rgba(30,115,190,0.74)" stroke="#eee" stroke-opacity="1" stroke-width="1.001" class="imapsSprite-group imapsContainer-group imapsMapObject-group imapsMapPolygon-group">
                        <g class="imapsContainer imapsMapObject imapsMapPolygon">
                          <g class="imapsSprite-group imapsPolygon-group">
                            <path d="m542.197 445.798-1.444-2.842-2.016-8.205.761.321 2.228 8.385Zm40.17-129.33 1.589 1.479 1.244-.384 3.699.592.09 9.703-.032 17.957 2.068 2.153 1.17 2.23.093 2.57 1.241 1.583 1.074 3.35 1.615 2.487.406 2.344-.726 3.877-2.108 4.618-.45 3.701.592 4.015-1.246 2.342-.71-.043-1.567 2.842.836 2.162-3.13.327-9.726 4.338 3.348-2.233-1.182-.34-2.585.343.805-1.847-.262-1.632-1.35-.044-.861 1.303-1.99-.437.45 2.946 1.562 2.756-3.75 3.474-.194 1.515-1.816 1.973-8.672 5.522-2.495.911-3.813-1.163-2.591 1.034-1.9-2.067-.96.117 1.725 3.747 1.547.536-2.103 1.533-1.714.439-1.453-1.365-.498 3.42-1.268 1.063-1.121-.541-2.838.765 1.247 2.682-1.47 1.804-3.031.16-.858.555 2.133 2.815-1.37 4.238-.877 1.532-1.266.243-2.367-1.366-.154 1.815 3.098.837.142 2.009-1.181 2.528 1.329 4.616.948 4.936 3.83 7.248-2.027.33-1.142 1.182-1.226-.339-2.2-1.55-3.203-.962-4.206-.373-2.873-.78-1.542-1.184-4.684-1.57-2.719-1.747-2.124-.297-1.383-.8-.962-1.958-.864-3.31-1.084-2.058-2.11-2.548.05-2.241-1.044-2.863.386-2.139-.316-1.365-1.346-1.476-2.377-1.591-2.023-2.319-1.67-3.059-1.655-2.12-2.753-2.626-.534-2.974-3.26-5.432-1.294-2.586-.334-1.638-1.434-1.95-3.913-3.74-.339-1.025-3.955-2.986-2.047-2.456-8.23-.326-2.576-.508-1.582-.791-3.1 1.757-2.074.29-1.783 1.864-1.492 3.437-.867 3.904-1.956 1.442-1.005 1.545-2.506.697-2.471-1.19-3.605-2.331-2.825-1.443-2.047-.55-1.806-1.08-3.014-2.686-1.323-.536-1.545-1.787-1.769-3.044-.882-2.35v-2.485l-2.312-5.426-2.136-3.442-4.441-2.806-3.562-3.023-4.466-4.544-3.16-2.745-1.855-.928-1.61-1.647-1.362-2.358-1.473-1.571-1.81-.9-1.521-3.195 10.172-.012 13.445-.005 10.082-.006 20.167-.01.042-9.945.09-20.076.065-15.23.089-20.548.064-15.603.626-.013 19.61.003 16.81.004h8.405l.026 19.89.02 15.289 1.979.788 3.512 2.807 3.396-.063.667-1.162 2.401 2.497.197 1.498 3.257.488 2.54.97 2.849-.115 1.713 1.308 2.062-.952 3.846-.063.438 1.89 1.769 1.247.071 1.335 1.554.385 2.721-2.061 3.444 2.731 3.217-1.055.636 2.525.798.398 2.113-3.66 3.46 1.51 1.46-.939.853 1.029 2.699 1.331 1.983.317 5.037-2.253 2.358.33 2.409-1.184 1.484.787 2.236.22 2.032-1.481 4.122 2.039 1.392 1.351 2.394 1.239ZM544.533 416.55l.534-1.9 1.187-1.755.89.485Z" class="imapsPolygon"/>
                          </g>
                        </g>
                      </g>
                      <g stroke="#eee" class="imapsSprite-group imapsContainer-group imapsMapObject-group imapsMapPolygon-group">
                        <g class="imapsContainer imapsMapObject imapsMapPolygon">
                          <g class="imapsSprite-group imapsPolygon-group">
                            <path d="m200.84 158.058.002 18.728.005 22.127.003 18.158 10.507 9.405 10.506 9.34 7.004 6.193 13.707 12.96 8.223 7.717 11.39 11.03 7.593 7.308 11.656 11.134.792 3.584 2.385 3.726.404 1.837 3.172 2.417.497 1.243-3.046 2.613-2.688 4.295.146 3.925-1.544 3.874-1.482.934-.04 4.438.841 1.75 2.35 1.569.201 2.524-1.564 1.906-2.133.347-18.824 1.71-17.114 1.521-.136-2.057-1.586-.264-.29-4.889-.836-2.874-2.222-3.494-4.801-4.349-2.446-1.457-1.92-1.842-2.75-.658-2.183.264.262-2.056-1.694-2.87-1.386-.315-3.486.19-4.66-1.578-1.379-.943-.474-1.687-5.06-2.908-3.697.108-2.986-1.038-5.136.176-1.267-.218-2.444-1.967.296-4.22-.57-2.502.44-2.32-1.098-1.486-2.249-.952-.043-2.852-2.431-2.117-1.72-2.323-2.181-1.273-.897-2.131-4.793-6.687-3.186-3.281-.616-4.486 1.923-2.982-.262-2.22-1.094-1.64-4.24-.974-3.447-4.059-.205-3.114-1.358-3.19-.222-4.333 1.945-.314.215 2.508 2.11 1.736 1.561.38-1.465-3.556-1.104-1.103-1.337-3.223 2.518-1.52 1.949-.167 5.53.292-4.705-1.7-1.829 1.104-3.582-1.505-1.353.682-.165 2.946.419 2.187-4.389-2.035-3.105-2.874-.277-3.428-.89-.531-1.122-2.75-2.52-1.655-2.02-2.675-4.131-4.443-.277-3.92-1.505-4.968.55-4.85-1.51-4.71-3.35-4.558-3.222-3.08-.711-4.698 1.314-4.317.915-1.273 1.337-3.852-.103-3.69 1.069-4.54-.736-4.746-1.897-3.326.536-2.019-.294-2.256 11.963.002H185.069Zm-.64 153.547-1.847.013-1.268-1.726 2.693-.229Zm2.41-2.902 4.787 1.321-3.699.698Z" class="imapsPolygon"/>
                          </g>
                        </g>
                      </g>
                      <g id="id-268" fill="rgba(30,115,190,0.74)" stroke="#eee" stroke-opacity="1" stroke-width="1.001" class="imapsSprite-group imapsContainer-group imapsMapObject-group imapsMapPolygon-group">
                        <g class="imapsContainer imapsMapObject imapsMapPolygon">
                          <g class="imapsSprite-group imapsPolygon-group">
                            <path d="m439.919 76.105.084 20.086-.474-.002h-19.664l-16.386.002h-68.818l-.01 10.571-2.187-1.924-2.09-3.24-1.654.705-.774 3.496-4.444.103-6.492-.436-2.415 1.944-4.833-.631-1.487 1.929-2.755-1.558-1.4-4.933-1.403-1.754-2.268-.198-1.95-2.574-.027-3.022-3.38-4.922-1.572-6.313-2.1-1.72-5.307 4.143-3.462-1.88.5-2.354-.567-2.061 1.923-1.979-1.095-3.47-.104-2.644 2.085-8.501-.076-2.549-3.748.161-2.275-1.62-2.72-4.112-6.188-7.43-2.041-1.115-3.237-2.782.49-1.33-.958-4.626-4.713-6.647.006-22.304H358.319l19.126-.002h62.133l.07 12.943.105 21.284.103 20.9Z" class="imapsPolygon"/>
                          </g>
                        </g>
                      </g>
                      <g stroke="#eee" class="imapsSprite-group imapsContainer-group imapsMapObject-group imapsMapPolygon-group">
                        <g class="imapsContainer imapsMapObject imapsMapPolygon">
                          <g class="imapsSprite-group imapsPolygon-group">
                            <path d="m746.552 74.597-.218 1.187-3.182.32-2.017-.778 3.85-2.528Zm-81.516-41.921-.221.997-2.793.902.152-2.493 8.348-4.606-.544 2.608Zm10.965 15.854-.223 1.137-3.023 3.252.073-2.445-2.717-1.143.806-2.156 2.504-2.572 4.248-1.854 3.475-.255 1.307 1.608-3.44.42.076 1.58Zm71.285 114.649-10.104.505-9.958.378-.005-1.166-18.128-.01-12.767-.008 3.443-3.026 3.366-6.29 1.612-3.923.997-4.714.169-5.103-1.608-6.622-3.184-8.508 1.517-3.248-.12-2.687-1.056-3.114 3.338-5.358.802-4.624.08-3.547 1.66-.579 1.021-3.557 2.988-.952 2.52-3.526 1.518-.706-.254 4.052-.635 2.795 2.43-.057 1.429-4.066.202-5.178 2.283-1.684 3.825-.774-1.803-2.434v-2.104l2.036-3.639 2.684-.418 4.943 2.541 3.77 1.392.92 1.681 9.707 4.123 1.216 1.39 1.558 4.941-1.989-.391-.15 2.064 1.619 1.947.5 3.913-.54 6.466-2.722 2.182-1.518 4.428-3.96 1.991-.887 4.665 3.035 2.293 1.699-.204 2.283-1.952 1.954-4.104 1.928-1.344 3.919-1.526 2.384 1.32 1.859 3.1.996 4.55 2.026 11.38.658 1.303-1.062 5.668-.852 2.335-4.82 4.858-3.546 1.996-2.347 6.858-1.5 1.334Zm-62.073-69.266-1.72-2.844.365-2.98-2.527.323.75-2.945.092-3.849-1.697-1.585-2.893-1.196-.533-2.784-5.104-1.467-5.148-.495-4.215-2.428-14.94-4.162-1.674-3.647-2.65-1.808 3.799-1.34 4.382-3.016 2.473-1 5.085-.95 2.995-2.334 3.09-1.193 1.77-2.258 2.945-.464 1.753 1.57.892 2.91-.303 2.76 3.886-2.512 6.556 1.392 2.097 1.343 4.177 6.583 2.802.237 2.043-.645 2.73 1.583 3.2.376 1.592-1.55 4.483-2.87 4.254-1 4.943.252 2.61-.349 4.531-1.558 2.098.838-.54 5.093 3.82.81 1.219-.485 2.525 1.186 3.004-1.203 1.473 2.727.378 2.571 2.436 3.429 2.193 1.87-1.266.858-5.414-.824-2.696.114-1.65-1.251-2.547 3.833-4.466-3.695-4.266-1.347-2.53.657-2.283 1.952-3.762 1.008-2.445-.608-2.226.694-1.911 2.92-2.388-.12-.061-1.635-3.516 1.089-.583 1.436-3.699.75-1.966 2.62-2.727 5.175-3.042 4.41Zm51.927-26.856-2.113-2.718 1.972-.943Z" class="imapsPolygon"/>
                          </g>
                        </g>
                      </g>
                      <g stroke="#eee" class="imapsSprite-group imapsContainer-group imapsMapObject-group imapsMapPolygon-group">
                        <g class="imapsContainer imapsMapObject imapsMapPolygon">
                          <g class="imapsSprite-group imapsPolygon-group">
                            <path d="m598.908 17.162 4.878-.075 3.212 1.178 5.029 2.988 1.284 3.573 3.632-1.39 2.49.824 2.194 2.34 5.084 3.12 4.451-1.036 2.65-1.997 3.038-.155 1.432 2.152 6.346.12 3.414-.423 1.468 2.3 5.378.483-2.914 2.072-5.51 2.55-5.984 2.193-5.376 3.639-6.416 6.82-3.871 3.62-6.271 5.064-.634 1.232-2.763 2.218-.014 12.489-6 3.775-2.703 4.352-.267 2.38 2.772 2.157.319 2.414-1.2 3.064-.403 3.498.443 2.901-.536 3.042 2.327 3.043 4.137 1.957 1.893 1.89 2.768 1.304 3.204 4.297 1.86 1.409 4.991 2.823.938 1.134.622 2.877.496 6.096-14.662.014-19.451.005-14.588.002-19.45.004-9.727.002V89.909l-1.138-1.578-2.486-1.284-2.234-3.502.477-1.353 2.974-3.016.871-3.065-.065-4.21-.848-4.084-1.696-3.159-.834-3.814.248-5.929-.72-1.191-.606-13.537-1.932-5.157-.29-2.345-1.772-5.543-.27-8.174.237-3.268-1.46-7.088h20.956l9.9.032.1-8.644 3.23.464 1.272 1.03.175 4.243 2.056 7.074 1.26 1.498 8.458 1.893 3.044 1.17 2.15 1.85 3.65-.808Z" class="imapsPolygon"/>
                          </g>
                        </g>
                      </g>
                      <g stroke="#eee" class="imapsSprite-group imapsContainer-group imapsMapObject-group imapsMapPolygon-group">
                        <g class="imapsContainer imapsMapObject imapsMapPolygon">
                          <g class="imapsSprite-group imapsPolygon-group">
                            <path d="m776.449 368.017.698 1.575 1.07 6.433.726 2.227 1.31 5.996 2.166 5.793 3.06 6.979 5.62 9.615-1.477 2.818-1.627-2.422.647-1.969-1.158-.924-.077-1.698-1.004-.43 1.34 6.412 1.472 3.397 6.34 16.445 1.5 2.085 1.133 4.618.13 4.001-1.036 7.294-.237 4.956-2.609 3.569-.402 3.17-.585 1.588-1.758 1.677-1.093-.043-2.676 1.256-1.878-.328-2.24.71-1.473-.078-.85-1.496 1.043-1.5-1.938-4.374-1.763-2.462-.296-1.647-3.041-1.007-2.201-1.523-1.435-2.712-.823-4.818-2.588-1.956-.573-2.547.165-3.135-1.708-.758.006 1.62-1.634-.515-2.262-3.169-2.678-5.739-.23-2.083 3.516-5.246-1.794-.72-2.098 2.694-1.224.154-1.506-2.31 1.42-6.619 1.315-4.233.136-6.845-1.763-2.802-7.79-6.862-6.04-8.16-5.23-3.069-3.97.672-1.094 2.718-2.5.163-3.745 2.153-1.322-.079-2.098.973-4.331.704.179-2.027-.698-1.34-2.254-1.728-2.562-2.525 1.078-2.85-2.052.733-.222 1.34-6.273-2.866-4.175-1.156 3.206-.518-.26-1.108-2.848-.047-3.465 1.61-7.797 1.101 1.156-.994 2.063-.592-2.763-1.873-.21 1.476-1.442 1.983-2.912.782-.206-1.447.9-1.736.117-3.365-2.162-2.157-.52-1.132.109-2.444 14.505-.002 9.67-.002 14.497-.012 1.845 4.891 13.316.915 9.532.648 16.685 1.136.682 2.988 1.981-.193.598-2.694-.247-2.991 1.536-1.524 3.92 1.381Z" class="imapsPolygon"/>
                          </g>
                        </g>
                      </g>
                      <g stroke="#eee" class="imapsSprite-group imapsContainer-group imapsMapObject-group imapsMapPolygon-group">
                        <g class="imapsContainer imapsMapObject imapsMapPolygon">
                          <g class="imapsSprite-group imapsPolygon-group">
                            <path d="m334.65 106.762.008 19.48.003 12.823.007 18.99-13.982-.003-11.184-.002-19.575-.002-16.675.006-16.677.002-11.117.002-.033-22.652-.024-14.353.94-3.133-.046-2.39.739-1.63-.627-1.833-2.788-.94-.927-3.051 1.238-2.98 2.542-4.035 1.635-4.534 4.341-10.011 1.078-3.937-2.089-3.386-2.211-1.582-1.97-2.778-.768-2.633.072-2.328-1.226-4.268-.063-17.517-.085-24.974-.063-14.499h14.81l-.006 22.304 4.713 6.647.958 4.626-.49 1.33 3.237 2.782 2.041 1.115 6.187 7.43 2.721 4.112 2.275 1.62 3.748-.16.076 2.548-2.085 8.5.104 2.644 1.095 3.471-1.923 1.979.567 2.06-.5 2.355 3.462 1.88 5.308-4.142 2.099 1.719 1.573 6.313 3.379 4.922.027 3.022 1.95 2.574 2.268.198 1.404 1.754 1.4 4.933 2.754 1.558 1.487-1.93 4.833.632 2.415-1.944 6.492.436 4.444-.103.774-3.496 1.654-.705 2.09 3.24Z" class="imapsPolygon"/>
                          </g>
                        </g>
                      </g>
                      <g fill="#a8a8a8" stroke="#eee" class="imapsSprite-group imapsContainer-group imapsMapObject-group imapsMapPolygon-group">
                        <g class="imapsContainer imapsMapObject imapsMapPolygon">
                          <g class="imapsSprite-group imapsPolygon-group">
                            <path d="m289.963 254.954-.04 15.315-2.098 2.802-3.333-2.183-2.795.013-1.836 1.158-.381 1.32.81 1.78.628 5.285-.052 2.842.861 2.26-.291 6.612-11.656-11.134-7.594-7.308-11.389-11.03-8.223-7.717-13.707-12.96-7.004-6.192-10.506-9.341-10.507-9.405-.003-18.158-.005-22.127-.003-18.728h44.619l11.117-.002 16.677-.002 16.675-.006.004 12.505.005 12.39.004 15.32.006 18.156.008 20.883Z" class="imapsPolygon"/>
                          </g>
                        </g>
                      </g>
                      <g id="id-293" fill="rgba(30,115,190,0.74)" stroke="#eee" stroke-opacity="1" stroke-width="1.001" class="imapsSprite-group imapsContainer-group imapsMapObject-group imapsMapPolygon-group">
                        <g class="imapsContainer imapsMapObject imapsMapPolygon">
                          <g class="imapsSprite-group imapsPolygon-group">
                            <path d="m455.032 264.337-.626.013-.064 15.603-.089 20.549-.065 15.23-.09 20.075-.042 9.945-20.167.01-10.082.006-13.445.005-10.172.012 1.522 3.196 1.809.899-9.978-.092-16.435-.1-.039 7.896-12.46.024.008-18.737.002-12.606.001-19.099.003-19.343.002-19.595.001-13.213h90.399Z" class="imapsPolygon"/>
                          </g>
                        </g>
                      </g>
                      <g stroke="#eee" class="imapsSprite-group imapsContainer-group imapsMapObject-group imapsMapPolygon-group">
                        <g class="imapsContainer imapsMapObject imapsMapPolygon">
                          <g class="imapsSprite-group imapsPolygon-group">
                            <path d="m152.696 71.568 1.491-.542 2.675 1.377 1.474 2.947 1.757 6.531 1.138.989 6.688.78 1.756-.25 3.035-1.857 3.283-.612 3.892.135 3.258 1.457 2.08.1 4.926-1.086 5.447-.758 2.923-.793 3.315-1.623 7.553-2.069 3.765-.234 2.357-1.188 12.165-.021 19.581-.018 1.97 2.778 2.212 1.582 2.089 3.386-1.078 3.937-4.34 10.01-1.636 4.535-2.542 4.035-1.238 2.98.927 3.051 2.788.94.627 1.833-.739 1.63.047 2.39-.941 3.133.024 14.353.033 22.652H149.59l-11.963-.002-1.898-2.46-.976-5.214.215-4.11-1.994-4.663 1.272-4.073 1.613-6.752.877-1.4 2.082-5.818.27-7.546.47-5.8.775-1.92-.176-7.399 1.653-13.196.287-3.756-.475-5.696.21-6.405.53-.9 3.56-.006 2.273-.867 1.784 1.463Z" class="imapsPolygon"/>
                          </g>
                        </g>
                      </g>
                      <g stroke="#eee" class="imapsSprite-group imapsContainer-group imapsMapObject-group imapsMapPolygon-group">
                        <g class="imapsContainer imapsMapObject imapsMapPolygon">
                          <g class="imapsSprite-group imapsPolygon-group">
                            <path d="m910.93 178.31 3.323-.752 2.776.18-3.547 2.392-12.787 4.738-1.065-.185-5.314 1.255-2.181.142-.836-1.247-1.59 1.127-1.54-.784 2.284-3.02 4.566-2.529 3.008-.479 2.793.277 2.276-.716Zm-11.117-35.466-3.797 13.616.398.493-.958 15.205.904 1.531-3.57 2.274 1.381 2.233-3.298 3.175-1.456-.144.575-3.04-11.796-7.25-.86-1.327-2.674-1.008-1.304-1.565-1.483-6.02-1.751-.78-1.682-2.132-12.369-.01-16.489-.014-20.613-.014-16.492-.013v-5.54l3.748-2.335 4.532-3.328 2.192-2.53 2.16-1.716.687-1.465-.71-2.292.174-2.496-2.363-.735.194-3.67 5.437-1.57 7.693-.683 5.036.774 4.623 1.843 3.86-.557 4.403.352 4.24-1.716 3.29-3.015 4.04-1.388.062-6.203 1.491-1.924-2.08-4.498 6.065-4.472.602-2.09 5.84-5.78 3.317-2.683 4.83-2.208 22.493-.031.054 4.856-.351 3.741.931 2.888-.169 3.991-1.326 2.868-.229 1.938.736 5.729-.562 2.78 2.488 1.544-.292 14.118Z" class="imapsPolygon"/>
                          </g>
                        </g>
                      </g>
                      <g stroke="#eee" class="imapsSprite-group imapsContainer-group imapsMapObject-group imapsMapPolygon-group">
                        <g class="imapsContainer imapsMapObject imapsMapPolygon">
                          <g class="imapsSprite-group imapsPolygon-group">
                            <path d="m364.626 255.015-.001 13.213-.002 19.595-.003 19.343-.001 19.1-.002 12.605-.007 18.737-13.964.032-15.854.031-14.182-5.189-14.182-5.206-7.09-2.607-14.182-5.233-7.09-2.622 1.66-3.674 2.134-.347 1.564-1.906-.2-2.524-2.35-1.57-.842-1.75.04-4.437 1.482-.934 1.544-3.874-.146-3.925 2.688-4.295 3.046-2.613-.497-1.243-3.172-2.417-.404-1.837-2.385-3.726-.792-3.584.291-6.612-.861-2.26.052-2.842-.628-5.285-.81-1.78.381-1.32 1.836-1.158 2.795-.013 3.333 2.183 2.097-2.802.04-15.315 9.332.007 14 .011 9.335.008 18.666.017 9.333.005Z" class="imapsPolygon"/>
                          </g>
                        </g>
                      </g>
                      <g stroke="#eee" class="imapsSprite-group imapsContainer-group imapsMapObject-group imapsMapPolygon-group">
                        <g class="imapsContainer imapsMapObject imapsMapPolygon">
                          <g class="imapsSprite-group imapsPolygon-group">
                            <path d="m627.855 190.271-.866 3.01.494 5.532 1.317 3.768 2.524 2.847 4.343 4.187 2.725 3.96 1.102 3.743 1.291 1.495 1.482-.74 3.856.973 1.395 1.248-2.838 7.175-.858 2.825 1.122 2.584 1.873 1.993 5.244 3.51 2.986 2.589 1.493 1.942.92 3.968-.613 2.513 1.33 3.719 2.116.422 1.766 1.644.476 1.506-.506 3.66-.698 1.68-2.907.703-.792 1.634-.55-.058-1.048.037.03 2.383-.588 2.106-1.195.72.49 2.15-.941 1.905-10.114.16 1.168-1.97 3.398-3.657.018-1.394-1.31-2.399H580.36l.005-9.329-.056-22.134-.01-18.2-2.324-1.34-1.562-2.883-2.626-3.21-.262-1.712 2.723-3.585-1.357-2.128-1.976.37-3.445-2.523-1.31-1.846-.44-1.995-2.145-1.91-2.36-6.019 11.275-.078 22.631-.172 15.089-.112 11.312-.089.742 1.434Z" class="imapsPolygon"/>
                          </g>
                        </g>
                      </g>
                      <g stroke="#eee" class="imapsSprite-group imapsContainer-group imapsMapObject-group imapsMapPolygon-group">
                        <g class="imapsContainer imapsMapObject imapsMapPolygon">
                          <g class="imapsSprite-group imapsPolygon-group">
                            <path d="m580.361 264.344 2.68 20.57-.211 9.932-.464 21.622-3.364-.913-2.394-1.239-1.392-1.351-4.122-2.04-2.032 1.482-2.236-.22-1.484-.787-2.41 1.183-2.357-.33-5.037 2.254-1.983-.317-2.699-1.331-.852-1.029-1.461.939-3.46-1.51-2.113 3.66-.798-.398-.636-2.525-3.217 1.055-3.444-2.731-2.721 2.061-1.554-.385-.071-1.335-1.77-1.247-.437-1.89-3.846.063-2.062.952-1.713-1.308-2.849.116-2.54-.97-3.257-.489-.197-1.498-2.401-2.497-.667 1.162-3.396.063-3.512-2.807-1.98-.788-.02-15.288-.025-19.89h-8.406l-16.809-.005-19.61-.003-.007-9.322H580.366Z" class="imapsPolygon"/>
                          </g>
                        </g>
                      </g>
                      <g id="id-168" fill="rgba(30,115,190,0.74)" stroke="#eee" stroke-opacity="1" stroke-width="1.001" class="imapsSprite-group imapsContainer-group imapsMapObject-group imapsMapPolygon-group">
                        <g class="imapsContainer imapsMapObject imapsMapPolygon">
                          <g class="imapsSprite-group imapsPolygon-group">
                            <path d="m469.623 197.678.054 18.177.032 10.79.045 14.255.044 14.115H364.626v-9.394l.002-18.973.001-14.405v-24.357l.003-9.867h75.128l11.197.002 18.658.002Z" class="imapsPolygon"/>
                          </g>
                        </g>
                      </g>
                      <g id="id-373" fill="#a8a8a8" stroke="#eee" stroke-opacity="1" stroke-width="1.001" class="imapsSprite-group imapsContainer-group imapsMapObject-group imapsMapPolygon-group">
                        <g class="imapsContainer imapsMapObject imapsMapPolygon">
                          <g class="imapsSprite-group imapsPolygon-group">
                            <path d="m439.654 137.763.026 10.181.042 15.127.038 14.948H334.673l-.005-19.965-.007-18.99-.003-12.821-.008-19.481.01-10.571h68.819l16.386-.002h19.664l.048 15.752.03 10.394Z" class="imapsPolygon"/>
                          </g>
                        </g>
                      </g>
                      <g stroke="#eee" class="imapsSprite-group imapsContainer-group imapsMapObject-group imapsMapPolygon-group">
                        <g class="imapsContainer imapsMapObject imapsMapPolygon">
                          <g class="imapsSprite-group imapsPolygon-group">
                            <path d="m434.357 476.367 1.474-.022.289 1.608 1.312 1.419-3.065.785-1.933-1.449-1.488.494-2.428-.051-2.416-3.442-.639-1.934 2.816-.304 1.929-1.848 1.087-.192 2.082 2.986Zm17.83 13.761-2.326.305-.28-1.37-1.166-1.742 2.042-.353 2.485 1.986Zm23.808 35.143-1.867.88-3.765-2.04-.455-1.098.277-5.106-1.409-4.145-1.556-3.172 2.624-2.888 1.664-2.386-1.36-3.062.348-1.847.8-.321 3.932 2.25 7.947 3.375 2.118 2.371.378 2.544 1.443.323.682 1.741 2.785 2.395-.864 1.399-3.813 2.685-4.81 1.175-4.234 3.002Zm-30.642-44.044 8.848 1.046-.106 1.207-2.102.95-3.022-.835-5.058-.298Zm13.642 5.69.489.36 3.439-.736 2.428 1.322 2.974 2.578-2.201 2.255-3.808.92-2.406-.382-.788-3.68-2.542-.412-1.392-1.6.616-2.471 1.34-.198Zm-54.176-20.157-1.65 1.137-2.78-.674-2.614-1.624-.772-1.056 1.174-1.991 2.768-1.68 4.266.069.963 2.32Zm-15.154 1.845-.766-1.135 2.258-2.39.973.217-.589 1.965Z" class="imapsPolygon"/>
                          </g>
                        </g>
                      </g>
                      <g stroke="#eee" class="imapsSprite-group imapsContainer-group imapsMapObject-group imapsMapPolygon-group">
                        <g class="imapsContainer imapsMapObject imapsMapPolygon">
                          <g class="imapsSprite-group imapsPolygon-group">
                            <path d="m247.255 74.833-19.581.018-12.165.021-2.357 1.188-3.765.234-7.553 2.069-3.315 1.623-2.923.793-5.447.758-4.926 1.087-2.08-.1-3.258-1.458-3.892-.135-3.283.612-3.035 1.857-1.756.25-6.688-.78-1.138-.989-1.757-6.531-1.474-2.947-2.675-1.377-1.49.542-3.652-2.541-3.343-.621-3.1.694-2.646-.253.336-4.575 1.557 1.26.85-4.945-2.728-1.85-.61-2.574 4.03-2.2-2.98-1.458-1.814.316-.528-4.245-1.65-4.324-.998-5.625-1.256-2.794-2.409-2.67-1.204-5.532 1.032-5.02 3.044 1.671 3.79 1.312 2.987 1.658 10.188 1.098 2.542-.704 1.498 1.553 2.442-.19 1.81 1.717 1.244 2.949-2.464 1.96-2.408 5.192 3.37-3.13 2.53-3.458.957 1.926-1.59 1.703 1.146 6.377-.364 2.465-3.508-.79-1.6.87-1.02 2.576 4.274 1.356 1.462-1.233.926-2.39 2.817-2.118-.217-5.14-.63-1.08.262-3.736 2.257-4.243-1.66-2.307-2.108-.37-.394-2.212 1.672-1.456-1.195-1.808-2.7-2.05 2.575-.907-.238-3.707-.737-2.457-1.36.317-2.031-5.208h46.158l12.752-.003H245.123l.063 14.499.085 24.974.063 17.517 1.226 4.268-.072 2.328Zm-84.873-47.317 3.082 3.834-.668 1.511-2.186-1.67Z" class="imapsPolygon"/>
                          </g>
                        </g>
                      </g>
                      <g stroke="#eee" class="imapsSprite-group imapsContainer-group imapsMapObject-group imapsMapPolygon-group">
                        <g class="imapsContainer imapsMapObject imapsMapPolygon">
                          <g class="imapsSprite-group imapsPolygon-group">
                            <path d="m694.392 91.105-1.002 2.938-3.31 5.655-1.521-.618-.217-1.898 2.059-3.892 2.045-1.835Zm-51.074-29.06 2.651 1.81 1.673 3.646 14.94 4.162 4.216 2.428 5.148.495 5.104 1.467.533 2.784 2.893 1.196 1.697 1.585-.091 3.849-.75 2.945 2.526-.324-.365 2.981 1.72 2.844-.317 1.618-3.039 1.896-2.96 6.836 1.483 1.23 2.813-2.786 2.04-3.262 2.762-.394 1.108 1.37-2.718 8.712-.114 4.417-1.846 2.399-.977 3.152.36 3.805-1.112 2.58-1.908 7.287.124 4.176 1.59 4.735-.374 6.343-15.372-.113-13.466-.102-13.604-.105-.556-1.977-1.508-1.352-2.562-.883-1.637-1.39-1.177-4.033-.196-2.376.658-4.694-1.517-1.318-.395-2.21-.496-6.096-.622-2.877-.938-1.134-4.991-2.823-1.86-1.41-3.204-4.296-2.768-1.305-1.893-1.889-4.137-1.957-2.327-3.043.536-3.042-.443-2.9.402-3.5 1.201-3.063-.319-2.414-2.772-2.156.267-2.381 2.703-4.352 6-3.775.014-12.49 2.763-2.217 1.787 1.383 2.27-.07 5.03-1.394 4.208-2.614 1.352.394 2.71-1.884 2.658 1.003-1.452 3.221-.861 3.43 2.782-1.864 3.003 1.945Z" class="imapsPolygon"/>
                          </g>
                        </g>
                      </g>
                      <g id="id-278" fill="rgba(30,115,190,0.74)" stroke="#eee" stroke-opacity="1" stroke-width="1.001" class="imapsSprite-group imapsContainer-group imapsMapObject-group imapsMapPolygon-group">
                        <g class="imapsContainer imapsMapObject imapsMapPolygon">
                          <g class="imapsSprite-group imapsPolygon-group">
                            <path d="m552.511 147.744 1.454 1.893.412 3.188.91 2.569 2.108 3.375 1.278 4.634.153 3.774 1.877 2.403.74 2.747.742 7.894-.375 2.854 1.405 2.825 2.361 6.019 2.145 1.91.44 1.995 1.31 1.846-21.5.008h-78.348l-.008-19.655-18.658-.002-11.197-.002-.038-14.948-.042-15.127-.026-10.18h15.525l15.525.001h36.226l16.263.002 4.462 3.039 2.667.948 1.256-.893 2.734-.512 4.207-.13 2.662.417 3.274 2.047 3.218 1.197 1.929 1.297.638 1.4Z" class="imapsPolygon"/>
                          </g>
                        </g>
                      </g>
                      <g id="id-378" fill="#a8a8a8" stroke="#eee" stroke-opacity="1" stroke-width="1.001" class="imapsSprite-group imapsContainer-group imapsMapObject-group imapsMapPolygon-group">
                        <g class="imapsContainer imapsMapObject imapsMapPolygon">
                          <g class="imapsSprite-group imapsPolygon-group">
                            <path d="m551.382 76.111-.871 3.065-2.974 3.016-.477 1.353 2.234 3.502 2.486 1.284 1.138 1.578v37.592l-2.167.074.853 2.555-.207 2.916 1.386 2.714-2.379 7.546 1.243 1.444.864 2.994-2.271-1.167-.638-1.4-1.93-1.297-3.217-1.197-3.274-2.047-2.662-.418-4.207.13-2.734.513-1.256.893-2.667-.948-4.462-3.039-16.263-.002h-36.226l-15.525-.002h-15.525l-.048-15.428-.03-10.394-.047-15.752.474.002-.084-20.086H485.2l17.416.002h10.45l13.932.002h13.934Z" class="imapsPolygon"/>
                          </g>
                        </g>
                      </g>
                      <g stroke="#eee" class="imapsSprite-group imapsContainer-group imapsMapObject-group imapsMapPolygon-group">
                        <g class="imapsContainer imapsMapObject imapsMapPolygon">
                          <g class="imapsSprite-group imapsPolygon-group">
                            <path d="m334.668 158.054.005 19.965h29.959l-.003 9.867V212.244l-.001 14.404-.002 18.973v9.394l-13.998-.013-9.333-.005-18.666-.017-9.335-.008-14-.01-9.331-.008-.01-17.652-.007-20.883-.006-18.156-.004-15.32-.005-12.39-.004-12.505 19.575.002 11.184.002Z" class="imapsPolygon"/>
                          </g>
                        </g>
                      </g>
                      <g stroke="#eee" class="imapsSprite-group imapsContainer-group imapsMapObject-group imapsMapPolygon-group">
                        <g class="imapsContainer imapsMapObject imapsMapPolygon">
                          <g class="imapsSprite-group imapsPolygon-group">
                            <path d="m863.84 237.056.586-.858 3.65-.49-3.298 7.457.14 1.367-1.672.797-1.693 1.718-1.827 5.137-.942-2.101.334-2.533 1.297-4.158 2.526-3.826Zm-30.914-26.66 3.705 2.426-.03 2.08 2.689 1.147 2.676 2.117 1.373 1.04-.23 2.178-3.21 3.367-.798 3.884 1.222 1.08 2.769-.315 2.1 3.04 5.336 1.949 1.163 1.583 3.1 2.23-.617 3.254-2.669 1.753 2.67 1.081.629 4.04-2.056-.547-.002 3.261 1.762 3-1.757 1.15-4.052-3.404.567 2.35 3.504 2.95 2.322-1.173 3.66.747 2.122 6.755-.47.002-1.158-.017-9.124-.08-16.229-.156-10.817-.104-16.23-.158-16.227-.157-16.229-.156-.259-.289-3.684-.15-.706.383-15.001-.077-10.643-.055 7.736-2.933 1.591-1.552 2.232-1.138 2.432-2.65.752-1.69 5.061-2.981 5.647-4.571.784 3.215 1.253 1.324 2.518 1.443 1.434.225 3.213-2.328 1.836 1.325 4.24-.727 1.832-2.28 1.515.416 3.174-1.28.643.683 2.22-1.45 1.05-2.096-.59-1.062 1.451-2.783 3.237-4.207 1.032-2.558 2.802-4.254.697-2.68 1.06-.627 1.39 1.639 1.629.706 2.328-.424 2.975-5.993 2.58-.54 1.673-1.735 2.62-1.746 2.188-3.116 1.688-5.625 7.275 5.926Z" class="imapsPolygon"/>
                          </g>
                        </g>
                      </g>
                      <g stroke="#eee" class="imapsSprite-group imapsContainer-group imapsMapObject-group imapsMapPolygon-group">
                        <g class="imapsContainer imapsMapObject imapsMapPolygon">
                          <g class="imapsSprite-group imapsPolygon-group">
                            <path d="m859.246 263.404-.395 1.444 1.886 3.825-.244 1.707-3.96-1.92-.034 2.474-1.155.552-2.336-.324-1.423 1.948-1.205.237-1.789-1.108-.705 2.174 5.499.087 2.271-.706 2.044.384-.206 5.162 1.232-.583.333-3.205 1.87-1.185 1.22 1.113.412 2.479-.438 2.182-2.87 2.548-2.057 2.35-1.052.481-3.235-.863-1.484.077-.643-2.045-3.122 1.412 3.415 2.951-1.415 2.149-.308 1.458-2.257 1.516.51.901 4.309-.885 1.414.967-2.313 2.9-2.844.458-.389.82-5.99-.016-1.765 1.676-1.594-.083-.32 1.703-2.06 1.364-3.486 3.012-2.622 3.828-1.304 2.91-5.869-.102-2.37.737-6.192-6.307-10.094-10.356-16.905-.579-.133-2.446-2.105-2.754-1.666.877-.63-1.647-18.97-.84-11.346 3.657-18.088.245.561-3.887.818-1.095 2.543-.465.875-2.348 1.981-1.85 2.222-.827 3.164-.445 3.393-1.801 2.45-1.706 1.944-.475 1.533-2.792 1.12.08 1.686-1.524 1.33-.323 1.345 1.22 2.288-2.186 2.776-1.005 1.96.574 2.14-3.403 2.605-.91.445-3.317.68-1.426.258.289 16.229.156 16.228.157 16.229.158 10.817.104 16.23.156Z" class="imapsPolygon"/>
                          </g>
                        </g>
                      </g>
                      <g id="id-388" fill="#a8a8a8" stroke="#eee" stroke-opacity="1" stroke-width="1.001" class="imapsSprite-group imapsContainer-group imapsMapObject-group imapsMapPolygon-group">
                        <g class="imapsContainer imapsMapObject imapsMapPolygon">
                          <g class="imapsSprite-group imapsPolygon-group">
                            <path d="m551.382 76.111-10.45-.002h-13.934l-13.932-.002h-10.45l-17.416-.002h-45.281l-.063-12.366-.103-20.9-.105-21.284-.07-12.943h101.797l1.46 7.088-.239 3.268.271 8.174 1.772 5.543.29 2.345 1.932 5.157.605 13.537.721 1.191-.248 5.929.834 3.814 1.696 3.16.848 4.082Z" class="imapsPolygon"/>
                          </g>
                        </g>
                      </g>
                      <g stroke="#eee" class="imapsSprite-group imapsContainer-group imapsMapObject-group imapsMapPolygon-group">
                        <g class="imapsContainer imapsMapObject imapsMapPolygon">
                          <g class="imapsSprite-group imapsPolygon-group">
                            <path d="M580.366 255.015H469.798l-.044-14.115-.045-14.256-.032-10.79-.054-18.176h78.349l21.5-.008 3.444 2.523 1.976-.37 1.357 2.128-2.723 3.585.262 1.713 2.626 3.209 1.562 2.883 2.324 1.34.01 18.2Z" class="imapsPolygon"/>
                          </g>
                        </g>
                      </g>
                      <g fill="#a8a8a8" stroke="#eee" class="imapsSprite-group imapsContainer-group imapsMapObject-group imapsMapPolygon-group">
                        <g class="imapsContainer imapsMapObject imapsMapPolygon">
                          <g class="imapsSprite-group imapsPolygon-group">
                            <path d="m682.128 148.027.218 5.785 1.537 2.56 1.385 4.528 1.21 2.636-.065 17.24-.042 11.801-.068 17.268-1.17 1.614-.54 2.367 1.749 5.003.011 3.197-1.59 3.823-2.216 2.359-.645 1.595-2.29 1.644-.929 5.939-.79 1.156.798 1.643-1.3 1.688.32 3.119-1.24 1.313-4.55 1.888.62 3.499-.275 1.682-2.124-.406-3.87-1.415-2.596.049-1.322 1.51-.295 2.066-1.766-1.644-2.117-.422-1.329-3.719.613-2.513-.92-3.968-1.493-1.942-2.986-2.59-5.244-3.509-1.873-1.993-1.122-2.584.858-2.825 2.838-7.175-1.395-1.248-3.856-.973-1.482.74-1.291-1.495-1.102-3.743-2.725-3.96-4.343-4.187-2.524-2.847-1.317-3.768-.494-5.532.866-3.01.762-.347-.047-2.742.823-1.325 1.853-.896 1.69-1.978 2.216-5.257-1.917-5.256.508-1.77 1.636-1.124 5.263-1.379 2.243-1.312 3.274-5.06.975-3.382-.224-2.392-2.677-2.312-2.066-3.404-2.48-2.628 13.603.105 13.466.102Z" class="imapsPolygon"/>
                          </g>
                        </g>
                      </g>
                      <g stroke="#eee" class="imapsSprite-group imapsContainer-group imapsMapObject-group imapsMapPolygon-group">
                        <g class="imapsContainer imapsMapObject imapsMapPolygon">
                          <g class="imapsSprite-group imapsPolygon-group">
                            <path d="m785.891 345.28-.762 1.492-2.84 1.168.722 1.146-1.987 1.922.337 3.036-1.789 2.806.098 1.878-2.463 3.069-1.005 3.723.247 2.497-2.534-.152-3.92-1.381-1.537 1.524.247 2.991-.598 2.694-1.981.193-.682-2.988-16.685-1.136-9.532-.648-13.316-.915-1.845-4.89-.899-2.024-.378-3.115.565-4.85-1.045-3.588.009-1.825 1.338-4.705 1.57-1.754-.842-2.022-.435-2.927-2.114-4.94-.664-2.706-2.766-16.021-3.554-20.85 19.422.233 18.088-.245-3.017 3.57-.582 1.771 4.528 3.59 3.066 1.34.435 1.283 3.427 6.3 4.976 4.834.723 1.538 3.027 2.526 1.09 2.384 3.495 4.706 1.809 1.037 1.323 2.371.836 3.694.85 2.14 1.294.893 1.778 3.139.544 3.505.902 1.277Z" class="imapsPolygon"/>
                          </g>
                        </g>
                      </g>
                      <g stroke="#eee" class="imapsSprite-group imapsContainer-group imapsMapObject-group imapsMapPolygon-group">
                        <g class="imapsContainer imapsMapObject imapsMapPolygon">
                          <g class="imapsSprite-group imapsPolygon-group">
                            <path d="m639.686 147.707 2.481 2.628 2.066 3.404 2.677 2.312.224 2.392-.975 3.382-3.274 5.06-2.243 1.312-5.263 1.379-1.636 1.124-.508 1.77 1.917 5.256-2.216 5.257-1.69 1.978-1.853.896-.823 1.325.047 2.742-.762.347-3.59-3.388-.742-1.434-11.312.09-15.089.111-22.631.172-11.276.078-1.405-2.825.375-2.854-.743-7.894-.739-2.747-1.877-2.403-.153-3.774-1.278-4.634-2.109-3.375-.909-2.57-.412-3.187-1.454-1.893-.864-2.994-1.243-1.444 2.38-7.546-1.387-2.714.207-2.916-.853-2.555 2.167-.074 9.728-.002 19.45-.004 14.587-.002 19.45-.005 14.663-.014.395 2.21 1.517 1.318-.658 4.694.196 2.376 1.177 4.032 1.637 1.391 2.562.883 1.508 1.352Z" class="imapsPolygon"/>
                          </g>
                        </g>
                      </g>
                      <g stroke="#eee" class="imapsSprite-group imapsContainer-group imapsMapObject-group imapsMapPolygon-group">
                        <g class="imapsContainer imapsMapObject imapsMapPolygon">
                          <g class="imapsSprite-group imapsPolygon-group">
                            <path d="m656.578 377.363-1.01.46-5.469-1.779-1.36-1.43-2.693-.484-1.596 1.76-1.212 2.378 3.555 1.92 2.708-.52 1.498-1.15 2.342-.799 1.082.95-2.246 1.897 1.067 1.335 2.308.256 1.422-2.47 2.043 2.368.049 1.738-2.635.829-2.844 2.63.69 1.386 2.409 2.038 4.007 1.49.972-.043.955 1.5 1.51.776-2.089 3.188-1.206-1.103-1.756.187-1.338-2.123-2.65-1.854-2.573-.528-1.268-2.142-4.215-1.359 1.596 1.816-.731 4.28-1.667 1.316-1.328-2.584-1.162-.672-3.094.403-1.365 2.069-1.099.339-3.763-1.072-4.297-1.635 2.012-1.06-2.622-2.794-2.741-.719-2.367-3.282-2.271-.08-1.028-1.47-1.857.616-1.767 1.736.77 1.836-2.643.617-6.138-.69-4.205-2.016-3.336-1.116-7.764.157-1.968.771-.858-1.462 1.657-1.793-.313-1.09 1.246-2.343-.593-4.015.45-3.701 2.109-4.618.726-3.877-.406-2.344-1.615-2.487-1.074-3.35-1.24-1.583-.093-2.57-1.171-2.23-2.068-2.153.031-17.957 10.745-.014 18.807-.027 13.68-.028.804 1.394-.595 2.293.623 2.037-.719.592.577 3.025 2.378 2.83-.044 1.602-2.11 2.401-1.013 2.355-1.943 1.527-1.285 1.941-.63 2.35-1.71 3.355v1.814l-1.523 2.233.515 1.882-.899 1.887 10.764.01h17.96l-1.493 4.71.229 2.081 2.006 2.576 1.407 4.153Zm-33.983 11.928-3.028-1.246 1.808-1.165 1.608.967Z" class="imapsPolygon"/>
                          </g>
                        </g>
                      </g>
                      <g stroke="#eee" class="imapsSprite-group imapsContainer-group imapsMapObject-group imapsMapPolygon-group">
                        <g class="imapsContainer imapsMapObject imapsMapPolygon">
                          <g class="imapsSprite-group imapsPolygon-group">
                            <path d="m759.868 227.653.515 3.358-.616 1.714.46 1.563 4.615 7.82 2.642 2.2 2.064.582-5.647 4.57-5.061 2.982-.752 1.69-2.432 2.65-2.232 1.138-1.59 1.552-7.737 2.933-.939.339-20.762-.725-20.761-.729-19.91.39-.443-.578-3.403-.336.557 3.6-20.804-.005.792-1.634 2.907-.702.698-1.682.506-3.659-.476-1.506.295-2.066 1.322-1.51 2.595-.049 3.871 1.415 2.124.406.275-1.682-.62-3.499 4.55-1.888 1.24-1.313-.32-3.119 1.3-1.688 1.936-.547.097-1.595 2.863.044 1.72-.89 3.394.439 3.461 2.238 2.566-2.515 2.977-.413 1.452 1.342 1.862-.53.43-1.856 1.35-2.372 2.18.186 1.14 1.774 1.555.847 2.129-.42 1.59-3.82.994-1.336 2.123-1.183 1.495-2.61 1.817-2.152-.298-1.657 2.065-1.035 2.044.897 4.018-1.518 1.502-.956-.798-1.795.486-3.446 1.716-.711 2.962.5 2.254 1.022 1.955 3.551 1.706 1.282 2.464.465 3.866 2.387 2.265-.963 2.712 1.388 2.295-.218 3.042-1.44 1.788.07 1.827 3.239Z" class="imapsPolygon"/>
                          </g>
                        </g>
                      </g>
                      <g stroke="#eee" class="imapsSprite-group imapsContainer-group imapsMapObject-group imapsMapPolygon-group">
                        <g class="imapsContainer imapsMapObject imapsMapPolygon">
                          <g class="imapsSprite-group imapsPolygon-group">
                            <path d="m975.562 110.247-3.357.796.033-1.463 1.644-1.927Zm-38.067 26.11-1.434-3.463-1.894-3.09-1.019-21.368-.909-18.457 1.86-.831 1.844.478.564-2.002 1.637-.503-.187-2.625 1.582-1.98 2.623-2.016 1.864-3.602-.123-3.253.84-4.18 2.709-4.119.89-5.825 11.435-16.558 2.88.8.025 3.38 3.29 1.545 5.206-1.814 2.534-1.516 3.201 1.758 4.336 4.224.163 12.762.168 17.178 2.826 1.735 2.437.376-.912 2.754.982 2.047-.667 2.172 1.58 2.167 1.755-.57 1.866.661.664 3.82-.394 2.2 1.789 1.208-3.052 3.204-2.585-.45-2.87 1.098-1.45 1.728-2.784-.292-1.015 2.571-2.236 1.453-.907-2.228-2.394-.35-1.442 1.305-1.15-1.31-1.056 2.667-1.357 1.459-2.718-1.49-.798-2.162-1.706 1.07.079 1.796-1.607 3.67-.072 1.559-2.358 2.309-1.772-.3-2.038 1.99-3.723 1.102-.923.97-2.597-1.035-3.192 1.838-1.352 1.955.996.944-4.756 5.717-1.82 4.401Z" class="imapsPolygon"/>
                          </g>
                        </g>
                      </g>
                      <g stroke="#eee" class="imapsSprite-group imapsContainer-group imapsMapObject-group imapsMapPolygon-group">
                        <g class="imapsContainer imapsMapObject imapsMapPolygon">
                          <g class="imapsSprite-group imapsPolygon-group">
                            <path d="m676.727 292.016 1.324 1.204-.892 8.3-1.825 16.66-1.095 9.912-2.19 19.639.626 13.168.67 13.377-4.375.27-3.186-1.038-4.762 1.435-1.45-.224-1.837 2.116-1.157.528-1.059-.526-1.407-4.153-2.006-2.576-.23-2.08 1.495-4.711h-17.96l-10.765-.01.899-1.887-.515-1.882 1.523-2.233v-1.814l1.71-3.355.63-2.35 1.285-1.94 1.943-1.528 1.013-2.355 2.11-2.4.044-1.603-2.378-2.83-.577-3.025.72-.592-.624-2.037.595-2.293-.803-1.394.644-3.606-.844-1.37.333-2.578-1.1-2.598.106-1.658 2.313-2.732-.26-2.642 1.901-1.001.497-2.87 1.384-1.148 1.484-2.524 1.235-.404.768-1.628.67-4.08 1.842-2.246 1.437-.867.39-1.86 15.732.02Z" class="imapsPolygon"/>
                          </g>
                        </g>
                      </g>
                      <g stroke="#eee" class="imapsSprite-group imapsContainer-group imapsMapObject-group imapsMapPolygon-group">
                        <g class="imapsContainer imapsMapObject imapsMapPolygon">
                          <g class="imapsSprite-group imapsPolygon-group">
                            <path d="m653.83 273.604.015 1.745-1.135 1.869-1.72 1.017-.73 1.313-.358 3.233-1.476 1.639-.625 1.832.224 2.025-.738 1.635-2.266 2.066-.39 1.859-1.437.867-1.842 2.247-.67 4.079-.768 1.628-1.235.404-1.484 2.524-1.384 1.148-.497 2.87-1.901 1 .26 2.643-2.313 2.732-.107 1.658 1.101 2.598-.333 2.578.844 1.37-.644 3.606-13.681.028-18.807.027-10.745.014-.09-9.703-3.698-.592-1.244.384-1.59-1.48.464-21.62.21-9.934-2.679-20.569h66.628l1.311 2.4-.018 1.393-3.398 3.658-1.168 1.97Z" class="imapsPolygon"/>
                          </g>
                        </g>
                      </g>
                      <g stroke="#eee" class="imapsSprite-group imapsContainer-group imapsMapObject-group imapsMapPolygon-group">
                        <g class="imapsContainer imapsMapObject imapsMapPolygon">
                          <g class="imapsSprite-group imapsPolygon-group">
                            <path d="m714.85 291.981 3.555 20.85 2.766 16.022.664 2.706 2.114 4.94.435 2.927.842 2.022-1.57 1.754-1.338 4.705-.01 1.825 1.046 3.587-.565 4.851.378 3.115.899 2.023-14.496.012-9.671.002-14.505.002-.11 2.444.52 1.132 2.163 2.157-.117 3.365-.9 1.736-1.983 1.957-2.513-.469-.997-2.001-1.008-.734-.365-3.08-1.25-.943-1.541 5.462-3.948-.074-.67-13.377-.626-13.168 2.19-19.64 1.095-9.91 1.825-16.662.892-8.299-1.324-1.204-.255-.473 11.993.137 9.596.11Z" class="imapsPolygon"/>
                          </g>
                        </g>
                      </g>
                      <g stroke="#eee" class="imapsSprite-group imapsContainer-group imapsMapObject-group imapsMapPolygon-group">
                        <g class="imapsContainer imapsMapObject imapsMapPolygon">
                          <g class="imapsSprite-group imapsPolygon-group">
                            <path d="m806.746 203.099-.154 9.914 2.907-1.942 3.264-3.183 1.552.434 2.342-2.258 4.77.712 1.33-1.834 3.373-1.122 4.456 1.456 1.27 1.814 1.07 3.306-1.631 3.885-7.275-5.926-1.688 5.625-2.187 3.116-2.621 1.746-1.673 1.734-2.58.541-2.975 5.993-2.328.424-1.628-.706-1.39-1.639-1.061.628-.697 2.68-2.802 4.253-1.032 2.558-3.237 4.207-1.451 2.783.59 1.062-1.05 2.095-2.22 1.451-.643-.684-3.174 1.28-1.515-.415-1.833 2.28-4.239.727-1.836-1.325-3.213 2.328-1.434-.225-2.518-1.443-1.253-1.324-.784-3.215-2.064-.583-2.642-2.2-4.615-7.819-.46-1.563.616-1.714-.515-3.358 1.723.635 1.652-.364 3.097-3.892-.352-2.502 1.962-3.741 4.405-.19-.374-2.178 2.177-3.587 3.25-2.332 1.592.577 2.903-1.804 2.629-2.232 1.33-1.806.034-1.385 3.047-8.775.993-3.5-.856-3.913 2.094-1.652-.006 18.093Z" class="imapsPolygon"/>
                          </g>
                        </g>
                      </g>
                      <g stroke="#eee" class="imapsSprite-group imapsContainer-group imapsMapObject-group imapsMapPolygon-group">
                        <g class="imapsContainer imapsMapObject imapsMapPolygon">
                          <g class="imapsSprite-group imapsPolygon-group">
                            <path d="m791.174 185.012-2.094 1.652.856 3.913-.993 3.5-3.047 8.775-.035 1.385-1.329 1.806-2.629 2.232L779 210.08l-1.591-.577-3.25 2.332-2.178 3.587.374 2.177-4.405.19-1.962 3.742.352 2.502-3.097 3.892-1.652.364-1.723-.635-2.175-1.775-1.827-3.239-1.788-.07-3.042 1.44-2.295.218-2.712-1.388-2.265.963-3.866-2.387-2.464-.465-1.706-1.282-1.955-3.551-2.254-1.021-2.962-.501-1.716.71.125-19.06.154-19.213.104-12.97 9.958-.378 10.104-.505 8.127 4.15 1.196-.83 4.581 3.448 6.026-1.716 5.955-.357 4.127-3.209 3.267-1.983 5.374-2.464 5.217-1.938v12.173Z" class="imapsPolygon"/>
                          </g>
                        </g>
                      </g>
                      <g stroke="#eee" class="imapsSprite-group imapsContainer-group imapsMapObject-group imapsMapPolygon-group">
                        <g class="imapsContainer imapsMapObject imapsMapPolygon">
                          <g class="imapsSprite-group imapsPolygon-group">
                            <path d="m820.402 312.365-4.143 2.744-1.181 1.175-3.257 4.535-.831 2.894-1.23 1.944-2.15 1.656-2.5.743-.418 1.633-4.166 3.215-1.915 1.932-3.11.77-1.992 1.343-3.13-.585 1.463 1.967-.169 1.256-1.832 1.045-.583-1.826-1.767 1.727 1.063 1.459-2.316 1.8-.347 1.487-3.026-1.411-.902-1.277-.544-3.505-1.778-3.139-1.295-.893-.849-2.14-.836-3.694-1.323-2.371-1.81-1.037-3.494-4.706-1.09-2.384-3.027-2.526-.723-1.538-4.976-4.834-3.427-6.3-.435-1.283-3.066-1.34-4.528-3.59.582-1.77 3.017-3.57 11.346-3.658 18.97.84.63 1.647 1.666-.877 2.105 2.754.133 2.446 16.905.58 10.094 10.355Z" class="imapsPolygon"/>
                          </g>
                        </g>
                      </g>
                      <g stroke="#eee" class="imapsSprite-group imapsContainer-group imapsMapObject-group imapsMapPolygon-group">
                        <g class="imapsContainer imapsMapObject imapsMapPolygon">
                          <g class="imapsSprite-group imapsPolygon-group">
                            <path d="m878.196 170.937-2.13 1.766-1.059 2.254-3.149 3.098.716 2.266-1.49 2.154-.214 3.542 1.368 1.037 5.422 7.626-5.074 3.341-1.475 1.73-3.711 1.546-3.191-.469-2.248 2.278H848.16l-20.706-.003-20.707-.004-15.578.006.006-18.093-.018-14.559V158.28l2.776-1.03 8.547-4.737v5.541l16.492.013 20.613.014 16.49.014 12.368.01 1.682 2.133 1.75.779 1.484 6.02 1.304 1.565 2.673 1.008Z" class="imapsPolygon"/>
                          </g>
                        </g>
                      </g>
                      <g stroke="#eee" class="imapsSprite-group imapsContainer-group imapsMapObject-group imapsMapPolygon-group">
                        <g class="imapsContainer imapsMapObject imapsMapPolygon">
                          <g class="imapsSprite-group imapsPolygon-group">
                            <path d="m744.097 262.405 10.643.055 15.001.077.706-.384 3.684.151-.679 1.426-.445 3.316-2.605.911-2.14 3.403-1.96-.574-2.776 1.005-2.288 2.186-1.344-1.22-1.33.323-1.687 1.523-1.12-.08-1.533 2.793-1.944.475-2.45 1.706-3.393 1.8-3.164.446-2.222.826-1.98 1.85-.876 2.35-2.543.464-.818 1.095-.56 3.887-19.423-.234-16.79-.191-9.596-.11-11.993-.137.255.473-15.974-.018-15.732-.02 2.266-2.066.738-1.635-.224-2.025.625-1.832 1.476-1.64.357-3.232.731-1.313 1.72-1.017 1.135-1.869-.015-1.745.94-1.905-.489-2.15 1.195-.72.588-2.106-.03-2.383 1.048-.037.55.058 20.804.005-.557-3.6 3.403.336.442.578 19.91-.39 20.762.729 20.762.725Z" class="imapsPolygon"/>
                          </g>
                        </g>
                      </g>
                      <g stroke="#eee" class="imapsSprite-group imapsContainer-group imapsMapObject-group imapsMapPolygon-group">
                        <g class="imapsContainer imapsMapObject imapsMapPolygon">
                          <g class="imapsSprite-group imapsPolygon-group">
                            <path d="m727.224 164.062-.104 12.97-.154 19.212-.125 19.062-.486 3.446.798 1.795-1.502.956-4.018 1.518-2.044-.897-2.065 1.035.298 1.657-1.817 2.153-1.495 2.609-2.123 1.183-.995 1.337-1.59 3.82-2.128.419-1.555-.847-1.14-1.774-2.18-.186-1.35 2.372-.43 1.855-1.862.53-1.452-1.341-2.977.413-2.566 2.515-3.461-2.238-3.394-.438-1.72.889-2.863-.044-.097 1.595-1.936.547-.797-1.643.79-1.156.928-5.94 2.29-1.643.645-1.595 2.216-2.359 1.59-3.823-.011-3.197-1.748-5.003.54-2.367 1.169-1.614.068-17.268.042-11.8.065-17.241 1.625 1.427 2.382.376 2.7-.636 3.139-1.825 12.767.008 18.128.01Z" class="imapsPolygon"/>
                          </g>
                        </g>
                      </g>
                      <g stroke="#eee" class="imapsSprite-group imapsContainer-group imapsMapObject-group imapsMapPolygon-group">
                        <g class="imapsContainer imapsMapObject imapsMapPolygon">
                          <g class="imapsSprite-group imapsPolygon-group">
                            <path d="m861.961 203.106 1.162 24.415 10.01-.01-1.444 1.361-.385 2.464-.98.242-2.249 4.13-3.65.49-.586.858-2.864-.332.83-2.185-1.985-1.572.959-1.749-2.802-.35-2.399-1.557-1.242-2.546.457-2.014 3.098-.405-1.764-1.64-1.076-2.22 1.178-.578-1.01-6.522 1.236-2.383 2.965-2.797-.062-2.431-1.555.463-.513 2.48-2.679 2.136-1.932.363-.229 1.524-2.287-.565 2.3 3.479-1.487 3.377-.259 2.988.531 4.028 1.268 2.137-.333 1.122 1.583 4.202-3.9-1.665-4.425-1.214-2.796-2.855-2.331.65-.133-1.662 3.337-5.416-.18-2.142 1.482.021-1.656-2.374-1.198 1.314-2.676-2.117-2.689-1.148.03-2.079-3.705-2.426-1.07-3.306-1.27-1.814-4.456-1.456-3.373 1.122-1.33 1.834-4.77-.712-2.342 2.258-1.552-.434-3.264 3.183-2.907 1.942.154-9.914 20.707.004 20.706.003Z" class="imapsPolygon"/>
                          </g>
                        </g>
                      </g>
                      <g stroke="#eee" class="imapsSprite-group imapsContainer-group imapsMapObject-group imapsMapPolygon-group">
                        <g class="imapsContainer imapsMapObject imapsMapPolygon">
                          <g class="imapsSprite-group imapsPolygon-group">
                            <path d="m940.832 170.557-4.118.976 1.67-2.414Zm-4.429-30.249-.343 1.046 1.396 3.179 1.111 1.07-2.539 1.3-3.215 4.488 4.604 2.066 2.832 5.848.512 2.717 3.277 1.49 4.397-1.95.895.368-.105 2.62-1.658-.005-5.162 1.012-3.774 1.851-.659-3.612-4.082 3.327-3.204.64-.678-3.8-1.6-1.833-.692-4.398-6.185.1-.014-.218-15.042-.23-10.06-.43-.399-.494 3.797-13.616 11.76.448 17.003.565 5.316-3.445Z" class="imapsPolygon"/>
                          </g>
                        </g>
                      </g>
                      <g stroke="#eee" class="imapsSprite-group imapsContainer-group imapsMapObject-group imapsMapPolygon-group">
                        <g class="imapsContainer imapsMapObject imapsMapPolygon">
                          <g class="imapsSprite-group imapsPolygon-group">
                            <path d="m937.495 136.358-1.092 3.95-2.511.104-5.316 3.445-17.003-.565-1.241-3.188 1.137-3.102.996-6.018.33-4.06 1.32-3.836 2.718-5.195 1.253-6.983 5.207-3.13 1.713-3.299-.781-3.457 1.65-2.875-.108-2.096 1.472-4.084 1.371-1.907 1.88.633 1.75-.716.908 18.457 1.019 21.367 1.894 3.09Z" class="imapsPolygon"/>
                          </g>
                        </g>
                      </g>
                      <g stroke="#eee" class="imapsSprite-group imapsContainer-group imapsMapObject-group imapsMapPolygon-group">
                        <g class="imapsContainer imapsMapObject imapsMapPolygon">
                          <g class="imapsSprite-group imapsPolygon-group">
                            <path d="m911.573 143.292-11.76-.448-.198-2.293.292-14.118-2.488-1.545.562-2.779-.736-5.73.23-1.937 1.325-2.868.17-3.99-.932-2.889.351-3.741-.054-4.856 14.987-.026 12.445-.019.109 2.096-1.651 2.875.78 3.457-1.712 3.3-5.207 3.129-1.253 6.983-2.717 5.195-1.32 3.835-.33 4.06-.997 6.02-1.137 3.1Z" class="imapsPolygon"/>
                          </g>
                        </g>
                      </g>
                      <g stroke="#eee" class="imapsSprite-group imapsContainer-group imapsMapObject-group imapsMapPolygon-group">
                        <g class="imapsContainer imapsMapObject imapsMapPolygon">
                          <g class="imapsSprite-group imapsPolygon-group">
                            <path d="m889.992 178.188-1.727 4.666-3.005 2.924-.223 2.985 2.866.52 1.379 1.993-1.057 4.997-1.335 2.634-.877 4.118-3.195 4.652-.583 1.93-2.602 1.829-2.864 5.605-2.39.998.855-3.762-2.289-1.264-1.284.058-3.25-2.547-2.555-2.911.01-2.166 1.522-3.65 4.01-1.573 1.188-2.203 5.074-3.341-5.422-7.626-1.368-1.037.214-3.542 1.49-2.154-.716-2.266 3.15-3.098 1.058-2.254 2.13-1.766Z" class="imapsPolygon"/>
                          </g>
                        </g>
                      </g>
                      <g stroke="#eee" class="imapsSprite-group imapsContainer-group imapsMapObject-group imapsMapPolygon-group">
                        <g class="imapsContainer imapsMapObject imapsMapPolygon">
                          <g class="imapsSprite-group imapsPolygon-group">
                            <path d="m921.53 157.831.075 9.863-.696 3.677-1.31-.11-5.012.982-1.584-.408-1.619.725-5.5.197-1.16-.382-1.478 1.364-2.37.807-6.705 3.65-1.381-2.233 3.57-2.274-.904-1.531.958-15.205 10.061.431 15.042.23Z" class="imapsPolygon"/>
                          </g>
                        </g>
                      </g>
                      <g stroke="#eee" class="imapsSprite-group imapsContainer-group imapsMapObject-group imapsMapPolygon-group">
                        <g class="imapsContainer imapsMapObject imapsMapPolygon">
                          <g class="imapsSprite-group imapsPolygon-group">
                            <path d="m867.4 201.297-2.49 3.397.206 3.175 2.41 3.781.304 3.642 3.1 5.255 1.441.804-.596 2.778 1.359 3.382-10.01.01-1.163-24.415 2.248-2.278Z" class="imapsPolygon"/>
                          </g>
                        </g>
                      </g>
                      <g stroke="#eee" class="imapsSprite-group imapsContainer-group imapsMapObject-group imapsMapPolygon-group">
                        <g class="imapsContainer imapsMapObject imapsMapPolygon">
                          <g class="imapsSprite-group imapsPolygon-group">
                            <path d="m930.008 163.962-1.445-1.116-1.436 2.581-.258 3.59-1.183 1.488-4.777.866.696-3.677-.074-9.863 6.185-.099.693 4.398Z" class="imapsPolygon"/>
                          </g>
                        </g>
                      </g>
                      <g stroke="#eee" class="imapsSprite-group imapsContainer-group imapsMapObject-group imapsMapPolygon-group">
                        <g class="imapsContainer imapsMapObject imapsMapPolygon">
                          <g class="imapsSprite-group imapsPolygon-group">
                            <path d="m843.339 219.205-1.373-1.04 1.198-1.313 1.656 2.374Z" class="imapsPolygon"/>
                          </g>
                        </g>
                      </g>
                    </g>
                  </g>
                </g>
              </g>
            </g>
          </g>
        </g>
      </g>
    </g>
  </g>
</svg>
