<?xml version="1.0" encoding="UTF-8" standalone="no"?>
<!DOCTYPE svg PUBLIC "-//W3C//DTD SVG 1.1//EN" "http://www.w3.org/Graphics/SVG/1.1/DTD/svg11.dtd">
<svg width="100%" height="100%" viewBox="0 0 1000 650" version="1.1" xmlns="http://www.w3.org/2000/svg" xmlns:xlink="http://www.w3.org/1999/xlink" xml:space="preserve" xmlns:serif="http://www.serif.com/" style="fill-rule:evenodd;clip-rule:evenodd;">
    <style>
        *:hover {
          fill-opacity:1;
        }
    </style>
    <g transform="matrix(1,0,0,1,-60,24.6842)">
        <g>
            <g>
                <g>
                    <g>
                        <g>
                            <g transform="matrix(1,0,0,1,0.5525,0.6186)">
                                <g>
                                    <g transform="matrix(0.999013,0,0,0.999013,0,0)">
                                        <g>
                                            <g>
                                                <g>
                                                    <g>
                                                        <path d="M126.494,-0L163.875,-0.619L201.255,-0L238.635,-0.619L276.015,-0L313.396,-0.619L350.776,-0L388.156,-0.619L425.536,-0L462.917,-0.619L500.297,-0L537.677,-0.619L575.058,-0L612.438,-0.619L649.818,-0L687.198,-0.619L724.579,-0L761.959,-0.619L799.339,-0L836.719,-0.619L874.1,-0L911.48,-0.619L948.86,-0L993.506,-0L993.506,627L126.494,627L126.494,-0Z" style="fill:white;fill-opacity:0;fill-rule:nonzero;stroke:white;stroke-opacity:0;stroke-width:1px;"/>
                                                    </g>
                                                </g>
                                            </g>
                                        </g>
                                    </g>
                                    <g transform="matrix(1,0,0,1,346.791,42.096)">
                                        <g opacity="0">
                                            <circle cx="0" cy="0" r="10"/>
                                        </g>
                                    </g>
                                    <g transform="matrix(0.999013,0,0,0.999013,0,0)">
                                        <g>
                                            <g>
                                                <g>
                                                    <g>
                                                        <path d="M354.426,574.747L355.199,576.655L356.266,580.908L356.219,584.898L355.583,585.486L354.369,582.828L354.173,581.467L352.524,579.906L353.213,577.915L351.621,575.8L350.117,575.082L352.442,572.959L354.426,574.747ZM134.938,624.978L135.759,625.937L134,627L133.455,625.631L134.938,624.978ZM359.595,579.684L360.919,581.561L360.303,582.219L359.804,586.562L358.541,587.044L358.509,583.837L357.569,579.746L358.783,578.836L359.595,579.684ZM180.44,612.09L178.824,613.037L177.586,614.758L176.055,614.742L176.882,612.882L177.949,612.871L178.734,610.711L180.326,610.196L181.282,610.846L180.44,612.09ZM365.538,598.093L364.166,597.399L363.488,595.503L364.3,595.143L365.538,598.093ZM366.148,582.762L365.178,582.774L365.644,580.17L367.092,582.278L366.148,582.762ZM190.084,543.669L192.224,544.411L192.315,547.018L192.951,548.675L191.079,548.918L189.809,550.141L184.793,547.665L183.224,545.557L186.388,545.449L188.29,543.676L190.084,543.669ZM128.157,626.831L126.494,624.843L127.764,624.535L128.73,625.738L128.157,626.831ZM365.973,585.425L364.628,584.531L365.329,583.451L366.752,584.078L365.973,585.425ZM322.615,426.126L322.615,544.561L325.13,545.433L325.513,544.566L328.041,545.807L329.608,544.26L332.756,544.095L332.196,546.87L334.726,548.797L335.112,550.095L340.592,555.855L341.407,559.185L344.705,556.643L345.942,556.619L346.533,555.299L346.534,553.439L347.295,551.914L349.339,551.309L351.757,549.936L353.997,552.188L353.89,553.62L354.563,555.213L357.217,557.31L358.388,559.729L360.486,561.209L362.699,564.195L363.361,566.092L368.864,576.245L368.304,577.407L369.921,577.921L369.535,579.57L370.792,580.189L371.012,582.142L372.326,582.059L374.921,583.92L376.721,584.531L378.117,585.582L378.454,586.612L380.511,587.636L379.861,591.029L380.441,594.36L379.503,596.88L378.031,598.649L376.153,598.892L375.108,595.663L376.118,593.829L375.788,590.266L374.686,588.15L373.844,587.658L371.224,588.94L370.774,591.098L369.457,591.824L368.908,590.405L370.909,586.254L369.97,584.157L369.127,583.768L367.518,580.443L365.857,579.197L365.792,577.784L362.358,576.501L362.51,574.889L361.89,571.358L359.375,567.602L359.206,566.209L355.447,563.76L354.453,560.831L352.504,559.118L354.004,565.245L352.672,565.759L351.251,564.184L349.659,564.364L349.723,562.512L348.754,560.35L345.997,560.38L348.451,563.229L348.31,564.806L346.555,565.032L345.921,565.866L343.34,564.353L340.852,562.469L338.304,558.791L336.588,557.291L331.376,554.305L328.959,552.528L330.47,550.937L330.109,549.016L326.757,550.639L323.454,550.405L319.092,548.072L314.46,546.841L312.367,546.727L307.837,547.618L305.052,545.728L303.417,545.368L302.055,544.187L301.619,542.02L300.224,543.704L296.794,542.651L297.976,540.79L295.476,540.685L294.937,539.731L292.895,538.118L293.189,535.599L291.093,537.241L289.296,537.811L287.864,537.223L286.289,538.199L284.614,536.671L283.9,538.595L284.152,542.075L284.756,543.566L284.674,545.973L283.444,547.87L281.271,548.269L279.801,547.4L278.163,547.745L276.316,550.389L274.124,552.314L272.102,552.337L271.597,553.772L270.103,555.673L267.964,555.656L266.004,556.245L264.812,555.245L265.413,553.986L267.789,552.84L268.897,551.572L265.867,550.918L265.396,550.056L266.023,547.878L267.514,545.602L268.246,542.779L268.198,539.795L272.841,536.743L275.181,537.706L277.318,537.067L275.338,535.666L275.458,533.77L272.681,534.148L271.94,533.694L269.105,536.059L266.024,537.972L265.939,539.667L263.194,542.116L263.249,543.391L261.174,545.218L261.143,547.784L260.618,548.59L258.791,549.075L259.096,550.604L257.164,550.496L255.056,553.285L253.61,554.435L253.391,556.955L255.888,557.791L257.585,559.647L256.093,561.72L253.97,563.364L252.774,566.728L250.992,567.768L248.767,568.164L247.153,570.246L245.691,570.975L244.7,572.614L243.529,572.842L241.008,574.978L241.025,577.156L237.523,579.862L236.198,580.024L235.207,581.715L233.674,581.614L233.098,582.594L230.799,583.623L231.53,585.911L228.819,587.895L224.951,589.567L222.635,589.71L219.997,591.938L217.708,592.35L216.639,593.357L213.254,593.491L211.5,595.831L210.135,596.658L208.652,596.462L207.328,597.539L205.147,595.995L207.11,595.312L211.062,590.42L213.487,588.651L216.026,587.569L217.947,589.926L218.438,589.148L220.809,589.054L219.595,587.713L220.844,584.787L223.569,582.417L226.217,581.194L227.761,579.537L229.423,580.167L229.498,577.795L231.291,575.273L233.541,573.173L235.053,572.286L234.65,570.874L235.035,567.815L235.921,566.598L235.495,564.089L237.049,561.862L238.39,560.889L237.508,559.444L232.868,561.87L231.388,561.854L230.329,559.725L228.973,558.7L228.441,561.069L228.912,563.087L227.275,563.599L225.821,561.044L224.175,559.103L222.858,560.035L220.522,557.662L218.128,559.506L216.025,560.229L215.259,561.571L213.179,562.156L213.004,558.021L211.989,556.683L211.768,555.258L212.793,552.085L211.162,547.966L210.612,545.861L209.668,544.735L208.881,547.862L205.461,549.387L201.835,549.795L200.591,548.845L200.651,547.816L198.863,546.169L197.852,544.521L195.75,543.359L195.93,542.411L194.205,541.976L197.098,538.177L199.393,539.222L199.944,539.994L201.898,539.772L202.768,541.448L204.398,539.638L202.668,537.33L201.373,538.473L199.015,538.416L195.146,537.374L195.664,535.968L193.087,535.879L192.424,533.708L191.292,532.561L191.868,531.591L190.268,529.88L190.382,528.113L192.84,527.37L192.342,524.763L195.045,520.516L197.164,518.794L196.886,516.742L197.771,514.191L199.187,511.908L200.778,511.361L202.735,512.171L204.725,513.894L206.288,513.495L208.613,511.312L210.4,508.196L212.026,509.101L214.498,508.92L216.638,507.854L218.33,504.736L217.228,499.507L215.129,497.197L217.523,495.486L217.759,492.805L216.179,491.202L214.704,492.811L213.16,492.547L210.981,494.263L207.635,498.003L207.269,496.258L205.856,497.396L202.858,495.372L199.742,495.426L196.602,496.942L190.044,495.44L188.259,493.641L188.608,491.171L186.437,489.045L187.998,488.307L188.416,487.136L187.29,485.984L183.395,484.919L180.319,483.058L179.785,481.903L182.466,480.609L183.387,479.303L185.134,479.075L186.855,476.802L189.666,475.252L192.255,476.007L191.979,473.296L193.701,472.095L195.733,471.727L197.789,470.169L201.037,469.425L202.527,470.488L201.167,474.658L202.951,476.383L207.215,476.181L208.795,476.815L212.859,476.779L214.227,474.198L216.104,474.607L216.53,473.094L214.293,472.133L212.796,472.611L212.484,470.991L210.883,468.325L209.425,467.755L208.688,465.62L209.984,464.906L211.197,466.873L212.367,470.108L214.046,471.436L216.91,471.242L219.006,472.582L221.215,471.958L221.053,469.937L219.042,469.502L217.88,468.623L215.065,470.21L212.645,468.229L212.53,466.837L213.883,464.472L212.071,463.518L209.825,463.921L206.609,463.822L203.813,462.798L202.817,461.531L201.647,457.653L200.684,455.861L194.036,449.701L191.011,448.136L189.553,446.393L187.768,445.787L188.791,444.28L189.839,438.875L189.695,437.582L193.384,437.843L199.751,436.829L202.04,435.349L203.792,433.366L205.766,430.107L206.123,426.738L206.869,424.487L212.518,415.583L213.794,417.111L217.183,416.011L219.093,413.776L221.819,411.475L222.63,411.843L221.937,415.561L223.2,415.705L223.774,412.442L222.639,410.793L224.12,408.342L226.052,406.863L227.729,408.104L229.709,408.145L230.429,407.468L232.991,407.4L235.063,405.847L237.225,403.373L239.399,399.66L241.051,400.113L244.525,401.811L245.748,402.917L244.562,404.967L242.757,406.063L244.203,407.572L245.748,406.608L247.923,403.274L249.099,403.54L250.524,405.103L249.936,406.608L253.046,408.113L254.507,406.883L258.121,405.988L260.483,406.902L262.032,406.822L263.394,407.963L262.14,410.481L263.71,412.026L265.839,411.972L264.914,413.684L268.71,414.211L271.675,412.771L273.043,413.815L274.365,413.82L275.854,412.773L279.021,412.915L282.086,414.25L283.188,415.801L284.404,415.19L286.403,416.033L287.268,417.383L290.657,418.115L292.333,417.782L297.194,418.276L300.494,420.627L303.544,421.039L304.61,420.158L308.145,419.182L310.93,418.957L313.621,420.239L315.79,422.773L318.941,424.302L320.477,426.087L322.615,426.126ZM161.989,506.876L164.248,507.526L167.435,506.175L169.062,507.144L169.613,508.642L171.687,509.366L172.723,510.338L176.476,510.784L175.756,512.423L173.055,512.424L171.412,514.94L170.877,513.333L168.704,512.129L166.925,509.975L164.109,509.183L162.317,510.447L160.261,509.437L160.497,506.124L161.989,506.876ZM204.108,597.3L204.73,599.552L203.543,600.56L200.957,600.602L198.9,602.37L197.003,602.444L196.663,600.722L198.55,598.218L199.9,598.042L202.04,596.76L204.108,597.3ZM362.881,578.144L364.439,578.429L365.055,579.342L365.028,581.307L363.69,583.347L361.634,583.352L361.222,580.142L359.647,578.085L360.245,577.512L362.881,578.144ZM294.184,542.959L295.585,543.572L293.001,544.843L292.555,543.4L294.184,542.959ZM363.204,592.068L361.384,594.627L361.468,592.11L363.204,592.068ZM145.04,623.532L146.998,621.969L146.316,621.095L147.722,620.203L148.516,620.97L147.976,622.669L145.04,623.532ZM187.553,607.129L188.456,609.36L186.735,610.927L184.715,611.533L182.77,612.7L181.259,612.278L184.806,610.478L185.442,608.945L184.902,607.382L185.64,606.572L187.553,607.129ZM355.952,566.706L358.274,566.883L358.132,569.478L359.873,572.482L359.934,574.892L359.013,575.251L357.244,577.626L356.422,577.284L356.974,573.463L356.06,571.921L355.562,568.372L355.952,566.706ZM375.469,592.578L374.924,594.651L373.14,594.565L371.082,595.056L370.897,593.258L371.945,591.675L372.065,589.362L373.94,588.196L375.538,590.89L375.469,592.578ZM361.827,584.547L363.742,584.732L364.303,586.919L366.09,587.821L367.817,590.724L367.883,592.636L368.95,593.566L368.997,595.045L370.211,595.192L370.187,598.917L369.378,599.766L368.285,597.978L365.96,596.672L364.27,593.78L364.341,591.424L363.24,591.475L362.457,589.69L363.539,588.521L362.012,586.392L361.827,584.547ZM350.414,565.874L351.169,566.854L354.255,567.814L354.646,568.796L354.378,571.068L354.937,572.406L353.819,573.178L351.642,571.684L351.009,573.48L349.465,573.811L348.59,571.562L345.996,568.602L346.292,567.364L350.414,565.874ZM259.887,570.08L261.925,569.806L262.452,571.842L263.481,572.526L261.041,574.809L257.902,575.974L255.166,578.283L254.079,577.695L252.288,578.948L251.445,577.824L250.353,574.903L251.253,572.7L252.591,571.921L255.035,572.343L255.694,571.672L254.58,570.119L255.856,569.741L256.584,571.002L258.293,570.118L259.887,570.08ZM369.493,586.736L369.385,588.31L366.606,587.033L368.085,583.021L369.734,585.453L369.493,586.736ZM287.517,542.949L287.126,545.394L286.394,545.314L286.797,542.849L287.517,542.949ZM287.108,549.727L286.694,548.791L288.532,546.725L290.355,543.889L291.057,545.051L289.309,546.956L288.355,548.916L287.108,549.727ZM262.424,564.707L262.955,564.17L264.715,565.874L264.048,566.711L259.441,568.355L257.339,567.452L261.065,563.792L262.424,564.707Z" style="fill:rgb(168,168,168);fill-rule:nonzero;stroke:rgb(238,238,238);stroke-width:1px;"/>
                                                    </g>
                                                </g>
                                            </g>
                                            <g id="id-338">
                                                <g>
                                                    <g>
                                                        <path d="M542.197,445.798L540.753,442.956L538.737,434.751L539.498,435.072L541.726,443.457L542.197,445.798ZM582.366,316.468L583.956,317.947L585.2,317.563L588.899,318.155L588.988,327.858L588.957,345.815L591.025,347.968L592.196,350.198L592.288,352.768L593.529,354.351L594.603,357.701L596.218,360.188L596.624,362.532L595.898,366.409L593.79,371.027L593.339,374.728L593.932,378.743L592.686,381.085L591.976,381.042L590.409,383.884L591.245,386.046L588.115,386.373L578.389,390.711L581.737,388.478L580.555,388.137L577.97,388.481L578.775,386.634L578.513,385.002L577.163,384.958L576.302,386.261L574.311,385.824L574.761,388.77L576.324,391.526L572.574,395L572.38,396.515L570.564,398.488L561.892,404.01L559.397,404.921L555.584,403.758L552.993,404.792L551.094,402.725L550.132,402.842L551.858,406.589L553.405,407.125L551.302,408.658L549.588,409.097L548.135,407.732L547.637,411.153L546.369,412.215L545.248,411.674L542.41,412.439L543.657,415.121L542.187,416.925L539.156,417.086L538.298,417.64L540.431,420.455L539.06,424.693L538.184,426.225L536.918,426.468L534.551,425.102L534.397,426.917L537.495,427.754L537.637,429.763L536.456,432.291L537.785,436.907L538.733,441.843L542.564,449.091L540.536,449.422L539.394,450.603L538.168,450.264L535.968,448.713L532.765,447.752L528.559,447.379L525.686,446.6L524.144,445.415L519.46,443.845L516.741,442.098L514.617,441.801L513.234,441.002L512.272,439.043L511.408,435.734L510.324,433.675L508.214,431.127L508.263,428.886L507.22,426.023L507.606,423.884L507.29,422.519L505.944,421.043L503.567,419.452L501.544,417.133L499.874,414.074L498.219,411.953L495.466,409.328L494.932,406.354L491.673,400.922L490.378,398.336L490.044,396.698L488.61,394.749L484.697,391.008L484.358,389.983L480.403,386.997L478.356,384.541L470.125,384.215L467.55,383.707L465.968,382.916L462.867,384.673L460.794,384.963L459.011,386.827L457.519,390.264L456.652,394.168L454.696,395.61L453.691,397.155L451.185,397.852L448.714,396.662L445.109,394.331L442.284,392.888L440.237,392.337L438.431,391.258L435.417,388.572L434.094,388.036L432.549,386.249L430.78,383.205L429.898,380.856L429.898,378.37L427.586,372.944L425.45,369.502L421.009,366.696L417.447,363.673L412.981,359.129L409.82,356.384L407.966,355.456L406.356,353.809L404.994,351.451L403.521,349.88L401.712,348.981L400.19,345.785L410.362,345.773L423.807,345.768L433.889,345.762L454.056,345.752L454.098,335.807L454.188,315.731L454.253,300.502L454.342,279.953L454.406,264.35L455.032,264.337L474.642,264.34L491.451,264.344L499.857,264.344L499.883,284.235L499.902,299.523L501.882,300.311L505.394,303.118L508.79,303.055L509.457,301.893L511.858,304.39L512.055,305.888L515.312,306.376L517.852,307.347L520.701,307.231L522.414,308.539L524.476,307.587L528.322,307.524L528.76,309.414L530.529,310.661L530.6,311.996L532.154,312.381L534.875,310.32L538.319,313.051L541.536,311.996L542.172,314.521L542.97,314.919L545.083,311.259L548.543,312.769L550.004,311.83L550.856,312.859L553.555,314.19L555.538,314.507L560.575,312.254L562.933,312.583L565.342,311.4L566.826,312.187L569.062,312.407L571.094,310.926L575.216,312.965L576.608,314.316L579.002,315.555L582.366,316.468ZM544.534,416.551L545.068,414.652L546.255,412.896L547.145,413.381L544.534,416.551Z" style="fill:rgb(30,115,190);fill-opacity:0.74;fill-rule:nonzero;stroke:rgb(238,238,238);stroke-width:1px;"/>
                                                    </g>
                                                </g>
                                            </g>
                                            <g>
                                                <g>
                                                    <g>
                                                        <path d="M200.839,158.058L200.842,176.786L200.847,198.913L200.85,217.071L211.357,226.476L221.863,235.817L228.867,242.009L242.574,254.969L250.797,262.686L262.186,273.716L269.78,281.024L281.436,292.158L282.228,295.742L284.613,299.468L285.017,301.305L288.189,303.722L288.686,304.965L285.64,307.578L282.952,311.873L283.098,315.798L281.554,319.672L280.072,320.606L280.032,325.044L280.873,326.794L283.224,328.363L283.424,330.887L281.86,332.793L279.727,333.14L260.903,334.85L243.789,336.371L243.653,334.314L242.067,334.05L241.777,329.161L240.941,326.287L238.719,322.793L233.918,318.444L231.472,316.987L229.552,315.145L226.802,314.487L224.619,314.751L224.881,312.695L223.187,309.826L221.801,309.51L218.315,309.699L213.655,308.122L212.276,307.179L211.802,305.492L206.742,302.584L203.045,302.692L200.059,301.654L194.923,301.83L193.656,301.612L191.212,299.645L191.508,295.425L190.938,292.923L191.378,290.603L190.28,289.117L188.031,288.165L187.988,285.313L185.557,283.196L183.837,280.873L181.656,279.6L180.759,277.469L175.966,270.782L172.78,267.501L172.164,263.015L174.087,260.033L173.825,257.813L172.731,256.174L168.492,255.199L165.044,251.14L164.839,248.026L163.481,244.835L163.259,240.503L165.204,240.189L165.419,242.697L167.529,244.433L169.09,244.813L167.625,241.257L166.521,240.154L165.184,236.931L167.702,235.411L169.651,235.244L175.181,235.536L170.476,233.836L168.647,234.94L165.065,233.435L163.712,234.117L163.547,237.063L163.966,239.25L159.577,237.215L156.472,234.341L156.195,230.913L155.306,230.382L154.183,227.632L151.663,225.977L149.643,223.302L145.512,218.859L145.235,214.94L143.73,209.971L144.28,205.121L142.77,200.411L139.421,195.853L136.198,192.773L135.487,188.075L136.801,183.758L137.716,182.485L139.053,178.633L138.95,174.943L140.019,170.403L139.283,165.657L137.386,162.331L137.922,160.312L137.628,158.056L149.591,158.058L200.839,158.058ZM200.199,311.605L198.353,311.618L197.085,309.892L199.778,309.663L200.199,311.605ZM202.61,308.703L207.397,310.024L203.698,310.722L202.61,308.703Z" style="fill:rgb(30,115,190);fill-opacity:0.74;fill-rule:nonzero;stroke:rgb(238,238,238);stroke-width:1px;"/>
                                                    </g>
                                                </g>
                                            </g>
                                            <g id="id-268">
                                                <g>
                                                    <g>
                                                        <path d="M439.919,76.105L440.003,96.191L439.529,96.189L419.865,96.189L403.479,96.191L334.661,96.191L334.65,106.762L332.464,104.838L330.374,101.598L328.72,102.303L327.946,105.799L323.502,105.902L317.01,105.466L314.595,107.41L309.762,106.779L308.275,108.708L305.52,107.15L304.121,102.217L302.717,100.463L300.449,100.265L298.499,97.691L298.472,94.669L295.093,89.747L293.52,83.434L291.421,81.715L286.113,85.857L282.651,83.977L283.151,81.623L282.584,79.562L284.507,77.583L283.412,74.112L283.308,71.469L285.393,62.968L285.317,60.419L281.569,60.58L279.294,58.96L276.573,54.848L270.386,47.418L268.345,46.303L265.108,43.521L265.598,42.191L264.64,37.565L259.927,30.918L259.933,8.614L358.319,8.614L377.445,8.612L439.578,8.612L439.648,21.555L439.753,42.839L439.856,63.739L439.919,76.105Z" style="fill:rgb(30,115,190);fill-opacity:0.74;fill-rule:nonzero;stroke:rgb(238,238,238);stroke-width:1px;"/>
                                                    </g>
                                                </g>
                                            </g>
                                            <g>
                                                <g>
                                                    <g>
                                                        <path d="M746.552,74.597L746.334,75.784L743.152,76.105L741.135,75.326L744.985,72.798L746.552,74.597ZM665.036,32.676L664.815,33.673L662.022,34.575L662.174,32.082L670.522,27.476L669.978,30.084L665.036,32.676ZM676.001,48.53L675.778,49.667L672.755,52.919L672.828,50.474L670.111,49.331L670.917,47.175L673.421,44.603L677.669,42.749L681.144,42.494L682.451,44.102L679.011,44.521L679.087,46.102L676.001,48.53ZM747.286,163.179L737.182,163.684L727.224,164.062L727.219,162.896L709.091,162.886L696.324,162.878L699.767,159.852L703.133,153.562L704.745,149.639L705.742,144.925L705.911,139.822L704.303,133.2L701.119,124.692L702.636,121.444L702.515,118.757L701.46,115.643L704.798,110.285L705.6,105.661L705.679,102.114L707.34,101.535L708.361,97.978L711.349,97.026L713.868,93.5L715.387,92.794L715.133,96.846L714.498,99.641L716.928,99.584L718.357,95.518L718.559,90.34L720.842,88.656L724.667,87.882L722.864,85.448L722.864,83.344L724.9,79.705L727.584,79.287L732.527,81.828L736.297,83.22L737.218,84.901L746.924,89.024L748.14,90.415L749.698,95.355L747.709,94.964L747.558,97.028L749.178,98.975L749.679,102.888L749.137,109.354L746.416,111.536L744.898,115.964L740.938,117.955L740.051,122.62L743.086,124.913L744.785,124.709L747.068,122.757L749.022,118.653L750.95,117.309L754.869,115.783L757.253,117.103L759.112,120.203L760.108,124.752L762.134,136.133L762.792,137.436L761.73,143.104L760.878,145.439L756.057,150.297L752.512,152.293L750.165,159.151L748.665,160.485L747.286,163.179ZM685.213,93.913L683.493,91.069L683.858,88.088L681.331,88.412L682.082,85.467L682.173,81.618L680.476,80.033L677.583,78.837L677.05,76.053L671.946,74.586L666.798,74.091L662.583,71.663L647.642,67.501L645.969,63.854L643.318,62.046L647.118,60.707L651.5,57.69L653.973,56.689L659.058,55.74L662.053,53.406L665.142,52.213L666.913,49.955L669.858,49.491L671.611,51.061L672.503,53.972L672.2,56.731L676.086,54.219L682.642,55.611L684.739,56.954L688.916,63.537L691.718,63.774L693.761,63.129L696.491,64.712L699.691,65.088L701.283,63.537L705.766,60.667L710.02,59.667L714.963,59.92L717.573,59.571L722.104,58.013L724.202,58.851L723.662,63.944L727.482,64.754L728.701,64.269L731.226,65.455L734.23,64.252L735.703,66.979L736.081,69.55L738.517,72.979L740.71,74.849L739.444,75.707L734.03,74.883L731.334,74.997L729.685,73.746L727.137,77.579L722.671,73.884L718.405,72.537L715.875,73.194L713.592,75.146L709.83,76.154L707.385,75.546L705.159,76.24L703.248,79.161L700.86,79.041L700.799,77.405L697.283,78.494L696.7,79.93L693.001,80.68L691.035,83.299L688.308,88.475L685.266,92.885L685.213,93.913ZM737.14,67.057L735.027,64.339L736.999,63.396L737.14,67.057Z" style="fill:rgb(30,115,190);fill-opacity:0.74;fill-rule:nonzero;stroke:rgb(238,238,238);stroke-width:1px;"/>
                                                    </g>
                                                </g>
                                            </g>
                                            <g>
                                                <g>
                                                    <g>
                                                        <path d="M598.908,17.162L603.786,17.087L606.998,18.265L612.027,21.253L613.311,24.826L616.943,23.437L619.432,24.26L621.627,26.599L626.711,29.72L631.162,28.684L633.812,26.687L636.85,26.532L638.282,28.684L644.628,28.805L648.042,28.381L649.51,30.681L654.888,31.164L651.974,33.236L646.464,35.787L640.48,37.979L635.104,41.618L628.688,48.437L624.817,52.057L618.546,57.122L617.912,58.354L615.149,60.572L615.135,73.061L609.135,76.836L606.432,81.188L606.165,83.569L608.937,85.725L609.256,88.139L608.055,91.203L607.653,94.701L608.096,97.602L607.56,100.644L609.887,103.687L614.024,105.644L615.917,107.533L618.685,108.838L621.889,113.135L623.749,114.544L628.74,117.367L629.678,118.501L630.3,121.378L630.796,127.474L616.134,127.488L596.683,127.493L582.095,127.495L562.646,127.499L552.918,127.501L552.918,89.909L551.78,88.331L549.294,87.047L547.06,83.545L547.537,82.192L550.511,79.176L551.382,76.111L551.317,71.9L550.469,67.817L548.773,64.658L547.939,60.844L548.187,54.915L547.466,53.724L546.861,40.187L544.929,35.03L544.639,32.685L542.867,27.142L542.596,18.968L542.834,15.7L541.375,8.612L562.33,8.612L572.23,8.644L572.33,-0L575.56,0.464L576.832,1.494L577.007,5.737L579.063,12.811L580.324,14.309L588.781,16.202L591.825,17.372L593.975,19.223L597.625,18.414L598.908,17.162Z" style="fill:rgb(30,115,190);fill-opacity:0.74;fill-rule:nonzero;stroke:rgb(238,238,238);stroke-width:1px;"/>
                                                    </g>
                                                </g>
                                            </g>
                                            <g>
                                                <g>
                                                    <g>
                                                        <path d="M776.449,368.017L777.147,369.592L778.216,376.025L778.943,378.252L780.253,384.248L782.419,390.041L785.478,397.02L791.099,406.635L789.622,409.453L787.995,407.031L788.642,405.062L787.484,404.138L787.407,402.44L786.403,402.01L787.742,408.422L789.215,411.819L795.555,428.264L797.054,430.349L798.188,434.967L798.318,438.968L797.282,446.262L797.045,451.218L794.436,454.787L794.034,457.958L793.449,459.545L791.691,461.222L790.598,461.179L787.922,462.435L786.044,462.107L783.804,462.816L782.331,462.739L781.48,461.243L782.524,459.744L780.586,455.369L778.823,452.907L778.527,451.26L775.486,450.253L773.285,448.73L771.85,446.018L771.027,441.2L768.439,439.244L767.866,436.697L768.031,433.562L766.323,432.804L766.329,434.424L764.695,433.909L762.433,430.74L759.755,425.001L759.525,422.918L763.041,417.672L761.247,416.952L759.149,419.646L757.925,419.8L756.419,417.49L757.839,410.871L759.154,406.638L759.29,399.793L757.527,396.991L749.737,390.129L743.698,381.969L738.466,378.9L734.496,379.572L733.403,382.29L730.903,382.453L727.158,384.606L725.836,384.527L723.738,385.5L719.407,386.204L719.586,384.177L718.888,382.836L716.634,381.109L714.072,378.584L715.15,375.734L713.098,376.467L712.876,377.808L706.603,374.941L702.428,373.785L705.634,373.267L705.374,372.159L702.526,372.112L699.061,373.721L691.264,374.823L692.42,373.829L694.483,373.237L691.72,371.364L691.51,372.84L690.068,374.823L687.156,375.605L686.95,374.158L687.85,372.422L687.967,369.057L685.805,366.9L685.284,365.768L685.394,363.324L699.899,363.322L709.57,363.32L724.066,363.308L725.911,368.199L739.227,369.114L748.759,369.762L765.444,370.898L766.126,373.886L768.107,373.693L768.705,370.999L768.458,368.008L769.994,366.484L773.915,367.865L776.449,368.017Z" style="fill:rgb(30,115,190);fill-opacity:0.74;fill-rule:nonzero;stroke:rgb(238,238,238);stroke-width:1px;"/>
                                                    </g>
                                                </g>
                                            </g>
                                            <g>
                                                <g>
                                                    <g>
                                                        <path d="M334.65,106.762L334.658,126.243L334.661,139.065L334.668,158.054L320.686,158.052L309.502,158.05L289.927,158.048L273.252,158.054L256.575,158.056L245.458,158.058L245.425,135.406L245.401,121.053L246.342,117.92L246.295,115.531L247.034,113.9L246.407,112.067L243.619,111.127L242.692,108.076L243.93,105.096L246.472,101.061L248.107,96.527L252.448,86.516L253.526,82.579L251.437,79.193L249.226,77.611L247.255,74.833L246.488,72.2L246.56,69.872L245.334,65.604L245.271,48.087L245.186,23.113L245.123,8.614L259.933,8.614L259.927,30.918L264.64,37.565L265.598,42.191L265.108,43.521L268.345,46.303L270.386,47.418L276.573,54.848L279.294,58.96L281.569,60.58L285.317,60.419L285.393,62.968L283.308,71.469L283.412,74.112L284.507,77.583L282.584,79.562L283.151,81.623L282.651,83.977L286.113,85.857L291.421,81.715L293.52,83.434L295.093,89.747L298.472,94.669L298.499,97.691L300.449,100.265L302.717,100.463L304.121,102.217L305.52,107.15L308.275,108.708L309.762,106.779L314.595,107.41L317.01,105.466L323.502,105.902L327.946,105.799L328.72,102.303L330.374,101.598L332.464,104.838L334.65,106.762Z" style="fill:rgb(30,115,190);fill-opacity:0.74;fill-rule:nonzero;stroke:rgb(238,238,238);stroke-width:1px;"/>
                                                    </g>
                                                </g>
                                            </g>
                                            <g>
                                                <g>
                                                    <g>
                                                        <path d="M289.963,254.954L289.922,270.269L287.825,273.071L284.492,270.888L281.697,270.901L279.861,272.059L279.48,273.38L280.29,275.159L280.918,280.444L280.866,283.286L281.727,285.546L281.436,292.158L269.78,281.024L262.186,273.716L250.797,262.686L242.574,254.969L228.867,242.009L221.863,235.817L211.357,226.476L200.85,217.071L200.847,198.913L200.842,176.786L200.839,158.058L245.458,158.058L256.575,158.056L273.252,158.054L289.927,158.048L289.931,170.553L289.936,182.943L289.94,198.263L289.946,216.419L289.954,237.302L289.963,254.954Z" style="fill:rgb(168,168,168);fill-rule:nonzero;stroke:rgb(238,238,238);stroke-width:1px;"/>
                                                    </g>
                                                </g>
                                            </g>
                                            <g id="id-293">
                                                <g>
                                                    <g>
                                                        <path d="M455.032,264.337L454.406,264.35L454.342,279.953L454.253,300.502L454.188,315.731L454.098,335.807L454.056,345.752L433.889,345.762L423.807,345.768L410.362,345.773L400.19,345.785L401.712,348.981L403.521,349.88L393.543,349.788L377.108,349.688L377.069,357.584L364.61,357.608L364.617,338.871L364.619,326.265L364.62,307.166L364.623,287.823L364.625,268.228L364.626,255.015L455.025,255.015L455.032,264.337Z" style="fill:rgb(30,115,190);fill-opacity:0.74;fill-rule:nonzero;stroke:rgb(238,238,238);stroke-width:1px;"/>
                                                    </g>
                                                </g>
                                            </g>
                                            <g>
                                                <g>
                                                    <g>
                                                        <path d="M152.696,71.568L154.187,71.026L156.862,72.403L158.336,75.35L160.093,81.881L161.231,82.87L167.919,83.65L169.675,83.4L172.71,81.543L175.993,80.931L179.885,81.066L183.143,82.523L185.223,82.624L190.149,81.537L195.596,80.779L198.519,79.986L201.834,78.363L209.387,76.294L213.152,76.06L215.509,74.872L227.674,74.851L247.255,74.833L249.226,77.611L251.437,79.193L253.526,82.579L252.448,86.516L248.107,96.527L246.472,101.061L243.93,105.096L242.692,108.076L243.619,111.127L246.407,112.067L247.034,113.9L246.295,115.531L246.342,117.92L245.401,121.053L245.425,135.406L245.458,158.058L149.591,158.058L137.628,158.056L135.73,155.595L134.754,150.382L134.969,146.272L132.975,141.609L134.247,137.536L135.86,130.784L136.737,129.383L138.819,123.566L139.089,116.02L139.56,110.22L140.334,108.3L140.158,100.901L141.811,87.705L142.098,83.949L141.623,78.253L141.834,71.848L142.363,70.948L145.923,70.942L148.196,70.075L149.98,71.538L152.696,71.568Z" style="fill:rgb(30,115,190);fill-opacity:0.74;fill-rule:nonzero;stroke:rgb(238,238,238);stroke-width:1px;"/>
                                                    </g>
                                                </g>
                                            </g>
                                            <g>
                                                <g>
                                                    <g>
                                                        <path d="M910.93,178.31L914.253,177.558L917.029,177.738L913.482,180.13L900.695,184.868L899.63,184.683L894.316,185.938L892.135,186.08L891.299,184.833L889.71,185.96L888.17,185.176L890.453,182.155L895.019,179.627L898.027,179.148L900.82,179.425L903.096,178.709L910.93,178.31ZM899.813,142.844L896.016,156.46L896.414,156.953L895.456,172.158L896.36,173.689L892.79,175.963L894.171,178.196L890.873,181.371L889.417,181.227L889.992,178.188L878.196,170.937L877.335,169.61L874.662,168.602L873.358,167.037L871.875,161.017L870.124,160.238L868.442,158.105L856.073,158.095L839.584,158.081L818.971,158.067L802.479,158.054L802.479,152.513L806.227,150.179L810.759,146.851L812.951,144.321L815.111,142.605L815.798,141.14L815.088,138.848L815.262,136.352L812.899,135.617L813.093,131.947L818.53,130.377L826.223,129.694L831.259,130.468L835.882,132.311L839.741,131.754L844.145,132.106L848.385,130.39L851.674,127.375L855.714,125.987L855.777,119.784L857.268,117.86L855.188,113.362L861.253,108.89L861.855,106.8L867.696,101.019L871.012,98.337L875.841,96.129L898.335,96.098L898.389,100.954L898.038,104.695L898.969,107.583L898.8,111.574L897.474,114.442L897.245,116.38L897.981,122.109L897.419,124.888L899.907,126.433L899.615,140.551L899.813,142.844Z" style="fill:rgb(30,115,190);fill-opacity:0.74;fill-rule:nonzero;stroke:rgb(238,238,238);stroke-width:1px;"/>
                                                    </g>
                                                </g>
                                            </g>
                                            <g>
                                                <g>
                                                    <g>
                                                        <path d="M364.626,255.015L364.625,268.228L364.623,287.823L364.62,307.166L364.619,326.265L364.617,338.871L364.61,357.608L350.646,357.64L334.792,357.671L320.61,352.482L306.428,347.276L299.338,344.669L285.156,339.436L278.065,336.814L279.727,333.14L281.86,332.793L283.424,330.887L283.224,328.363L280.873,326.794L280.032,325.044L280.072,320.606L281.554,319.672L283.098,315.798L282.952,311.873L285.64,307.578L288.686,304.965L288.189,303.722L285.017,301.305L284.613,299.468L282.228,295.742L281.436,292.158L281.727,285.546L280.866,283.286L280.918,280.444L280.29,275.159L279.48,273.38L279.861,272.059L281.697,270.901L284.492,270.888L287.825,273.071L289.922,270.269L289.963,254.954L299.294,254.961L313.294,254.972L322.629,254.98L341.295,254.997L350.628,255.002L364.626,255.015Z" style="fill:rgb(30,115,190);fill-opacity:0.74;fill-rule:nonzero;stroke:rgb(238,238,238);stroke-width:1px;"/>
                                                    </g>
                                                </g>
                                            </g>
                                            <g>
                                                <g>
                                                    <g>
                                                        <path d="M627.855,190.271L626.989,193.281L627.483,198.813L628.8,202.581L631.324,205.428L635.667,209.615L638.392,213.575L639.494,217.318L640.785,218.813L642.267,218.073L646.123,219.046L647.518,220.294L644.68,227.469L643.822,230.294L644.944,232.878L646.817,234.871L652.061,238.381L655.047,240.97L656.54,242.912L657.46,246.88L656.847,249.393L658.176,253.112L660.293,253.534L662.059,255.178L662.535,256.684L662.029,260.343L661.331,262.025L658.424,262.727L657.632,264.361L657.082,264.303L656.034,264.34L656.064,266.723L655.476,268.829L654.281,269.548L654.77,271.699L653.83,273.604L643.716,273.764L644.884,271.795L648.282,268.137L648.3,266.743L646.989,264.344L580.361,264.344L580.366,255.015L580.31,232.881L580.3,214.682L577.976,213.341L576.414,210.458L573.788,207.249L573.526,205.536L576.249,201.951L574.892,199.823L572.916,200.193L569.471,197.67L568.16,195.824L567.721,193.829L565.576,191.919L563.215,185.9L574.491,185.822L597.122,185.65L612.211,185.538L623.523,185.449L624.265,186.883L627.855,190.271Z" style="fill:rgb(30,115,190);fill-opacity:0.74;fill-rule:nonzero;stroke:rgb(238,238,238);stroke-width:1px;"/>
                                                    </g>
                                                </g>
                                            </g>
                                            <g>
                                                <g>
                                                    <g>
                                                        <path d="M580.361,264.344L583.04,284.913L582.83,294.846L582.366,316.468L579.002,315.555L576.608,314.316L575.216,312.965L571.094,310.926L569.062,312.407L566.826,312.187L565.342,311.4L562.933,312.583L560.575,312.254L555.538,314.507L553.555,314.19L550.856,312.859L550.004,311.83L548.543,312.769L545.083,311.259L542.97,314.919L542.172,314.521L541.536,311.996L538.319,313.051L534.875,310.32L532.154,312.381L530.6,311.996L530.529,310.661L528.76,309.414L528.322,307.524L524.476,307.587L522.414,308.539L520.701,307.231L517.852,307.347L515.312,306.376L512.055,305.888L511.858,304.39L509.457,301.893L508.79,303.055L505.394,303.118L501.882,300.311L499.902,299.523L499.883,284.235L499.857,264.344L491.451,264.344L474.642,264.34L455.032,264.337L455.025,255.015L580.366,255.015L580.361,264.344Z" style="fill:rgb(30,115,190);fill-opacity:0.74;fill-rule:nonzero;stroke:rgb(238,238,238);stroke-width:1px;"/>
                                                    </g>
                                                </g>
                                            </g>
                                            <g id="id-168">
                                                <g>
                                                    <g>
                                                        <path d="M469.623,197.678L469.677,215.855L469.709,226.644L469.754,240.9L469.798,255.015L364.626,255.015L364.626,245.621L364.628,226.648L364.629,212.243L364.629,187.886L364.632,178.019L439.76,178.019L450.957,178.021L469.615,178.023L469.623,197.678Z" style="fill:rgb(30,115,190);fill-opacity:0.74;fill-rule:nonzero;stroke:rgb(238,238,238);stroke-width:1px;"/>
                                                    </g>
                                                </g>
                                            </g>
                                            <g id="id-373">
                                                <g>
                                                    <g>
                                                        <path d="M439.654,137.763L439.68,147.944L439.722,163.071L439.76,178.019L334.673,178.019L334.668,158.054L334.661,139.065L334.658,126.243L334.65,106.762L334.661,96.191L403.479,96.191L419.865,96.189L439.529,96.189L439.577,111.941L439.606,122.335L439.654,137.763Z" style="fill:rgb(168,168,168);fill-rule:nonzero;stroke:rgb(238,238,238);stroke-width:1px;"/>
                                                    </g>
                                                </g>
                                            </g>
                                            <g>
                                                <g>
                                                    <g>
                                                        <path d="M434.357,476.367L435.831,476.345L436.12,477.953L437.432,479.372L434.367,480.157L432.434,478.708L430.946,479.202L428.518,479.151L426.102,475.709L425.463,473.775L428.279,473.471L430.208,471.623L431.295,471.431L433.377,474.417L434.357,476.367ZM452.187,490.128L449.861,490.433L449.581,489.063L448.415,487.321L450.457,486.968L452.942,488.954L452.187,490.128ZM475.995,525.271L474.128,526.151L470.363,524.112L469.908,523.013L470.185,517.907L468.776,513.762L467.22,510.59L469.844,507.702L471.508,505.316L470.148,502.254L470.496,500.407L471.296,500.086L475.228,502.335L483.175,505.711L485.293,508.082L485.671,510.626L487.114,510.949L487.796,512.69L490.581,515.085L489.717,516.484L485.904,519.169L481.094,520.344L476.86,523.346L475.995,525.271ZM445.353,481.227L454.201,482.273L454.095,483.48L451.993,484.43L448.971,483.595L443.913,483.297L445.353,481.227ZM458.995,486.916L459.484,487.277L462.923,486.541L465.351,487.863L468.325,490.441L466.124,492.696L462.316,493.617L459.91,493.234L459.122,489.554L456.58,489.142L455.188,487.543L455.804,485.071L457.144,484.873L458.995,486.916ZM404.819,466.76L403.17,467.897L400.389,467.223L397.775,465.599L397.003,464.543L398.177,462.552L400.945,460.871L405.211,460.941L406.174,463.26L404.819,466.76ZM389.665,468.605L388.899,467.47L391.157,465.081L392.13,465.297L391.541,467.262L389.665,468.605Z" style="fill:rgb(30,115,190);fill-opacity:0.74;fill-rule:nonzero;stroke:rgb(238,238,238);stroke-width:1px;"/>
                                                    </g>
                                                </g>
                                            </g>
                                            <g>
                                                <g>
                                                    <g>
                                                        <path d="M247.255,74.833L227.674,74.851L215.509,74.872L213.152,76.06L209.387,76.294L201.834,78.363L198.519,79.986L195.596,80.779L190.149,81.537L185.223,82.624L183.143,82.523L179.885,81.066L175.993,80.931L172.71,81.543L169.675,83.4L167.919,83.65L161.231,82.87L160.093,81.881L158.336,75.35L156.862,72.403L154.187,71.026L152.696,71.568L149.045,69.027L145.702,68.406L142.602,69.1L139.956,68.847L140.292,64.272L141.849,65.533L142.7,60.587L139.971,58.738L139.361,56.163L143.392,53.963L140.41,52.505L138.597,52.821L138.069,48.576L136.418,44.252L135.421,38.627L134.165,35.833L131.756,33.162L130.552,27.631L131.584,22.611L134.628,24.282L138.419,25.594L141.405,27.252L151.593,28.35L154.135,27.646L155.633,29.199L158.075,29.008L159.885,30.726L161.129,33.675L158.665,35.635L156.257,40.827L159.627,37.697L162.157,34.239L163.114,36.165L161.524,37.868L162.67,44.245L162.306,46.71L158.798,45.921L157.197,46.79L156.179,49.366L160.452,50.722L161.914,49.489L162.84,47.098L165.657,44.981L165.44,39.841L164.809,38.76L165.072,35.025L167.329,30.782L165.669,28.475L163.561,28.106L163.167,25.893L164.839,24.437L163.644,22.629L160.944,20.579L163.519,19.672L163.281,15.965L162.544,13.508L161.183,13.825L159.153,8.617L205.311,8.617L218.063,8.614L245.123,8.614L245.186,23.113L245.271,48.087L245.334,65.604L246.56,69.872L246.488,72.2L247.255,74.833ZM162.382,27.516L165.464,31.35L164.796,32.861L162.61,31.191L162.382,27.516Z" style="fill:rgb(30,115,190);fill-opacity:0.74;fill-rule:nonzero;stroke:rgb(238,238,238);stroke-width:1px;"/>
                                                    </g>
                                                </g>
                                            </g>
                                            <g>
                                                <g>
                                                    <g>
                                                        <path d="M694.392,91.105L693.39,94.043L690.08,99.698L688.559,99.08L688.342,97.182L690.401,93.29L692.446,91.455L694.392,91.105ZM643.318,62.046L645.969,63.854L647.642,67.501L662.583,71.663L666.798,74.091L671.946,74.586L677.05,76.053L677.583,78.837L680.476,80.033L682.173,81.618L682.082,85.467L681.331,88.412L683.858,88.088L683.493,91.069L685.213,93.913L684.896,95.531L681.857,97.427L678.897,104.263L680.38,105.493L683.193,102.707L685.234,99.445L687.995,99.051L689.103,100.421L686.385,109.133L686.271,113.55L684.425,115.949L683.448,119.101L683.809,122.906L682.696,125.485L680.788,132.773L680.912,136.949L682.502,141.684L682.128,148.027L666.756,147.914L653.29,147.812L639.686,147.707L639.13,145.73L637.622,144.378L635.06,143.495L633.423,142.104L632.246,138.072L632.05,135.696L632.708,131.002L631.191,129.684L630.796,127.474L630.3,121.378L629.678,118.501L628.74,117.367L623.749,114.544L621.889,113.135L618.685,108.838L615.917,107.533L614.024,105.644L609.887,103.687L607.56,100.644L608.096,97.602L607.653,94.701L608.055,91.203L609.256,88.139L608.937,85.725L606.165,83.569L606.432,81.188L609.135,76.836L615.135,73.061L615.149,60.572L617.912,58.354L619.699,59.737L621.968,59.667L627,58.273L631.207,55.659L632.559,56.053L635.268,54.169L637.927,55.172L636.475,58.393L635.614,61.824L638.396,59.959L641.399,61.904L643.318,62.046Z" style="fill:rgb(30,115,190);fill-opacity:0.74;fill-rule:nonzero;stroke:rgb(238,238,238);stroke-width:1px;"/>
                                                    </g>
                                                </g>
                                            </g>
                                            <g id="id-278">
                                                <g>
                                                    <g>
                                                        <path d="M552.511,147.744L553.965,149.637L554.377,152.825L555.286,155.394L557.395,158.769L558.673,163.403L558.826,167.177L560.703,169.58L561.442,172.327L562.185,180.221L561.81,183.075L563.215,185.9L565.576,191.919L567.721,193.829L568.16,195.824L569.471,197.67L547.972,197.678L469.623,197.678L469.615,178.023L450.957,178.021L439.76,178.019L439.722,163.071L439.68,147.944L439.654,137.763L455.179,137.763L470.704,137.765L506.93,137.765L523.193,137.767L527.655,140.806L530.322,141.754L531.578,140.861L534.312,140.349L538.519,140.218L541.181,140.636L544.455,142.683L547.673,143.88L549.602,145.177L550.24,146.577L552.511,147.744Z" style="fill:rgb(30,115,190);fill-opacity:0.74;fill-rule:nonzero;stroke:rgb(238,238,238);stroke-width:1px;"/>
                                                    </g>
                                                </g>
                                            </g>
                                            <g id="id-378">
                                                <g>
                                                    <g>
                                                        <path d="M551.382,76.111L550.511,79.176L547.537,82.192L547.06,83.545L549.294,87.047L551.78,88.331L552.918,89.909L552.918,127.501L550.751,127.575L551.604,130.13L551.397,133.046L552.783,135.76L550.404,143.306L551.647,144.75L552.511,147.744L550.24,146.577L549.602,145.177L547.673,143.88L544.455,142.683L541.181,140.636L538.519,140.218L534.312,140.349L531.578,140.861L530.322,141.754L527.655,140.806L523.193,137.767L506.93,137.765L470.704,137.765L455.179,137.763L439.654,137.763L439.606,122.335L439.577,111.941L439.529,96.189L440.003,96.191L439.919,76.105L485.2,76.105L502.616,76.107L513.066,76.107L526.998,76.109L540.932,76.109L551.382,76.111Z" style="fill:rgb(168,168,168);fill-rule:nonzero;stroke:rgb(238,238,238);stroke-width:1px;"/>
                                                    </g>
                                                </g>
                                            </g>
                                            <g>
                                                <g>
                                                    <g>
                                                        <path d="M334.668,158.054L334.673,178.019L364.632,178.019L364.629,187.886L364.629,212.243L364.628,226.648L364.626,245.621L364.626,255.015L350.628,255.002L341.295,254.997L322.629,254.98L313.294,254.972L299.294,254.961L289.963,254.954L289.954,237.302L289.946,216.419L289.94,198.263L289.936,182.943L289.931,170.553L289.927,158.048L309.502,158.05L320.686,158.052L334.668,158.054Z" style="fill:rgb(30,115,190);fill-opacity:0.74;fill-rule:nonzero;stroke:rgb(238,238,238);stroke-width:1px;"/>
                                                    </g>
                                                </g>
                                            </g>
                                            <g>
                                                <g>
                                                    <g>
                                                        <path d="M863.839,237.056L864.426,236.198L868.075,235.709L864.778,243.165L864.917,244.532L863.246,245.329L861.553,247.047L859.726,252.184L858.784,250.083L859.118,247.55L860.415,243.392L862.941,239.566L863.839,237.056ZM832.926,210.396L836.631,212.822L836.601,214.901L839.29,216.049L841.966,218.166L843.339,219.205L843.108,221.384L839.9,224.751L839.101,228.635L840.323,229.715L843.092,229.4L845.193,232.44L850.528,234.389L851.691,235.972L854.792,238.202L854.174,241.456L851.505,243.209L854.176,244.29L854.804,248.331L852.748,247.783L852.746,251.044L854.508,254.043L852.751,255.193L848.699,251.79L849.266,254.141L852.77,257.09L855.092,255.917L858.753,256.664L860.874,263.419L860.403,263.421L859.246,263.404L850.122,263.324L833.893,263.168L823.076,263.064L806.847,262.906L790.619,262.749L774.39,262.593L774.131,262.304L770.447,262.153L769.741,262.537L754.74,262.46L744.097,262.405L751.833,259.472L753.424,257.92L755.656,256.782L758.088,254.131L758.84,252.442L763.901,249.461L769.548,244.89L770.332,248.105L771.585,249.429L774.103,250.872L775.537,251.097L778.75,248.769L780.586,250.094L784.825,249.367L786.658,247.087L788.173,247.503L791.347,246.222L791.99,246.906L794.21,245.455L795.26,243.36L794.67,242.298L796.121,239.515L799.358,235.308L800.39,232.75L803.192,228.496L803.889,225.817L804.949,225.189L806.34,226.828L807.968,227.534L810.296,227.11L813.271,221.117L815.851,220.576L817.524,218.842L820.145,217.096L822.332,213.98L824.02,208.355L831.295,214.281L832.926,210.396Z" style="fill:rgb(30,115,190);fill-opacity:0.74;fill-rule:nonzero;stroke:rgb(238,238,238);stroke-width:1px;"/>
                                                    </g>
                                                </g>
                                            </g>
                                            <g>
                                                <g>
                                                    <g>
                                                        <path d="M859.246,263.404L858.851,264.848L860.737,268.673L860.493,270.38L856.532,268.46L856.499,270.934L855.344,271.486L853.008,271.162L851.585,273.11L850.38,273.347L848.591,272.239L847.886,274.413L853.385,274.5L855.656,273.794L857.7,274.178L857.494,279.34L858.726,278.757L859.059,275.552L860.93,274.367L862.15,275.48L862.561,277.959L862.123,280.141L859.252,282.689L857.196,285.04L856.144,285.52L852.909,284.657L851.425,284.734L850.782,282.689L847.66,284.101L851.075,287.052L849.66,289.201L849.352,290.659L847.095,292.175L847.604,293.076L851.914,292.191L853.328,293.158L851.015,296.057L848.171,296.516L847.782,297.336L841.791,297.32L840.027,298.996L838.433,298.913L838.113,300.616L836.052,301.98L832.567,304.992L829.945,308.82L828.641,311.729L822.772,311.628L820.402,312.365L814.21,306.058L804.116,295.702L787.211,295.123L787.078,292.677L784.973,289.923L783.307,290.8L782.676,289.153L763.707,288.313L752.361,291.97L734.273,292.215L734.834,288.328L735.652,287.233L738.195,286.768L739.07,284.42L741.051,282.569L743.273,281.743L746.437,281.298L749.83,279.497L752.28,277.791L754.224,277.316L755.757,274.524L756.877,274.603L758.563,273.08L759.894,272.757L761.238,273.977L763.526,271.791L766.302,270.786L768.263,271.36L770.402,267.957L773.007,267.046L773.452,263.73L774.131,262.304L774.39,262.593L790.619,262.749L806.847,262.906L823.076,263.064L833.893,263.168L850.122,263.324L859.246,263.404Z" style="fill:rgb(30,115,190);fill-opacity:0.74;fill-rule:nonzero;stroke:rgb(238,238,238);stroke-width:1px;"/>
                                                    </g>
                                                </g>
                                            </g>
                                            <g id="id-388">
                                                <g>
                                                    <g>
                                                        <path d="M551.382,76.111L540.932,76.109L526.998,76.109L513.066,76.107L502.616,76.107L485.2,76.105L439.919,76.105L439.856,63.739L439.753,42.839L439.648,21.555L439.578,8.612L541.375,8.612L542.834,15.7L542.596,18.968L542.867,27.142L544.639,32.685L544.929,35.03L546.861,40.187L547.466,53.724L548.187,54.915L547.939,60.844L548.773,64.658L550.469,67.817L551.317,71.9L551.382,76.111Z" style="fill:rgb(168,168,168);fill-rule:nonzero;stroke:rgb(238,238,238);stroke-width:1px;"/>
                                                    </g>
                                                </g>
                                            </g>
                                            <g>
                                                <g>
                                                    <g>
                                                        <path d="M580.366,255.015L469.798,255.015L469.754,240.9L469.709,226.644L469.677,215.855L469.623,197.678L547.972,197.678L569.471,197.67L572.916,200.193L574.892,199.823L576.249,201.951L573.526,205.536L573.788,207.249L576.414,210.458L577.976,213.341L580.3,214.682L580.31,232.881L580.366,255.015Z" style="fill:rgb(30,115,190);fill-opacity:0.74;fill-rule:nonzero;stroke:rgb(238,238,238);stroke-width:1px;"/>
                                                    </g>
                                                </g>
                                            </g>
                                            <g>
                                                <g>
                                                    <g>
                                                        <path d="M682.128,148.027L682.346,153.812L683.883,156.371L685.268,160.9L686.478,163.536L686.413,180.776L686.371,192.577L686.303,209.845L685.133,211.459L684.594,213.826L686.342,218.829L686.353,222.026L684.763,225.849L682.547,228.208L681.902,229.803L679.612,231.447L678.683,237.386L677.894,238.542L678.691,240.185L677.391,241.873L677.711,244.992L676.47,246.305L671.922,248.193L672.541,251.692L672.266,253.374L670.142,252.968L666.271,251.553L663.676,251.602L662.354,253.112L662.059,255.178L660.293,253.534L658.176,253.112L656.847,249.393L657.46,246.88L656.54,242.912L655.047,240.97L652.061,238.381L646.817,234.871L644.944,232.878L643.822,230.294L644.68,227.469L647.518,220.294L646.123,219.046L642.267,218.073L640.785,218.813L639.494,217.318L638.392,213.575L635.667,209.615L631.324,205.428L628.8,202.581L627.483,198.813L626.989,193.281L627.855,190.271L628.617,189.924L628.57,187.182L629.393,185.857L631.246,184.961L632.936,182.983L635.152,177.726L633.235,172.47L633.743,170.7L635.379,169.576L640.642,168.197L642.885,166.885L646.159,161.825L647.134,158.443L646.91,156.051L644.233,153.739L642.167,150.335L639.686,147.707L653.29,147.812L666.756,147.914L682.128,148.027Z" style="fill:rgb(168,168,168);fill-rule:nonzero;stroke:rgb(238,238,238);stroke-width:1px;"/>
                                                    </g>
                                                </g>
                                            </g>
                                            <g>
                                                <g>
                                                    <g>
                                                        <path d="M785.891,345.279L785.129,346.772L782.289,347.94L783.011,349.086L781.024,351.008L781.361,354.044L779.572,356.85L779.67,358.728L777.207,361.797L776.202,365.52L776.449,368.017L773.915,367.865L769.994,366.484L768.458,368.008L768.705,370.999L768.107,373.693L766.126,373.886L765.444,370.898L748.759,369.762L739.227,369.114L725.911,368.199L724.066,363.308L723.167,361.285L722.789,358.17L723.354,353.319L722.309,349.732L722.318,347.907L723.656,343.202L725.226,341.448L724.384,339.426L723.949,336.499L721.835,331.559L721.171,328.853L718.405,312.832L714.851,291.981L734.273,292.215L752.361,291.97L749.344,295.54L748.762,297.311L753.29,300.901L756.356,302.241L756.791,303.524L760.218,309.824L765.194,314.658L765.917,316.196L768.944,318.722L770.034,321.106L773.529,325.812L775.338,326.849L776.661,329.22L777.497,332.914L778.346,335.054L779.641,335.947L781.419,339.086L781.963,342.591L782.865,343.868L785.891,345.279Z" style="fill:rgb(30,115,190);fill-opacity:0.74;fill-rule:nonzero;stroke:rgb(238,238,238);stroke-width:1px;"/>
                                                    </g>
                                                </g>
                                            </g>
                                            <g>
                                                <g>
                                                    <g>
                                                        <path d="M639.686,147.707L642.167,150.335L644.233,153.739L646.91,156.051L647.134,158.443L646.159,161.825L642.885,166.885L640.642,168.197L635.379,169.576L633.743,170.7L633.235,172.47L635.152,177.726L632.936,182.983L631.246,184.961L629.393,185.857L628.57,187.182L628.617,189.924L627.855,190.271L624.265,186.883L623.523,185.449L612.211,185.538L597.122,185.65L574.491,185.822L563.215,185.9L561.81,183.075L562.185,180.221L561.442,172.327L560.703,169.58L558.826,167.177L558.673,163.403L557.395,158.769L555.286,155.394L554.377,152.825L553.965,149.637L552.511,147.744L551.647,144.75L550.404,143.306L552.783,135.76L551.397,133.046L551.604,130.13L550.751,127.575L552.918,127.501L562.646,127.499L582.095,127.495L596.683,127.493L616.134,127.488L630.796,127.474L631.191,129.684L632.708,131.002L632.05,135.696L632.246,138.072L633.423,142.104L635.06,143.495L637.622,144.378L639.13,145.73L639.686,147.707Z" style="fill:rgb(30,115,190);fill-opacity:0.74;fill-rule:nonzero;stroke:rgb(238,238,238);stroke-width:1px;"/>
                                                    </g>
                                                </g>
                                            </g>
                                            <g>
                                                <g>
                                                    <g>
                                                        <path d="M656.578,377.363L655.569,377.823L650.099,376.044L648.738,374.614L646.046,374.13L644.45,375.89L643.238,378.268L646.793,380.187L649.501,379.667L650.999,378.518L653.341,377.719L654.423,378.669L652.177,380.566L653.244,381.901L655.552,382.157L656.974,379.686L659.017,382.055L659.066,383.793L656.431,384.622L653.587,387.252L654.277,388.638L656.686,390.676L660.693,392.166L661.665,392.123L662.62,393.623L664.13,394.399L662.041,397.587L660.835,396.484L659.079,396.671L657.741,394.548L655.092,392.694L652.518,392.166L651.25,390.024L647.035,388.665L648.631,390.481L647.9,394.761L646.233,396.077L644.905,393.493L643.743,392.821L640.649,393.224L639.284,395.293L638.185,395.632L634.422,394.56L630.125,392.925L632.137,391.866L629.515,389.071L626.774,388.352L624.407,385.07L622.136,384.99L621.108,383.521L619.251,384.136L617.484,385.872L618.254,387.708L615.611,388.325L609.473,387.635L605.268,385.619L601.932,384.503L594.168,384.66L592.2,385.431L591.342,383.969L592.999,382.176L592.686,381.085L593.932,378.743L593.339,374.728L593.79,371.027L595.898,366.409L596.624,362.532L596.218,360.188L594.603,357.701L593.529,354.351L592.288,352.768L592.196,350.198L591.025,347.968L588.957,345.815L588.988,327.858L599.733,327.844L618.54,327.817L632.221,327.789L633.024,329.183L632.429,331.476L633.052,333.513L632.333,334.105L632.91,337.13L635.288,339.96L635.244,341.562L633.134,343.963L632.121,346.318L630.178,347.845L628.893,349.786L628.263,352.136L626.553,355.491L626.553,357.305L625.03,359.538L625.545,361.42L624.646,363.307L635.41,363.317L653.371,363.317L651.877,368.027L652.106,370.108L654.112,372.684L655.519,376.837L656.578,377.363ZM622.595,389.291L619.567,388.045L621.375,386.88L622.983,387.847L622.595,389.291Z" style="fill:rgb(30,115,190);fill-opacity:0.74;fill-rule:nonzero;stroke:rgb(238,238,238);stroke-width:1px;"/>
                                                    </g>
                                                </g>
                                            </g>
                                            <g>
                                                <g>
                                                    <g>
                                                        <path d="M759.868,227.653L760.383,231.011L759.767,232.725L760.227,234.288L764.842,242.108L767.484,244.307L769.548,244.89L763.901,249.461L758.84,252.442L758.088,254.131L755.656,256.782L753.424,257.92L751.833,259.472L744.097,262.405L743.158,262.744L722.396,262.019L701.635,261.29L681.724,261.68L681.282,261.102L677.879,260.766L678.436,264.366L657.632,264.361L658.424,262.727L661.331,262.025L662.029,260.343L662.535,256.684L662.059,255.178L662.354,253.112L663.676,251.602L666.271,251.553L670.142,252.968L672.266,253.374L672.541,251.692L671.922,248.193L676.47,246.305L677.711,244.992L677.391,241.873L678.691,240.185L680.627,239.638L680.724,238.043L683.587,238.087L685.307,237.198L688.701,237.636L692.162,239.874L694.728,237.359L697.705,236.946L699.157,238.288L701.019,237.757L701.449,235.902L702.799,233.53L704.979,233.716L706.119,235.49L707.674,236.337L709.803,235.917L711.392,232.098L712.387,230.761L714.51,229.578L716.005,226.969L717.822,224.816L717.524,223.159L719.589,222.124L721.633,223.021L725.651,221.503L727.153,220.547L726.355,218.752L726.841,215.306L728.557,214.595L731.519,215.096L733.773,216.117L735.728,219.668L737.434,220.95L739.898,221.415L743.764,223.802L746.029,222.839L748.741,224.227L751.036,224.009L754.078,222.569L755.866,222.639L757.693,225.878L759.868,227.653Z" style="fill:rgb(30,115,190);fill-opacity:0.74;fill-rule:nonzero;stroke:rgb(238,238,238);stroke-width:1px;"/>
                                                    </g>
                                                </g>
                                            </g>
                                            <g>
                                                <g>
                                                    <g>
                                                        <path d="M975.562,110.247L972.205,111.043L972.238,109.58L973.882,107.653L975.562,110.247ZM937.495,136.358L936.061,132.894L934.167,129.803L933.148,108.436L932.239,89.979L934.099,89.148L935.943,89.626L936.507,87.624L938.144,87.121L937.957,84.496L939.539,82.517L942.162,80.5L944.026,76.898L943.903,73.645L944.744,69.466L947.452,65.346L948.343,59.521L959.777,42.963L962.658,43.764L962.682,47.142L965.971,48.688L971.178,46.874L973.712,45.358L976.913,47.116L981.249,51.34L981.412,64.102L981.58,81.28L984.406,83.015L986.843,83.391L985.931,86.145L986.913,88.192L986.246,90.364L987.825,92.531L989.581,91.961L991.447,92.622L992.111,96.442L991.717,98.641L993.506,99.85L990.454,103.054L987.869,102.604L984.999,103.702L983.549,105.43L980.765,105.138L979.75,107.709L977.514,109.162L976.607,106.934L974.213,106.584L972.771,107.889L971.622,106.58L970.565,109.246L969.208,110.705L966.49,109.214L965.692,107.053L963.986,108.124L964.065,109.919L962.458,113.589L962.386,115.148L960.028,117.457L958.256,117.157L956.218,119.147L952.495,120.249L951.572,121.218L948.975,120.184L945.783,122.022L944.431,123.977L945.427,124.921L940.671,130.638L938.851,135.039L937.495,136.358Z" style="fill:rgb(30,115,190);fill-opacity:0.74;fill-rule:nonzero;stroke:rgb(238,238,238);stroke-width:1px;"/>
                                                    </g>
                                                </g>
                                            </g>
                                            <g>
                                                <g>
                                                    <g>
                                                        <path d="M676.727,292.016L678.051,293.22L677.159,301.519L675.334,318.18L674.239,328.092L672.049,347.731L672.675,360.899L673.345,374.276L668.97,374.546L665.784,373.508L661.022,374.943L659.573,374.719L657.735,376.835L656.578,377.363L655.519,376.837L654.112,372.684L652.106,370.108L651.877,368.027L653.371,363.317L635.41,363.317L624.646,363.307L625.545,361.42L625.03,359.538L626.553,357.305L626.553,355.491L628.263,352.136L628.893,349.786L630.178,347.845L632.121,346.318L633.134,343.963L635.244,341.562L635.288,339.96L632.91,337.13L632.333,334.105L633.052,333.513L632.429,331.476L633.024,329.183L632.221,327.789L632.865,324.183L632.021,322.813L632.354,320.235L631.253,317.637L631.36,315.979L633.673,313.247L633.413,310.605L635.314,309.604L635.811,306.734L637.195,305.586L638.679,303.062L639.914,302.658L640.682,301.03L641.352,296.951L643.194,294.704L644.631,293.837L645.021,291.978L660.753,291.998L676.727,292.016Z" style="fill:rgb(30,115,190);fill-opacity:0.74;fill-rule:nonzero;stroke:rgb(238,238,238);stroke-width:1px;"/>
                                                    </g>
                                                </g>
                                            </g>
                                            <g>
                                                <g>
                                                    <g>
                                                        <path d="M653.83,273.604L653.845,275.349L652.71,277.218L650.99,278.235L650.259,279.548L649.902,282.781L648.426,284.42L647.801,286.252L648.025,288.277L647.287,289.912L645.021,291.978L644.631,293.837L643.194,294.704L641.352,296.951L640.682,301.03L639.914,302.658L638.679,303.062L637.195,305.586L635.811,306.734L635.314,309.604L633.413,310.605L633.673,313.247L631.36,315.979L631.253,317.637L632.354,320.235L632.021,322.813L632.865,324.183L632.221,327.789L618.54,327.817L599.733,327.844L588.988,327.858L588.899,318.155L585.2,317.563L583.956,317.947L582.366,316.468L582.83,294.846L583.04,284.913L580.361,264.344L646.989,264.344L648.3,266.743L648.282,268.137L644.884,271.795L643.716,273.764L653.83,273.604Z" style="fill:rgb(30,115,190);fill-opacity:0.74;fill-rule:nonzero;stroke:rgb(238,238,238);stroke-width:1px;"/>
                                                    </g>
                                                </g>
                                            </g>
                                            <g>
                                                <g>
                                                    <g>
                                                        <path d="M714.851,291.981L718.405,312.832L721.171,328.853L721.835,331.559L723.949,336.499L724.384,339.426L725.226,341.448L723.656,343.202L722.318,347.907L722.309,349.732L723.354,353.319L722.789,358.17L723.167,361.285L724.066,363.308L709.57,363.32L699.899,363.322L685.394,363.324L685.284,365.768L685.805,366.9L687.967,369.057L687.85,372.422L686.95,374.158L684.967,376.115L682.454,375.646L681.457,373.645L680.449,372.911L680.084,369.832L678.834,368.888L677.293,374.35L673.345,374.276L672.675,360.899L672.049,347.731L674.239,328.092L675.334,318.18L677.159,301.519L678.051,293.22L676.727,292.016L676.472,291.543L688.465,291.68L698.061,291.79L714.851,291.981Z" style="fill:rgb(30,115,190);fill-opacity:0.74;fill-rule:nonzero;stroke:rgb(238,238,238);stroke-width:1px;"/>
                                                    </g>
                                                </g>
                                            </g>
                                            <g>
                                                <g>
                                                    <g>
                                                        <path d="M806.746,203.099L806.592,213.013L809.499,211.071L812.763,207.888L814.315,208.322L816.657,206.064L821.428,206.776L822.757,204.942L826.13,203.82L830.586,205.276L831.857,207.09L832.926,210.396L831.295,214.281L824.02,208.355L822.332,213.98L820.145,217.096L817.524,218.842L815.851,220.576L813.271,221.117L810.296,227.11L807.968,227.534L806.34,226.828L804.949,225.189L803.889,225.817L803.192,228.496L800.39,232.75L799.358,235.308L796.121,239.515L794.67,242.298L795.26,243.36L794.21,245.455L791.99,246.906L791.347,246.222L788.173,247.503L786.658,247.087L784.825,249.367L780.586,250.094L778.75,248.769L775.537,251.097L774.103,250.872L771.585,249.429L770.332,248.105L769.548,244.89L767.484,244.307L764.842,242.108L760.227,234.288L759.767,232.725L760.383,231.011L759.868,227.653L761.591,228.288L763.243,227.924L766.34,224.032L765.988,221.53L767.95,217.789L772.355,217.598L771.981,215.421L774.158,211.834L777.409,209.502L779,210.079L781.903,208.275L784.532,206.043L785.861,204.237L785.896,202.852L788.943,194.077L789.936,190.577L789.08,186.664L791.174,185.012L791.168,203.105L806.746,203.099Z" style="fill:rgb(30,115,190);fill-opacity:0.74;fill-rule:nonzero;stroke:rgb(238,238,238);stroke-width:1px;"/>
                                                    </g>
                                                </g>
                                            </g>
                                            <g>
                                                <g>
                                                    <g>
                                                        <path d="M791.174,185.012L789.08,186.664L789.936,190.577L788.943,194.077L785.896,202.852L785.861,204.237L784.532,206.043L781.903,208.275L779,210.079L777.409,209.502L774.158,211.834L771.981,215.421L772.355,217.598L767.95,217.789L765.988,221.53L766.34,224.032L763.243,227.924L761.591,228.288L759.868,227.653L757.693,225.878L755.866,222.639L754.078,222.569L751.036,224.009L748.741,224.227L746.029,222.839L743.764,223.802L739.898,221.415L737.434,220.95L735.728,219.668L733.773,216.117L731.519,215.096L728.557,214.595L726.841,215.306L726.966,196.244L727.12,177.032L727.224,164.062L737.182,163.684L747.286,163.179L755.413,167.329L756.609,166.499L761.19,169.947L767.216,168.231L773.171,167.874L777.298,164.665L780.565,162.682L785.939,160.218L791.156,158.28L791.156,170.453L791.174,185.012Z" style="fill:rgb(30,115,190);fill-opacity:0.74;fill-rule:nonzero;stroke:rgb(238,238,238);stroke-width:1px;"/>
                                                    </g>
                                                </g>
                                            </g>
                                            <g>
                                                <g>
                                                    <g>
                                                        <path d="M820.402,312.365L816.259,315.109L815.078,316.284L811.821,320.819L810.99,323.713L809.761,325.657L807.609,327.313L805.109,328.056L804.692,329.689L800.526,332.904L798.611,334.836L795.501,335.606L793.509,336.949L790.378,336.364L791.842,338.331L791.673,339.587L789.841,340.632L789.258,338.806L787.491,340.533L788.554,341.992L786.238,343.792L785.891,345.279L782.865,343.868L781.963,342.591L781.419,339.086L779.641,335.947L778.346,335.054L777.497,332.914L776.661,329.22L775.338,326.849L773.529,325.812L770.034,321.106L768.944,318.722L765.917,316.196L765.194,314.658L760.218,309.824L756.791,303.524L756.356,302.241L753.29,300.901L748.762,297.311L749.344,295.54L752.361,291.97L763.707,288.313L782.676,289.153L783.307,290.8L784.973,289.923L787.078,292.677L787.211,295.123L804.116,295.702L814.21,306.058L820.402,312.365Z" style="fill:rgb(30,115,190);fill-opacity:0.74;fill-rule:nonzero;stroke:rgb(238,238,238);stroke-width:1px;"/>
                                                    </g>
                                                </g>
                                            </g>
                                            <g>
                                                <g>
                                                    <g>
                                                        <path d="M878.196,170.937L876.066,172.703L875.007,174.957L871.858,178.055L872.574,180.321L871.084,182.475L870.87,186.017L872.238,187.054L877.66,194.68L872.586,198.021L871.111,199.751L867.4,201.297L864.209,200.828L861.961,203.106L848.159,203.106L827.453,203.103L806.746,203.099L791.168,203.105L791.174,185.012L791.156,170.453L791.156,158.28L793.932,157.249L802.479,152.513L802.479,158.054L818.971,158.067L839.584,158.081L856.073,158.095L868.442,158.105L870.124,160.238L871.875,161.017L873.358,167.037L874.662,168.602L877.335,169.61L878.196,170.937Z" style="fill:rgb(30,115,190);fill-opacity:0.74;fill-rule:nonzero;stroke:rgb(238,238,238);stroke-width:1px;"/>
                                                    </g>
                                                </g>
                                            </g>
                                            <g>
                                                <g>
                                                    <g>
                                                        <path d="M744.097,262.405L754.74,262.46L769.741,262.537L770.447,262.153L774.131,262.304L773.452,263.73L773.007,267.046L770.402,267.957L768.263,271.36L766.302,270.786L763.526,271.791L761.238,273.977L759.894,272.757L758.563,273.08L756.877,274.603L755.757,274.524L754.224,277.316L752.28,277.791L749.83,279.497L746.437,281.298L743.273,281.743L741.051,282.569L739.07,284.42L738.195,286.768L735.652,287.233L734.834,288.328L734.273,292.215L714.851,291.981L698.061,291.79L688.465,291.68L676.472,291.543L676.727,292.016L660.753,291.998L645.021,291.978L647.287,289.912L648.025,288.277L647.801,286.252L648.426,284.42L649.902,282.781L650.259,279.548L650.99,278.235L652.71,277.218L653.845,275.349L653.83,273.604L654.77,271.699L654.281,269.548L655.476,268.829L656.064,266.723L656.034,264.34L657.082,264.303L657.632,264.361L678.436,264.366L677.879,260.766L681.282,261.102L681.724,261.68L701.635,261.29L722.396,262.019L743.158,262.744L744.097,262.405Z" style="fill:rgb(30,115,190);fill-opacity:0.74;fill-rule:nonzero;stroke:rgb(238,238,238);stroke-width:1px;"/>
                                                    </g>
                                                </g>
                                            </g>
                                            <g>
                                                <g>
                                                    <g>
                                                        <path d="M727.224,164.062L727.12,177.032L726.966,196.244L726.841,215.306L726.355,218.752L727.153,220.547L725.651,221.503L721.633,223.021L719.589,222.124L717.524,223.159L717.822,224.816L716.005,226.969L714.51,229.578L712.387,230.761L711.392,232.098L709.803,235.917L707.674,236.337L706.119,235.49L704.979,233.716L702.799,233.53L701.449,235.902L701.019,237.757L699.157,238.288L697.705,236.946L694.728,237.359L692.162,239.874L688.701,237.636L685.307,237.198L683.587,238.087L680.724,238.043L680.627,239.638L678.691,240.185L677.894,238.542L678.683,237.386L679.612,231.447L681.902,229.803L682.547,228.208L684.763,225.849L686.353,222.026L686.342,218.829L684.594,213.826L685.133,211.459L686.303,209.845L686.371,192.577L686.413,180.776L686.478,163.536L688.103,164.963L690.485,165.339L693.185,164.703L696.324,162.878L709.091,162.886L727.219,162.896L727.224,164.062Z" style="fill:rgb(30,115,190);fill-opacity:0.74;fill-rule:nonzero;stroke:rgb(238,238,238);stroke-width:1px;"/>
                                                    </g>
                                                </g>
                                            </g>
                                            <g>
                                                <g>
                                                    <g>
                                                        <path d="M861.961,203.106L863.123,227.521L873.134,227.511L871.689,228.872L871.304,231.336L870.324,231.578L868.075,235.709L864.426,236.198L863.839,237.056L860.975,236.724L861.804,234.539L859.82,232.967L860.779,231.218L857.977,230.868L855.578,229.311L854.336,226.765L854.793,224.751L857.891,224.346L856.127,222.707L855.051,220.486L856.229,219.908L855.22,213.386L856.455,211.003L859.42,208.206L859.358,205.775L857.803,206.238L857.29,208.719L854.611,210.854L852.679,211.217L852.45,212.741L850.163,212.176L852.464,215.655L850.976,219.032L850.717,222.02L851.248,226.048L852.516,228.185L852.183,229.307L853.766,233.509L849.867,231.844L845.441,230.63L842.645,227.775L840.314,228.426L840.181,226.763L843.518,221.347L843.339,219.205L844.82,219.226L843.164,216.852L841.966,218.166L839.29,216.049L836.601,214.901L836.631,212.822L832.926,210.396L831.857,207.09L830.586,205.276L826.13,203.82L822.757,204.942L821.428,206.776L816.657,206.064L814.315,208.322L812.763,207.888L809.499,211.071L806.592,213.013L806.746,203.099L827.453,203.103L848.159,203.106L861.961,203.106Z" style="fill:rgb(30,115,190);fill-opacity:0.74;fill-rule:nonzero;stroke:rgb(238,238,238);stroke-width:1px;"/>
                                                    </g>
                                                </g>
                                            </g>
                                            <g>
                                                <g>
                                                    <g>
                                                        <path d="M940.832,170.557L936.714,171.533L938.385,169.119L940.832,170.557ZM936.403,140.308L936.06,141.354L937.456,144.533L938.567,145.604L936.028,146.903L932.813,151.391L937.417,153.457L940.249,159.305L940.761,162.022L944.038,163.512L948.435,161.563L949.33,161.93L949.225,164.551L947.567,164.545L942.405,165.557L938.631,167.408L937.972,163.796L933.89,167.123L930.686,167.764L930.008,163.962L928.409,162.13L927.716,157.732L921.531,157.831L921.517,157.614L906.475,157.384L896.414,156.953L896.016,156.46L899.813,142.844L911.573,143.292L928.576,143.857L933.892,140.412L936.403,140.308Z" style="fill:rgb(30,115,190);fill-opacity:0.74;fill-rule:nonzero;stroke:rgb(238,238,238);stroke-width:1px;"/>
                                                    </g>
                                                </g>
                                            </g>
                                            <g>
                                                <g>
                                                    <g>
                                                        <path d="M937.495,136.358L936.403,140.308L933.892,140.412L928.576,143.857L911.573,143.292L910.332,140.104L911.469,137.002L912.465,130.984L912.796,126.923L914.116,123.088L916.833,117.893L918.086,110.91L923.293,107.78L925.006,104.481L924.225,101.024L925.876,98.149L925.767,96.053L927.239,91.969L928.61,90.062L930.49,90.695L932.239,89.979L933.148,108.436L934.167,129.803L936.061,132.894L937.495,136.358Z" style="fill:rgb(30,115,190);fill-opacity:0.74;fill-rule:nonzero;stroke:rgb(238,238,238);stroke-width:1px;"/>
                                                    </g>
                                                </g>
                                            </g>
                                            <g>
                                                <g>
                                                    <g>
                                                        <path d="M911.573,143.292L899.813,142.844L899.615,140.551L899.907,126.433L897.419,124.888L897.981,122.109L897.245,116.38L897.474,114.442L898.8,111.574L898.969,107.583L898.038,104.695L898.389,100.954L898.335,96.098L913.322,96.072L925.767,96.053L925.876,98.149L924.225,101.024L925.006,104.481L923.293,107.78L918.086,110.91L916.833,117.893L914.116,123.088L912.796,126.923L912.465,130.984L911.469,137.002L910.332,140.104L911.573,143.292Z" style="fill:rgb(30,115,190);fill-opacity:0.74;fill-rule:nonzero;stroke:rgb(238,238,238);stroke-width:1px;"/>
                                                    </g>
                                                </g>
                                            </g>
                                            <g>
                                                <g>
                                                    <g>
                                                        <path d="M889.992,178.188L888.265,182.854L885.26,185.778L885.037,188.763L887.903,189.283L889.282,191.276L888.225,196.273L886.89,198.907L886.013,203.025L882.818,207.677L882.235,209.607L879.633,211.436L876.769,217.041L874.379,218.039L875.234,214.277L872.945,213.013L871.661,213.071L868.412,210.524L865.856,207.613L865.867,205.447L867.388,201.798L871.398,200.224L872.586,198.021L877.66,194.68L872.238,187.054L870.87,186.017L871.084,182.475L872.574,180.321L871.858,178.055L875.007,174.957L876.066,172.703L878.196,170.937L889.992,178.188Z" style="fill:rgb(30,115,190);fill-opacity:0.74;fill-rule:nonzero;stroke:rgb(238,238,238);stroke-width:1px;"/>
                                                    </g>
                                                </g>
                                            </g>
                                            <g>
                                                <g>
                                                    <g>
                                                        <path d="M921.531,157.831L921.605,167.694L920.909,171.371L919.599,171.262L914.587,172.243L913.003,171.835L911.384,172.56L905.885,172.757L904.724,172.375L903.246,173.739L900.876,174.546L894.171,178.196L892.79,175.963L896.36,173.689L895.456,172.158L896.414,156.953L906.475,157.384L921.517,157.614L921.531,157.831Z" style="fill:rgb(30,115,190);fill-opacity:0.74;fill-rule:nonzero;stroke:rgb(238,238,238);stroke-width:1px;"/>
                                                    </g>
                                                </g>
                                            </g>
                                            <g>
                                                <g>
                                                    <g>
                                                        <path d="M867.4,201.297L864.91,204.694L865.116,207.869L867.527,211.65L867.83,215.292L870.93,220.547L872.371,221.351L871.775,224.129L873.134,227.511L863.123,227.521L861.961,203.106L864.209,200.828L867.4,201.297Z" style="fill:rgb(30,115,190);fill-opacity:0.74;fill-rule:nonzero;stroke:rgb(238,238,238);stroke-width:1px;"/>
                                                    </g>
                                                </g>
                                            </g>
                                            <g>
                                                <g>
                                                    <g>
                                                        <path d="M930.008,163.962L928.563,162.846L927.127,165.427L926.869,169.017L925.686,170.505L920.909,171.371L921.605,167.694L921.531,157.831L927.716,157.732L928.409,162.13L930.008,163.962Z" style="fill:rgb(30,115,190);fill-opacity:0.74;fill-rule:nonzero;stroke:rgb(238,238,238);stroke-width:1px;"/>
                                                    </g>
                                                </g>
                                            </g>
                                            <g>
                                                <g>
                                                    <g>
                                                        <path d="M843.339,219.205L841.966,218.166L843.164,216.852L844.82,219.226L843.339,219.205Z" style="fill:rgb(30,115,190);fill-opacity:0.74;fill-rule:nonzero;stroke:rgb(238,238,238);stroke-width:1px;"/>
                                                    </g>
                                                </g>
                                            </g>
                                        </g>
                                    </g>
                                </g>
                            </g>
                        </g>
                    </g>
                </g>
            </g>
        </g>
    </g>
</svg>
