<svg width="168" height="25" viewBox="0 0 168 25" fill="none" xmlns="http://www.w3.org/2000/svg">
<path fill-rule="evenodd" clip-rule="evenodd" d="M77.1639 21.3575C77.1639 23.5824 76.4519 24.3389 74.3382 24.3389C73.2258 24.3389 71.9687 24.2722 71.1455 24.1943V0.0986328H77.0081L87.2538 15.4059C87.1484 14.7776 87.1037 14.1406 87.1203 13.5037V0.154255H93.1498V24.1943C92.1374 24.2944 90.6801 24.3389 89.3007 24.3389C88.4751 24.4497 87.6357 24.2935 86.9051 23.8932C86.1746 23.4929 85.5912 22.8695 85.2402 22.114C84.3058 20.679 77.0304 9.65458 77.0304 9.65458C77.1545 10.4416 77.1992 11.2392 77.1639 12.0352V21.3798V21.3575Z" fill="#7C8385"/>
<path fill-rule="evenodd" clip-rule="evenodd" d="M7.84757 0.109642C2.2297 0.365505 0.149414 3.64723 0.149414 7.25157C0.149414 10.8559 2.37431 14.4714 8.10343 14.5937H13.2318C13.5484 14.5717 13.8662 14.6151 14.1653 14.7212C14.4645 14.8272 14.7386 14.9937 14.9706 15.2102C15.2027 15.4267 15.3877 15.6886 15.5143 15.9797C15.6408 16.2707 15.7061 16.5847 15.7061 16.9021C15.7061 17.2194 15.6408 17.5334 15.5143 17.8245C15.3877 18.1156 15.2027 18.3775 14.9706 18.594C14.7386 18.8105 14.4645 18.9769 14.1653 19.083C13.8662 19.189 13.5484 19.2324 13.2318 19.2104H4.18761C1.26186 19.2104 0.405278 20.0336 0.405278 22.8481V24.3388C3.20865 24.4055 8.08118 24.4945 13.8659 24.4167C19.6507 24.3388 21.9979 20.601 21.9979 16.763C21.9979 12.9251 19.5505 9.17611 13.877 9.07599H8.47054C7.94736 9.02224 7.46271 8.77637 7.11033 8.38594C6.75796 7.99551 6.5629 7.48827 6.5629 6.96233C6.5629 6.4364 6.75796 5.92916 7.11033 5.53873C7.46271 5.1483 7.94736 4.90243 8.47054 4.84868C9.34937 4.79306 16.5803 4.84868 16.5803 4.84868C19.5283 4.84868 20.3626 4.01434 20.3626 1.21097V0.0985175C18.7162 0.0985175 12.1416 -0.101724 7.84757 0.0985175" fill="#7C8385"/>
<path fill-rule="evenodd" clip-rule="evenodd" d="M104.053 0.109642C98.4236 0.365505 96.3545 3.65836 96.3545 7.25157C96.3545 10.8448 98.635 14.4714 104.309 14.5937H109.437C109.754 14.5717 110.071 14.6151 110.37 14.7212C110.67 14.8272 110.944 14.9937 111.176 15.2102C111.408 15.4267 111.593 15.6886 111.719 15.9797C111.846 16.2707 111.911 16.5847 111.911 16.9021C111.911 17.2194 111.846 17.5334 111.719 17.8245C111.593 18.1156 111.408 18.3775 111.176 18.594C110.944 18.8105 110.67 18.9769 110.37 19.083C110.071 19.189 109.754 19.2324 109.437 19.2104H100.393C97.4447 19.2104 96.6104 20.0447 96.6104 22.8481V24.3388C99.4137 24.4055 104.286 24.4945 110.071 24.4167C115.856 24.3388 118.203 20.601 118.203 16.763C118.203 12.9251 115.756 9.17611 110.082 9.07599H104.676C104.152 9.02224 103.668 8.77637 103.315 8.38594C102.963 7.99551 102.768 7.48827 102.768 6.96233C102.768 6.4364 102.963 5.92916 103.315 5.53873C103.668 5.1483 104.152 4.90243 104.676 4.84868C105.554 4.79306 112.785 4.84868 112.785 4.84868C115.733 4.84868 116.568 4.01434 116.568 1.21097V0.0985175C114.921 0.0985175 108.347 -0.101724 104.053 0.0985175" fill="#7C8385"/>
<path fill-rule="evenodd" clip-rule="evenodd" d="M60.2879 14.7496L57.3065 5.31602L54.3363 14.7496C54.4116 14.6896 54.5075 14.6617 54.6033 14.6717H60.0098C60.109 14.6611 60.2086 14.6889 60.2879 14.7496V14.7496ZM70.4334 24.1943C69.6547 24.1943 67.9193 24.3389 66.6288 24.3389C64.6264 24.3389 63.2247 24.0719 62.6463 22.2364L61.8119 19.5999H52.8122L51.989 22.2586C51.4105 24.1053 50.1423 24.3167 48.0843 24.3612H42.7779C40.8868 24.3612 39.841 23.9051 38.9622 22.8816L31.1751 13.8485C31.0389 13.7159 30.9459 13.5453 30.9081 13.359V21.402C30.9081 23.6269 30.1961 24.3834 28.0713 24.3834C26.9589 24.3834 25.1678 24.3167 24.3335 24.2388V0.0986328H30.8969V11.034C30.9096 10.7881 31.0035 10.5534 31.1639 10.3665L39.0846 0.0986328H46.8717L36.8597 11.7794L45.2031 20.8458C45.2999 20.9492 45.3688 21.0755 45.4033 21.2129C45.4159 21.0834 45.4459 20.9562 45.4923 20.8347L53.8245 0.0986328H60.7885L70.4334 24.1943Z" fill="#7C8385"/>
<path fill-rule="evenodd" clip-rule="evenodd" d="M156.871 14.7495L153.89 5.31592L150.92 14.7495C150.995 14.6895 151.091 14.6616 151.187 14.6716H156.593C156.693 14.661 156.792 14.6888 156.871 14.7495V14.7495ZM167.017 24.1942C166.238 24.1942 164.503 24.3388 163.212 24.3388C161.199 24.3388 159.808 24.0718 159.23 22.2363L158.395 19.5998H149.407L148.572 22.2585C147.994 24.1052 146.726 24.3166 144.668 24.3611H139.361C137.47 24.3611 136.425 23.905 135.546 22.8815L127.759 13.8484C127.618 13.706 127.524 13.5233 127.492 13.3256V21.3686C127.492 23.5935 126.78 24.3499 124.655 24.3499C123.542 24.3499 121.751 24.2832 120.917 24.2053V0.0985268H127.48V11.0339C127.493 10.788 127.587 10.5533 127.747 10.3664L135.679 0.0985268H143.466L133.454 11.7681L141.798 20.8346C141.895 20.938 141.963 21.0643 141.998 21.2017C142.01 21.0721 142.04 20.9448 142.087 20.8235L150.386 0.0874023H157.35L167.017 24.1942Z" fill="#7C8385"/>
</svg>
